%TF.GenerationSoftware,KiCad,Pcbnew,10.0.3-10.0.3~ubuntu24.04.1*%
%TF.CreationDate,2026-06-26T19:14:40-05:00*%
%TF.ProjectId,potentiometer,706f7465-6e74-4696-9f6d-657465722e6b,rev?*%
%TF.SameCoordinates,Original*%
%TF.FileFunction,Copper,L2,Bot*%
%TF.FilePolarity,Positive*%
%FSLAX46Y46*%
G04 Gerber Fmt 4.6, Leading zero omitted, Abs format (unit mm)*
G04 Created by KiCad (PCBNEW 10.0.3-10.0.3~ubuntu24.04.1) date 2026-06-26 19:14:40*
%MOMM*%
%LPD*%
G01*
G04 APERTURE LIST*
G04 Aperture macros list*
%AMRoundRect*
0 Rectangle with rounded corners*
0 $1 Rounding radius*
0 $2 $3 $4 $5 $6 $7 $8 $9 X,Y pos of 4 corners*
0 Add a 4 corners polygon primitive as box body*
4,1,4,$2,$3,$4,$5,$6,$7,$8,$9,$2,$3,0*
0 Add four circle primitives for the rounded corners*
1,1,$1+$1,$2,$3*
1,1,$1+$1,$4,$5*
1,1,$1+$1,$6,$7*
1,1,$1+$1,$8,$9*
0 Add four rect primitives between the rounded corners*
20,1,$1+$1,$2,$3,$4,$5,0*
20,1,$1+$1,$4,$5,$6,$7,0*
20,1,$1+$1,$6,$7,$8,$9,0*
20,1,$1+$1,$8,$9,$2,$3,0*%
G04 Aperture macros list end*
%TA.AperFunction,ComponentPad*%
%ADD10R,1.800000X1.800000*%
%TD*%
%TA.AperFunction,ComponentPad*%
%ADD11C,1.800000*%
%TD*%
%TA.AperFunction,ComponentPad*%
%ADD12C,2.550000*%
%TD*%
%TA.AperFunction,ComponentPad*%
%ADD13RoundRect,0.250000X0.600000X0.725000X-0.600000X0.725000X-0.600000X-0.725000X0.600000X-0.725000X0*%
%TD*%
%TA.AperFunction,ComponentPad*%
%ADD14O,1.700000X1.950000*%
%TD*%
G04 APERTURE END LIST*
D10*
%TO.P,R2,1*%
%TO.N,Plane2*%
X104650000Y-81000000D03*
D11*
%TO.P,R2,2*%
%TO.N,Net-(J1-Pin_2)*%
X104650000Y-84500000D03*
%TO.P,R2,3*%
%TO.N,Plane1*%
X163150000Y-81000000D03*
D12*
%TO.P,R2,SH1,SHIELD_SH1*%
X110000000Y-78500000D03*
%TO.P,R2,SH2,SHIELD__1_SH2*%
X108800000Y-87000000D03*
%TO.P,R2,SH3,SHIELD__2_SH3*%
X157800000Y-78500000D03*
%TO.P,R2,SH4,SHIELD__3_SH4*%
X159000000Y-87000000D03*
%TD*%
D13*
%TO.P,J1,1,Pin_1_1*%
%TO.N,Plane2*%
X150000000Y-73000000D03*
D14*
%TO.P,J1,2,Pin_2_2*%
%TO.N,Net-(J1-Pin_2)*%
X147500000Y-73000000D03*
%TO.P,J1,3,Pin_3_3*%
%TO.N,Plane1*%
X145000000Y-73000000D03*
%TD*%
%TA.AperFunction,Conductor*%
%TO.N,Plane2*%
G36*
X168003243Y-69500669D02*
G01*
X168307061Y-69516591D01*
X168319937Y-69517945D01*
X168617212Y-69565029D01*
X168629896Y-69567724D01*
X168920626Y-69645625D01*
X168932967Y-69649636D01*
X169213935Y-69757489D01*
X169225790Y-69762767D01*
X169493976Y-69899415D01*
X169505192Y-69905891D01*
X169757619Y-70069818D01*
X169768100Y-70077433D01*
X169964849Y-70236757D01*
X170002011Y-70266850D01*
X170011656Y-70275535D01*
X170224464Y-70488343D01*
X170233149Y-70497988D01*
X170422564Y-70731896D01*
X170430183Y-70742384D01*
X170594105Y-70994801D01*
X170600591Y-71006035D01*
X170737231Y-71274206D01*
X170742510Y-71286064D01*
X170850363Y-71567032D01*
X170854374Y-71579375D01*
X170932273Y-71870097D01*
X170934971Y-71882793D01*
X170982052Y-72180046D01*
X170983409Y-72192955D01*
X170999330Y-72496756D01*
X170999500Y-72503245D01*
X170999500Y-85496754D01*
X170999330Y-85503243D01*
X170983409Y-85807044D01*
X170982052Y-85819953D01*
X170934971Y-86117206D01*
X170932273Y-86129902D01*
X170854374Y-86420624D01*
X170850363Y-86432967D01*
X170742510Y-86713935D01*
X170737231Y-86725793D01*
X170600591Y-86993964D01*
X170594101Y-87005204D01*
X170430188Y-87257609D01*
X170422559Y-87268110D01*
X170233149Y-87502011D01*
X170224464Y-87511656D01*
X170011656Y-87724464D01*
X170002011Y-87733149D01*
X169768110Y-87922559D01*
X169757609Y-87930188D01*
X169505204Y-88094101D01*
X169493964Y-88100591D01*
X169225793Y-88237231D01*
X169213935Y-88242510D01*
X168932967Y-88350363D01*
X168920624Y-88354374D01*
X168629902Y-88432273D01*
X168617206Y-88434971D01*
X168319953Y-88482052D01*
X168307044Y-88483409D01*
X168003244Y-88499330D01*
X167996755Y-88499500D01*
X160310800Y-88499500D01*
X160243761Y-88479815D01*
X160198006Y-88427011D01*
X160188062Y-88357853D01*
X160217087Y-88294297D01*
X160223119Y-88287819D01*
X160337751Y-88173186D01*
X160337756Y-88173181D01*
X160479442Y-87988532D01*
X160595815Y-87786969D01*
X160684882Y-87571940D01*
X160745121Y-87347126D01*
X160775500Y-87116372D01*
X160775500Y-86883628D01*
X160745121Y-86652874D01*
X160684882Y-86428060D01*
X160684879Y-86428052D01*
X160595819Y-86213039D01*
X160595811Y-86213023D01*
X160479446Y-86011475D01*
X160479442Y-86011468D01*
X160367832Y-85866015D01*
X160337757Y-85826820D01*
X160337751Y-85826813D01*
X160173186Y-85662248D01*
X160173179Y-85662242D01*
X159988540Y-85520564D01*
X159988538Y-85520563D01*
X159988532Y-85520558D01*
X159921816Y-85482039D01*
X159921815Y-85482038D01*
X159786976Y-85404188D01*
X159786960Y-85404180D01*
X159725471Y-85378711D01*
X166149500Y-85378711D01*
X166149500Y-85621288D01*
X166181161Y-85861785D01*
X166243947Y-86096104D01*
X166336773Y-86320205D01*
X166336776Y-86320212D01*
X166458064Y-86530289D01*
X166458066Y-86530292D01*
X166458067Y-86530293D01*
X166605733Y-86722736D01*
X166605739Y-86722743D01*
X166777256Y-86894260D01*
X166777262Y-86894265D01*
X166969711Y-87041936D01*
X167179788Y-87163224D01*
X167403900Y-87256054D01*
X167638211Y-87318838D01*
X167818586Y-87342584D01*
X167878711Y-87350500D01*
X167878712Y-87350500D01*
X168121289Y-87350500D01*
X168169388Y-87344167D01*
X168361789Y-87318838D01*
X168596100Y-87256054D01*
X168820212Y-87163224D01*
X169030289Y-87041936D01*
X169222738Y-86894265D01*
X169394265Y-86722738D01*
X169541936Y-86530289D01*
X169663224Y-86320212D01*
X169756054Y-86096100D01*
X169818838Y-85861789D01*
X169850500Y-85621288D01*
X169850500Y-85378712D01*
X169818838Y-85138211D01*
X169756054Y-84903900D01*
X169663224Y-84679788D01*
X169541936Y-84469711D01*
X169394265Y-84277262D01*
X169394260Y-84277256D01*
X169222743Y-84105739D01*
X169222736Y-84105733D01*
X169030293Y-83958067D01*
X169030292Y-83958066D01*
X169030289Y-83958064D01*
X168820212Y-83836776D01*
X168820205Y-83836773D01*
X168596104Y-83743947D01*
X168361785Y-83681161D01*
X168121289Y-83649500D01*
X168121288Y-83649500D01*
X167878712Y-83649500D01*
X167878711Y-83649500D01*
X167638214Y-83681161D01*
X167403895Y-83743947D01*
X167179794Y-83836773D01*
X167179785Y-83836777D01*
X166969706Y-83958067D01*
X166777263Y-84105733D01*
X166777256Y-84105739D01*
X166605739Y-84277256D01*
X166605733Y-84277263D01*
X166458067Y-84469706D01*
X166336777Y-84679785D01*
X166336773Y-84679794D01*
X166243947Y-84903895D01*
X166181161Y-85138214D01*
X166149500Y-85378711D01*
X159725471Y-85378711D01*
X159571947Y-85315120D01*
X159347122Y-85254878D01*
X159116382Y-85224501D01*
X159116377Y-85224500D01*
X159116372Y-85224500D01*
X158883628Y-85224500D01*
X158883622Y-85224500D01*
X158883617Y-85224501D01*
X158652877Y-85254878D01*
X158428052Y-85315120D01*
X158213039Y-85404180D01*
X158213023Y-85404188D01*
X158011475Y-85520553D01*
X158011459Y-85520564D01*
X157826820Y-85662242D01*
X157826813Y-85662248D01*
X157662248Y-85826813D01*
X157662242Y-85826820D01*
X157520564Y-86011459D01*
X157520553Y-86011475D01*
X157404188Y-86213023D01*
X157404180Y-86213039D01*
X157315120Y-86428052D01*
X157254878Y-86652877D01*
X157224501Y-86883617D01*
X157224500Y-86883634D01*
X157224500Y-87116365D01*
X157224501Y-87116382D01*
X157251154Y-87318838D01*
X157254879Y-87347126D01*
X157296380Y-87502011D01*
X157315120Y-87571947D01*
X157404180Y-87786960D01*
X157404188Y-87786976D01*
X157520553Y-87988524D01*
X157520564Y-87988540D01*
X157662242Y-88173179D01*
X157662248Y-88173186D01*
X157776881Y-88287819D01*
X157810366Y-88349142D01*
X157805382Y-88418834D01*
X157763510Y-88474767D01*
X157698046Y-88499184D01*
X157689200Y-88499500D01*
X110110800Y-88499500D01*
X110043761Y-88479815D01*
X109998006Y-88427011D01*
X109988062Y-88357853D01*
X110017087Y-88294297D01*
X110023119Y-88287819D01*
X110137751Y-88173186D01*
X110137756Y-88173181D01*
X110279442Y-87988532D01*
X110395815Y-87786969D01*
X110484882Y-87571940D01*
X110545121Y-87347126D01*
X110575500Y-87116372D01*
X110575500Y-86883628D01*
X110545121Y-86652874D01*
X110484882Y-86428060D01*
X110484879Y-86428052D01*
X110395819Y-86213039D01*
X110395811Y-86213023D01*
X110279446Y-86011475D01*
X110279442Y-86011468D01*
X110167832Y-85866015D01*
X110137757Y-85826820D01*
X110137751Y-85826813D01*
X109973186Y-85662248D01*
X109973179Y-85662242D01*
X109788540Y-85520564D01*
X109788538Y-85520562D01*
X109788532Y-85520558D01*
X109788527Y-85520555D01*
X109788524Y-85520553D01*
X109586976Y-85404188D01*
X109586960Y-85404180D01*
X109371947Y-85315120D01*
X109147122Y-85254878D01*
X108916382Y-85224501D01*
X108916377Y-85224500D01*
X108916372Y-85224500D01*
X108683628Y-85224500D01*
X108683622Y-85224500D01*
X108683617Y-85224501D01*
X108452877Y-85254878D01*
X108228052Y-85315120D01*
X108013039Y-85404180D01*
X108013023Y-85404188D01*
X107811475Y-85520553D01*
X107811459Y-85520564D01*
X107626820Y-85662242D01*
X107626813Y-85662248D01*
X107462248Y-85826813D01*
X107462242Y-85826820D01*
X107320564Y-86011459D01*
X107320553Y-86011475D01*
X107204188Y-86213023D01*
X107204180Y-86213039D01*
X107115120Y-86428052D01*
X107054878Y-86652877D01*
X107024501Y-86883617D01*
X107024500Y-86883634D01*
X107024500Y-87116365D01*
X107024501Y-87116382D01*
X107051154Y-87318838D01*
X107054879Y-87347126D01*
X107096380Y-87502011D01*
X107115120Y-87571947D01*
X107204180Y-87786960D01*
X107204188Y-87786976D01*
X107320553Y-87988524D01*
X107320564Y-87988540D01*
X107462242Y-88173179D01*
X107462248Y-88173186D01*
X107576881Y-88287819D01*
X107610366Y-88349142D01*
X107605382Y-88418834D01*
X107563510Y-88474767D01*
X107498046Y-88499184D01*
X107489200Y-88499500D01*
X99503245Y-88499500D01*
X99496756Y-88499330D01*
X99192955Y-88483409D01*
X99180046Y-88482052D01*
X98882793Y-88434971D01*
X98870097Y-88432273D01*
X98579375Y-88354374D01*
X98567032Y-88350363D01*
X98286064Y-88242510D01*
X98274206Y-88237231D01*
X98143585Y-88170676D01*
X98006029Y-88100587D01*
X97994801Y-88094105D01*
X97742384Y-87930183D01*
X97731896Y-87922564D01*
X97497988Y-87733149D01*
X97488343Y-87724464D01*
X97275535Y-87511656D01*
X97266850Y-87502011D01*
X97223713Y-87448741D01*
X97077433Y-87268100D01*
X97069818Y-87257619D01*
X96905891Y-87005192D01*
X96899415Y-86993976D01*
X96762767Y-86725790D01*
X96757489Y-86713935D01*
X96649636Y-86432967D01*
X96645625Y-86420624D01*
X96590003Y-86213039D01*
X96567724Y-86129896D01*
X96565028Y-86117206D01*
X96548282Y-86011475D01*
X96517945Y-85819937D01*
X96516591Y-85807061D01*
X96500670Y-85503243D01*
X96500500Y-85496754D01*
X96500500Y-85378711D01*
X97649500Y-85378711D01*
X97649500Y-85621288D01*
X97681161Y-85861785D01*
X97743947Y-86096104D01*
X97836773Y-86320205D01*
X97836776Y-86320212D01*
X97958064Y-86530289D01*
X97958066Y-86530292D01*
X97958067Y-86530293D01*
X98105733Y-86722736D01*
X98105739Y-86722743D01*
X98277256Y-86894260D01*
X98277262Y-86894265D01*
X98469711Y-87041936D01*
X98679788Y-87163224D01*
X98903900Y-87256054D01*
X99138211Y-87318838D01*
X99318586Y-87342584D01*
X99378711Y-87350500D01*
X99378712Y-87350500D01*
X99621289Y-87350500D01*
X99669388Y-87344167D01*
X99861789Y-87318838D01*
X100096100Y-87256054D01*
X100320212Y-87163224D01*
X100530289Y-87041936D01*
X100722738Y-86894265D01*
X100894265Y-86722738D01*
X101041936Y-86530289D01*
X101163224Y-86320212D01*
X101256054Y-86096100D01*
X101318838Y-85861789D01*
X101350500Y-85621288D01*
X101350500Y-85378712D01*
X101318838Y-85138211D01*
X101256054Y-84903900D01*
X101163224Y-84679788D01*
X101041936Y-84469711D01*
X101034784Y-84460390D01*
X101034783Y-84460388D01*
X100980602Y-84389778D01*
X103249500Y-84389778D01*
X103249500Y-84610221D01*
X103283985Y-84827952D01*
X103352103Y-85037603D01*
X103352104Y-85037606D01*
X103403366Y-85138211D01*
X103447333Y-85224500D01*
X103452187Y-85234025D01*
X103581752Y-85412358D01*
X103581756Y-85412363D01*
X103737636Y-85568243D01*
X103737641Y-85568247D01*
X103810647Y-85621288D01*
X103915978Y-85697815D01*
X104044375Y-85763237D01*
X104112393Y-85797895D01*
X104112396Y-85797896D01*
X104201396Y-85826813D01*
X104322049Y-85866015D01*
X104539778Y-85900500D01*
X104539779Y-85900500D01*
X104760221Y-85900500D01*
X104760222Y-85900500D01*
X104977951Y-85866015D01*
X105187606Y-85797895D01*
X105384022Y-85697815D01*
X105562365Y-85568242D01*
X105718242Y-85412365D01*
X105847815Y-85234022D01*
X105947895Y-85037606D01*
X106016015Y-84827951D01*
X106050500Y-84610222D01*
X106050500Y-84389778D01*
X106016015Y-84172049D01*
X105947895Y-83962394D01*
X105947895Y-83962393D01*
X105883889Y-83836777D01*
X105847815Y-83765978D01*
X105786192Y-83681161D01*
X105718247Y-83587641D01*
X105718243Y-83587636D01*
X105562363Y-83431756D01*
X105562358Y-83431752D01*
X105384025Y-83302187D01*
X105384024Y-83302186D01*
X105384022Y-83302185D01*
X105321096Y-83270122D01*
X105187606Y-83202104D01*
X105187603Y-83202103D01*
X104977952Y-83133985D01*
X104869086Y-83116742D01*
X104760222Y-83099500D01*
X104539778Y-83099500D01*
X104467201Y-83110995D01*
X104322047Y-83133985D01*
X104112396Y-83202103D01*
X104112393Y-83202104D01*
X103915974Y-83302187D01*
X103737641Y-83431752D01*
X103737636Y-83431756D01*
X103581756Y-83587636D01*
X103581752Y-83587641D01*
X103452187Y-83765974D01*
X103352104Y-83962393D01*
X103352103Y-83962396D01*
X103283985Y-84172047D01*
X103249500Y-84389778D01*
X100980602Y-84389778D01*
X100894266Y-84277263D01*
X100894260Y-84277256D01*
X100722743Y-84105739D01*
X100722736Y-84105733D01*
X100530293Y-83958067D01*
X100530292Y-83958066D01*
X100530289Y-83958064D01*
X100320212Y-83836776D01*
X100320205Y-83836773D01*
X100096104Y-83743947D01*
X99861785Y-83681161D01*
X99621289Y-83649500D01*
X99621288Y-83649500D01*
X99378712Y-83649500D01*
X99378711Y-83649500D01*
X99138214Y-83681161D01*
X98903895Y-83743947D01*
X98679794Y-83836773D01*
X98679785Y-83836777D01*
X98469706Y-83958067D01*
X98277263Y-84105733D01*
X98277256Y-84105739D01*
X98105739Y-84277256D01*
X98105733Y-84277263D01*
X97958067Y-84469706D01*
X97836777Y-84679785D01*
X97836773Y-84679794D01*
X97743947Y-84903895D01*
X97681161Y-85138214D01*
X97649500Y-85378711D01*
X96500500Y-85378711D01*
X96500500Y-80052155D01*
X103250000Y-80052155D01*
X103250000Y-80750000D01*
X104101518Y-80750000D01*
X104090889Y-80768409D01*
X104050000Y-80921009D01*
X104050000Y-81078991D01*
X104090889Y-81231591D01*
X104101518Y-81250000D01*
X103250000Y-81250000D01*
X103250000Y-81947844D01*
X103256401Y-82007372D01*
X103256403Y-82007379D01*
X103306645Y-82142086D01*
X103306649Y-82142093D01*
X103392809Y-82257187D01*
X103392812Y-82257190D01*
X103507906Y-82343350D01*
X103507913Y-82343354D01*
X103642620Y-82393596D01*
X103642627Y-82393598D01*
X103702155Y-82399999D01*
X103702172Y-82400000D01*
X104400000Y-82400000D01*
X104400000Y-81548482D01*
X104418409Y-81559111D01*
X104571009Y-81600000D01*
X104728991Y-81600000D01*
X104881591Y-81559111D01*
X104900000Y-81548482D01*
X104900000Y-82400000D01*
X105597828Y-82400000D01*
X105597844Y-82399999D01*
X105657372Y-82393598D01*
X105657379Y-82393596D01*
X105792086Y-82343354D01*
X105792093Y-82343350D01*
X105907187Y-82257190D01*
X105907190Y-82257187D01*
X105993350Y-82142093D01*
X105993354Y-82142086D01*
X106043596Y-82007379D01*
X106043598Y-82007372D01*
X106049999Y-81947844D01*
X106050000Y-81947827D01*
X106050000Y-81250000D01*
X105198482Y-81250000D01*
X105209111Y-81231591D01*
X105250000Y-81078991D01*
X105250000Y-80921009D01*
X105241632Y-80889778D01*
X161749500Y-80889778D01*
X161749500Y-81110221D01*
X161783985Y-81327952D01*
X161852103Y-81537603D01*
X161852104Y-81537606D01*
X161952187Y-81734025D01*
X162081752Y-81912358D01*
X162081756Y-81912363D01*
X162237636Y-82068243D01*
X162237641Y-82068247D01*
X162393192Y-82181260D01*
X162415978Y-82197815D01*
X162532501Y-82257187D01*
X162612393Y-82297895D01*
X162612396Y-82297896D01*
X162717221Y-82331955D01*
X162822049Y-82366015D01*
X163039778Y-82400500D01*
X163039779Y-82400500D01*
X163260221Y-82400500D01*
X163260222Y-82400500D01*
X163477951Y-82366015D01*
X163687606Y-82297895D01*
X163884022Y-82197815D01*
X164062365Y-82068242D01*
X164218242Y-81912365D01*
X164347815Y-81734022D01*
X164447895Y-81537606D01*
X164516015Y-81327951D01*
X164550500Y-81110222D01*
X164550500Y-80889778D01*
X164516015Y-80672049D01*
X164481955Y-80567221D01*
X164447896Y-80462396D01*
X164447895Y-80462393D01*
X164413237Y-80394375D01*
X164347815Y-80265978D01*
X164288896Y-80184882D01*
X164218247Y-80087641D01*
X164218243Y-80087636D01*
X164062363Y-79931756D01*
X164062358Y-79931752D01*
X163884025Y-79802187D01*
X163884024Y-79802186D01*
X163884022Y-79802185D01*
X163821096Y-79770122D01*
X163687606Y-79702104D01*
X163687603Y-79702103D01*
X163477952Y-79633985D01*
X163369086Y-79616742D01*
X163260222Y-79599500D01*
X163039778Y-79599500D01*
X162967201Y-79610995D01*
X162822047Y-79633985D01*
X162612396Y-79702103D01*
X162612393Y-79702104D01*
X162415974Y-79802187D01*
X162237641Y-79931752D01*
X162237636Y-79931756D01*
X162081756Y-80087636D01*
X162081752Y-80087641D01*
X161952187Y-80265974D01*
X161852104Y-80462393D01*
X161852103Y-80462396D01*
X161783985Y-80672047D01*
X161749500Y-80889778D01*
X105241632Y-80889778D01*
X105209111Y-80768409D01*
X105198482Y-80750000D01*
X106050000Y-80750000D01*
X106050000Y-80052172D01*
X106049999Y-80052155D01*
X106043598Y-79992627D01*
X106043596Y-79992620D01*
X105993354Y-79857913D01*
X105993350Y-79857906D01*
X105907190Y-79742812D01*
X105907187Y-79742809D01*
X105792093Y-79656649D01*
X105792086Y-79656645D01*
X105657379Y-79606403D01*
X105657372Y-79606401D01*
X105597844Y-79600000D01*
X104900000Y-79600000D01*
X104900000Y-80451517D01*
X104881591Y-80440889D01*
X104728991Y-80400000D01*
X104571009Y-80400000D01*
X104418409Y-80440889D01*
X104400000Y-80451517D01*
X104400000Y-79600000D01*
X103702155Y-79600000D01*
X103642627Y-79606401D01*
X103642620Y-79606403D01*
X103507913Y-79656645D01*
X103507906Y-79656649D01*
X103392812Y-79742809D01*
X103392809Y-79742812D01*
X103306649Y-79857906D01*
X103306645Y-79857913D01*
X103256403Y-79992620D01*
X103256401Y-79992627D01*
X103250000Y-80052155D01*
X96500500Y-80052155D01*
X96500500Y-78383634D01*
X108224500Y-78383634D01*
X108224500Y-78616365D01*
X108224501Y-78616382D01*
X108254878Y-78847122D01*
X108315120Y-79071947D01*
X108404180Y-79286960D01*
X108404188Y-79286976D01*
X108520553Y-79488524D01*
X108520564Y-79488540D01*
X108662242Y-79673179D01*
X108662248Y-79673186D01*
X108826813Y-79837751D01*
X108826819Y-79837756D01*
X109011468Y-79979442D01*
X109011475Y-79979446D01*
X109213023Y-80095811D01*
X109213039Y-80095819D01*
X109428052Y-80184879D01*
X109428054Y-80184879D01*
X109428060Y-80184882D01*
X109652874Y-80245121D01*
X109883628Y-80275500D01*
X109883635Y-80275500D01*
X110116365Y-80275500D01*
X110116372Y-80275500D01*
X110347126Y-80245121D01*
X110571940Y-80184882D01*
X110629953Y-80160852D01*
X110786960Y-80095819D01*
X110786963Y-80095817D01*
X110786969Y-80095815D01*
X110988532Y-79979442D01*
X111173181Y-79837756D01*
X111337756Y-79673181D01*
X111479442Y-79488532D01*
X111595815Y-79286969D01*
X111684882Y-79071940D01*
X111745121Y-78847126D01*
X111775500Y-78616372D01*
X111775500Y-78383634D01*
X156024500Y-78383634D01*
X156024500Y-78616365D01*
X156024501Y-78616382D01*
X156054878Y-78847122D01*
X156115120Y-79071947D01*
X156204180Y-79286960D01*
X156204188Y-79286976D01*
X156320553Y-79488524D01*
X156320564Y-79488540D01*
X156462242Y-79673179D01*
X156462248Y-79673186D01*
X156626813Y-79837751D01*
X156626819Y-79837756D01*
X156811468Y-79979442D01*
X156811475Y-79979446D01*
X157013023Y-80095811D01*
X157013039Y-80095819D01*
X157228052Y-80184879D01*
X157228054Y-80184879D01*
X157228060Y-80184882D01*
X157452874Y-80245121D01*
X157683628Y-80275500D01*
X157683635Y-80275500D01*
X157916365Y-80275500D01*
X157916372Y-80275500D01*
X158147126Y-80245121D01*
X158371940Y-80184882D01*
X158429953Y-80160852D01*
X158586960Y-80095819D01*
X158586963Y-80095817D01*
X158586969Y-80095815D01*
X158788532Y-79979442D01*
X158973181Y-79837756D01*
X159137756Y-79673181D01*
X159279442Y-79488532D01*
X159395815Y-79286969D01*
X159484882Y-79071940D01*
X159545121Y-78847126D01*
X159575500Y-78616372D01*
X159575500Y-78383628D01*
X159545121Y-78152874D01*
X159484882Y-77928060D01*
X159484879Y-77928052D01*
X159395819Y-77713039D01*
X159395811Y-77713023D01*
X159279446Y-77511475D01*
X159279442Y-77511468D01*
X159137756Y-77326819D01*
X159137751Y-77326813D01*
X158973186Y-77162248D01*
X158973179Y-77162242D01*
X158788540Y-77020564D01*
X158788538Y-77020562D01*
X158788532Y-77020558D01*
X158788527Y-77020555D01*
X158788524Y-77020553D01*
X158586976Y-76904188D01*
X158586960Y-76904180D01*
X158371947Y-76815120D01*
X158147122Y-76754878D01*
X157916382Y-76724501D01*
X157916377Y-76724500D01*
X157916372Y-76724500D01*
X157683628Y-76724500D01*
X157683622Y-76724500D01*
X157683617Y-76724501D01*
X157452877Y-76754878D01*
X157228052Y-76815120D01*
X157013039Y-76904180D01*
X157013023Y-76904188D01*
X156811475Y-77020553D01*
X156811459Y-77020564D01*
X156626820Y-77162242D01*
X156626813Y-77162248D01*
X156462248Y-77326813D01*
X156462242Y-77326820D01*
X156320564Y-77511459D01*
X156320553Y-77511475D01*
X156204188Y-77713023D01*
X156204180Y-77713039D01*
X156115120Y-77928052D01*
X156054878Y-78152877D01*
X156024501Y-78383617D01*
X156024500Y-78383634D01*
X111775500Y-78383634D01*
X111775500Y-78383628D01*
X111745121Y-78152874D01*
X111684882Y-77928060D01*
X111684879Y-77928052D01*
X111595819Y-77713039D01*
X111595811Y-77713023D01*
X111479446Y-77511475D01*
X111479442Y-77511468D01*
X111337756Y-77326819D01*
X111337751Y-77326813D01*
X111173186Y-77162248D01*
X111173179Y-77162242D01*
X110988540Y-77020564D01*
X110988538Y-77020562D01*
X110988532Y-77020558D01*
X110988527Y-77020555D01*
X110988524Y-77020553D01*
X110786976Y-76904188D01*
X110786960Y-76904180D01*
X110571947Y-76815120D01*
X110347122Y-76754878D01*
X110116382Y-76724501D01*
X110116377Y-76724500D01*
X110116372Y-76724500D01*
X109883628Y-76724500D01*
X109883622Y-76724500D01*
X109883617Y-76724501D01*
X109652877Y-76754878D01*
X109428052Y-76815120D01*
X109213039Y-76904180D01*
X109213023Y-76904188D01*
X109011475Y-77020553D01*
X109011459Y-77020564D01*
X108826820Y-77162242D01*
X108826813Y-77162248D01*
X108662248Y-77326813D01*
X108662242Y-77326820D01*
X108520564Y-77511459D01*
X108520553Y-77511475D01*
X108404188Y-77713023D01*
X108404180Y-77713039D01*
X108315120Y-77928052D01*
X108254878Y-78152877D01*
X108224501Y-78383617D01*
X108224500Y-78383634D01*
X96500500Y-78383634D01*
X96500500Y-72503245D01*
X96500670Y-72496756D01*
X96506856Y-72378711D01*
X97649500Y-72378711D01*
X97649500Y-72621288D01*
X97681161Y-72861785D01*
X97743947Y-73096104D01*
X97799942Y-73231287D01*
X97836776Y-73320212D01*
X97958064Y-73530289D01*
X97958066Y-73530292D01*
X97958067Y-73530293D01*
X98105733Y-73722736D01*
X98105739Y-73722743D01*
X98277256Y-73894260D01*
X98277262Y-73894265D01*
X98469711Y-74041936D01*
X98679788Y-74163224D01*
X98903900Y-74256054D01*
X99138211Y-74318838D01*
X99318586Y-74342584D01*
X99378711Y-74350500D01*
X99378712Y-74350500D01*
X99621289Y-74350500D01*
X99669388Y-74344167D01*
X99861789Y-74318838D01*
X100096100Y-74256054D01*
X100320212Y-74163224D01*
X100530289Y-74041936D01*
X100722738Y-73894265D01*
X100894265Y-73722738D01*
X101041936Y-73530289D01*
X101163224Y-73320212D01*
X101256054Y-73096100D01*
X101318838Y-72861789D01*
X101327663Y-72794751D01*
X101331091Y-72768713D01*
X143649500Y-72768713D01*
X143649500Y-73231287D01*
X143682754Y-73441243D01*
X143711688Y-73530293D01*
X143748444Y-73643414D01*
X143844951Y-73832820D01*
X143969890Y-74004786D01*
X144120213Y-74155109D01*
X144292179Y-74280048D01*
X144292181Y-74280049D01*
X144292184Y-74280051D01*
X144481588Y-74376557D01*
X144683757Y-74442246D01*
X144893713Y-74475500D01*
X144893714Y-74475500D01*
X145106286Y-74475500D01*
X145106287Y-74475500D01*
X145316243Y-74442246D01*
X145518412Y-74376557D01*
X145707816Y-74280051D01*
X145740848Y-74256052D01*
X145879786Y-74155109D01*
X145879788Y-74155106D01*
X145879792Y-74155104D01*
X146030104Y-74004792D01*
X146149683Y-73840204D01*
X146205011Y-73797540D01*
X146274624Y-73791561D01*
X146336420Y-73824166D01*
X146350313Y-73840199D01*
X146389595Y-73894266D01*
X146469896Y-74004792D01*
X146620213Y-74155109D01*
X146792179Y-74280048D01*
X146792181Y-74280049D01*
X146792184Y-74280051D01*
X146981588Y-74376557D01*
X147183757Y-74442246D01*
X147393713Y-74475500D01*
X147393714Y-74475500D01*
X147606286Y-74475500D01*
X147606287Y-74475500D01*
X147816243Y-74442246D01*
X148018412Y-74376557D01*
X148207816Y-74280051D01*
X148265141Y-74238402D01*
X148379784Y-74155110D01*
X148379784Y-74155109D01*
X148379792Y-74155104D01*
X148518967Y-74015928D01*
X148580286Y-73982446D01*
X148649978Y-73987430D01*
X148705912Y-74029301D01*
X148712184Y-74038515D01*
X148807684Y-74193345D01*
X148931654Y-74317315D01*
X149080875Y-74409356D01*
X149080880Y-74409358D01*
X149247302Y-74464505D01*
X149247309Y-74464506D01*
X149350019Y-74474999D01*
X149749999Y-74474999D01*
X149750000Y-74474998D01*
X149750000Y-73404145D01*
X149816657Y-73442630D01*
X149937465Y-73475000D01*
X150062535Y-73475000D01*
X150183343Y-73442630D01*
X150250000Y-73404145D01*
X150250000Y-74474999D01*
X150649972Y-74474999D01*
X150649986Y-74474998D01*
X150752697Y-74464505D01*
X150919119Y-74409358D01*
X150919124Y-74409356D01*
X151068345Y-74317315D01*
X151192315Y-74193345D01*
X151284356Y-74044124D01*
X151284358Y-74044119D01*
X151339505Y-73877697D01*
X151339506Y-73877690D01*
X151349999Y-73774986D01*
X151350000Y-73774973D01*
X151350000Y-73250000D01*
X150404146Y-73250000D01*
X150442630Y-73183343D01*
X150475000Y-73062535D01*
X150475000Y-72937465D01*
X150442630Y-72816657D01*
X150404146Y-72750000D01*
X151349999Y-72750000D01*
X151349999Y-72378711D01*
X166149500Y-72378711D01*
X166149500Y-72621288D01*
X166181161Y-72861785D01*
X166243947Y-73096104D01*
X166299942Y-73231287D01*
X166336776Y-73320212D01*
X166458064Y-73530289D01*
X166458066Y-73530292D01*
X166458067Y-73530293D01*
X166605733Y-73722736D01*
X166605739Y-73722743D01*
X166777256Y-73894260D01*
X166777262Y-73894265D01*
X166969711Y-74041936D01*
X167179788Y-74163224D01*
X167403900Y-74256054D01*
X167638211Y-74318838D01*
X167818586Y-74342584D01*
X167878711Y-74350500D01*
X167878712Y-74350500D01*
X168121289Y-74350500D01*
X168169388Y-74344167D01*
X168361789Y-74318838D01*
X168596100Y-74256054D01*
X168820212Y-74163224D01*
X169030289Y-74041936D01*
X169222738Y-73894265D01*
X169394265Y-73722738D01*
X169541936Y-73530289D01*
X169663224Y-73320212D01*
X169756054Y-73096100D01*
X169818838Y-72861789D01*
X169850500Y-72621288D01*
X169850500Y-72378712D01*
X169818838Y-72138211D01*
X169756054Y-71903900D01*
X169663224Y-71679788D01*
X169541936Y-71469711D01*
X169394265Y-71277262D01*
X169394260Y-71277256D01*
X169222743Y-71105739D01*
X169222736Y-71105733D01*
X169030293Y-70958067D01*
X169030292Y-70958066D01*
X169030289Y-70958064D01*
X168820212Y-70836776D01*
X168820205Y-70836773D01*
X168596104Y-70743947D01*
X168361785Y-70681161D01*
X168121289Y-70649500D01*
X168121288Y-70649500D01*
X167878712Y-70649500D01*
X167878711Y-70649500D01*
X167638214Y-70681161D01*
X167403895Y-70743947D01*
X167179794Y-70836773D01*
X167179785Y-70836777D01*
X166969706Y-70958067D01*
X166777263Y-71105733D01*
X166777256Y-71105739D01*
X166605739Y-71277256D01*
X166605733Y-71277263D01*
X166458067Y-71469706D01*
X166336777Y-71679785D01*
X166336773Y-71679794D01*
X166243947Y-71903895D01*
X166181161Y-72138214D01*
X166149500Y-72378711D01*
X151349999Y-72378711D01*
X151349999Y-72225028D01*
X151349998Y-72225013D01*
X151339505Y-72122302D01*
X151284358Y-71955880D01*
X151284356Y-71955875D01*
X151192315Y-71806654D01*
X151068345Y-71682684D01*
X150919124Y-71590643D01*
X150919119Y-71590641D01*
X150752697Y-71535494D01*
X150752690Y-71535493D01*
X150649986Y-71525000D01*
X150250000Y-71525000D01*
X150250000Y-72595854D01*
X150183343Y-72557370D01*
X150062535Y-72525000D01*
X149937465Y-72525000D01*
X149816657Y-72557370D01*
X149750000Y-72595854D01*
X149750000Y-71525000D01*
X149350028Y-71525000D01*
X149350012Y-71525001D01*
X149247302Y-71535494D01*
X149080880Y-71590641D01*
X149080875Y-71590643D01*
X148931654Y-71682684D01*
X148807683Y-71806655D01*
X148807680Y-71806659D01*
X148712183Y-71961484D01*
X148660235Y-72008209D01*
X148591273Y-72019430D01*
X148527191Y-71991587D01*
X148518964Y-71984068D01*
X148379786Y-71844890D01*
X148207820Y-71719951D01*
X148018414Y-71623444D01*
X148018413Y-71623443D01*
X148018412Y-71623443D01*
X147816243Y-71557754D01*
X147816241Y-71557753D01*
X147816240Y-71557753D01*
X147654957Y-71532208D01*
X147606287Y-71524500D01*
X147393713Y-71524500D01*
X147345042Y-71532208D01*
X147183760Y-71557753D01*
X146981585Y-71623444D01*
X146792179Y-71719951D01*
X146620213Y-71844890D01*
X146469894Y-71995209D01*
X146469890Y-71995214D01*
X146350318Y-72159793D01*
X146294989Y-72202459D01*
X146225375Y-72208438D01*
X146163580Y-72175833D01*
X146149682Y-72159793D01*
X146030109Y-71995214D01*
X146030105Y-71995209D01*
X145879786Y-71844890D01*
X145707820Y-71719951D01*
X145518414Y-71623444D01*
X145518413Y-71623443D01*
X145518412Y-71623443D01*
X145316243Y-71557754D01*
X145316241Y-71557753D01*
X145316240Y-71557753D01*
X145154957Y-71532208D01*
X145106287Y-71524500D01*
X144893713Y-71524500D01*
X144845042Y-71532208D01*
X144683760Y-71557753D01*
X144481585Y-71623444D01*
X144292179Y-71719951D01*
X144120213Y-71844890D01*
X143969890Y-71995213D01*
X143844951Y-72167179D01*
X143748444Y-72356585D01*
X143682753Y-72558760D01*
X143673069Y-72619905D01*
X143649500Y-72768713D01*
X101331091Y-72768713D01*
X101333864Y-72747656D01*
X101350500Y-72621288D01*
X101350500Y-72378711D01*
X101325191Y-72186467D01*
X101318838Y-72138211D01*
X101256054Y-71903900D01*
X101163224Y-71679788D01*
X101041936Y-71469711D01*
X100894265Y-71277262D01*
X100894260Y-71277256D01*
X100722743Y-71105739D01*
X100722736Y-71105733D01*
X100530293Y-70958067D01*
X100530292Y-70958066D01*
X100530289Y-70958064D01*
X100320212Y-70836776D01*
X100320205Y-70836773D01*
X100096104Y-70743947D01*
X99861785Y-70681161D01*
X99621289Y-70649500D01*
X99621288Y-70649500D01*
X99378712Y-70649500D01*
X99378711Y-70649500D01*
X99138214Y-70681161D01*
X98903895Y-70743947D01*
X98679794Y-70836773D01*
X98679785Y-70836777D01*
X98469706Y-70958067D01*
X98277263Y-71105733D01*
X98277256Y-71105739D01*
X98105739Y-71277256D01*
X98105733Y-71277263D01*
X97958067Y-71469706D01*
X97836777Y-71679785D01*
X97836773Y-71679794D01*
X97743947Y-71903895D01*
X97681161Y-72138214D01*
X97649500Y-72378711D01*
X96506856Y-72378711D01*
X96507409Y-72368164D01*
X96508176Y-72353532D01*
X96516591Y-72192936D01*
X96517945Y-72180064D01*
X96565030Y-71882783D01*
X96567723Y-71870107D01*
X96645627Y-71579367D01*
X96649636Y-71567032D01*
X96757493Y-71286054D01*
X96762763Y-71274215D01*
X96899419Y-71006014D01*
X96905885Y-70994815D01*
X97069824Y-70742371D01*
X97077426Y-70731908D01*
X97266858Y-70497978D01*
X97275525Y-70488353D01*
X97488353Y-70275525D01*
X97497978Y-70266858D01*
X97731908Y-70077426D01*
X97742371Y-70069824D01*
X97994815Y-69905885D01*
X98006014Y-69899419D01*
X98274215Y-69762763D01*
X98286054Y-69757493D01*
X98567039Y-69649633D01*
X98579367Y-69645627D01*
X98870107Y-69567723D01*
X98882783Y-69565030D01*
X99180064Y-69517945D01*
X99192936Y-69516591D01*
X99496756Y-69500669D01*
X99503245Y-69500500D01*
X99565892Y-69500500D01*
X167934108Y-69500500D01*
X167996755Y-69500500D01*
X168003243Y-69500669D01*
G37*
%TD.AperFunction*%
%TD*%
M02*
