%TF.GenerationSoftware,KiCad,Pcbnew,10.0.3-10.0.3~ubuntu24.04.1*%
%TF.CreationDate,2026-06-26T19:14:40-05:00*%
%TF.ProjectId,potentiometer,706f7465-6e74-4696-9f6d-657465722e6b,rev?*%
%TF.SameCoordinates,Original*%
%TF.FileFunction,Legend,Bot*%
%TF.FilePolarity,Positive*%
%FSLAX46Y46*%
G04 Gerber Fmt 4.6, Leading zero omitted, Abs format (unit mm)*
G04 Created by KiCad (PCBNEW 10.0.3-10.0.3~ubuntu24.04.1) date 2026-06-26 19:14:40*
%MOMM*%
%LPD*%
G01*
G04 APERTURE LIST*
%ADD10C,0.150000*%
%ADD11C,0.120000*%
G04 APERTURE END LIST*
D10*
X140833333Y-69954819D02*
X140833333Y-70669104D01*
X140833333Y-70669104D02*
X140880952Y-70811961D01*
X140880952Y-70811961D02*
X140976190Y-70907200D01*
X140976190Y-70907200D02*
X141119047Y-70954819D01*
X141119047Y-70954819D02*
X141214285Y-70954819D01*
X139833333Y-70954819D02*
X140404761Y-70954819D01*
X140119047Y-70954819D02*
X140119047Y-69954819D01*
X140119047Y-69954819D02*
X140214285Y-70097676D01*
X140214285Y-70097676D02*
X140309523Y-70192914D01*
X140309523Y-70192914D02*
X140404761Y-70240533D01*
%TO.C,J1*%
D11*
X142390000Y-69690000D02*
X145100000Y-69690000D01*
X142390000Y-73000000D02*
X143400000Y-73000000D01*
X142390000Y-76310000D02*
X142390000Y-69690000D01*
X143400000Y-71300000D02*
X151600000Y-71300000D01*
X143400000Y-75600000D02*
X143400000Y-71300000D01*
X145100000Y-69690000D02*
X145100000Y-70690000D01*
X145100000Y-70690000D02*
X146700000Y-70690000D01*
X146700000Y-70090000D02*
X148300000Y-70090000D01*
X146700000Y-70690000D02*
X146700000Y-70090000D01*
X148300000Y-70090000D02*
X148300000Y-70690000D01*
X148300000Y-70690000D02*
X149900000Y-70690000D01*
X149900000Y-69690000D02*
X152610000Y-69690000D01*
X149900000Y-70690000D02*
X149900000Y-69690000D01*
X151600000Y-71300000D02*
X151600000Y-75600000D01*
X151600000Y-75600000D02*
X143400000Y-75600000D01*
X151660000Y-69390000D02*
X152910000Y-69390000D01*
X152610000Y-69690000D02*
X152610000Y-76310000D01*
X152610000Y-73000000D02*
X151600000Y-73000000D01*
X152610000Y-76310000D02*
X142390000Y-76310000D01*
X152910000Y-69390000D02*
X152910000Y-70640000D01*
%TD*%
M02*
