M48
; DRILL file KiCad 10.0.3-10.0.3~ubuntu24.04.1 date 2026-07-03T19:12:07
; FORMAT={-:-/ absolute / metric / decimal}
; #@! TF.CreationDate,2026-07-03T19:12:07-05:00
; #@! TF.GenerationSoftware,Kicad,Pcbnew,10.0.3-10.0.3~ubuntu24.04.1
; #@! TF.FileFunction,Plated,1,2,PTH
FMAT,2
METRIC
; #@! TA.AperFunction,Plated,PTH,ViaDrill
T1C0.300
; #@! TA.AperFunction,Plated,PTH,ComponentDrill
T2C0.600
; #@! TA.AperFunction,Plated,PTH,ComponentDrill
T3C0.700
; #@! TA.AperFunction,Plated,PTH,ComponentDrill
T4C0.750
; #@! TA.AperFunction,Plated,PTH,ComponentDrill
T5C0.800
; #@! TA.AperFunction,Plated,PTH,ComponentDrill
T6C1.000
; #@! TA.AperFunction,Plated,PTH,ComponentDrill
T7C1.300
%
G90
G05
T1
X116.84Y-64.77
X124.46Y-64.77
X135.255Y-78.105
X135.89Y-80.01
X137.16Y-81.915
X138.43Y-72.39
X142.24Y-67.31
X148.59Y-76.835
X153.035Y-71.755
X161.671Y-86.614
T2
X167.64Y-98.02
X167.64Y-99.52
X191.77Y-87.86
X191.77Y-89.36
T3
X166.116Y-60.452
X173.736Y-60.452
T4
X186.055Y-60.325
X187.325Y-60.325
X188.595Y-60.325
T5
X171.45Y-96.6
X171.45Y-101.6
X195.58Y-86.4
X195.58Y-91.4
T6
X105.156Y-59.944
X107.696Y-59.944
X110.236Y-59.944
X112.776Y-59.944
X115.316Y-59.944
X117.856Y-59.944
X120.396Y-59.944
X122.936Y-59.944
X125.476Y-59.944
X128.016Y-59.944
X141.605Y-89.535
X141.605Y-92.075
X144.145Y-89.535
X144.145Y-92.075
X146.685Y-89.535
X146.685Y-92.075
X147.32Y-64.77
X147.32Y-82.55
X149.225Y-89.535
X149.225Y-92.075
X149.86Y-64.77
X149.86Y-82.55
X151.765Y-89.535
X151.765Y-92.075
X152.4Y-64.77
X152.4Y-82.55
X154.305Y-89.535
X154.305Y-92.075
X154.305Y-98.42
X154.305Y-100.96
X154.94Y-64.77
X154.94Y-82.55
X156.845Y-89.535
X156.845Y-92.075
X157.48Y-64.77
X157.48Y-82.55
X159.385Y-89.535
X159.385Y-92.075
X160.02Y-64.77
X160.02Y-82.55
X162.56Y-64.77
X162.56Y-82.55
X163.576Y-89.535
X165.1Y-64.77
X165.1Y-82.55
X166.116Y-89.535
X167.64Y-64.77
X167.64Y-82.55
X168.656Y-89.535
X170.18Y-64.77
X170.18Y-82.55
X172.72Y-64.77
X172.72Y-82.55
X172.72Y-89.535
X175.26Y-64.77
X175.26Y-82.55
X175.26Y-89.535
X176.53Y-96.52
X176.53Y-101.6
X177.8Y-64.77
X177.8Y-82.55
X177.8Y-89.535
X178.562Y-60.198
X179.07Y-96.52
X179.07Y-101.6
X180.34Y-64.77
X180.34Y-82.55
X181.102Y-60.198
X181.61Y-96.52
X181.61Y-101.6
X182.23Y-86.614
X182.23Y-91.264
X182.88Y-64.77
X182.88Y-82.55
X184.77Y-86.614
X184.77Y-91.264
X185.42Y-64.77
X185.42Y-82.55
X187.31Y-86.614
X187.31Y-91.264
X187.96Y-64.77
X187.96Y-82.55
X190.5Y-64.77
X190.5Y-82.55
X193.04Y-64.77
X193.04Y-82.55
X195.58Y-64.77
X195.58Y-82.55
T7
X191.77Y-96.52
X191.77Y-101.6
M30
