%TF.GenerationSoftware,KiCad,Pcbnew,10.0.3-10.0.3~ubuntu24.04.1*%
%TF.CreationDate,2026-07-03T19:12:05-05:00*%
%TF.ProjectId,texteditor,74657874-6564-4697-946f-722e6b696361,rev?*%
%TF.SameCoordinates,Original*%
%TF.FileFunction,Legend,Top*%
%TF.FilePolarity,Positive*%
%FSLAX46Y46*%
G04 Gerber Fmt 4.6, Leading zero omitted, Abs format (unit mm)*
G04 Created by KiCad (PCBNEW 10.0.3-10.0.3~ubuntu24.04.1) date 2026-07-03 19:12:05*
%MOMM*%
%LPD*%
G01*
G04 APERTURE LIST*
%ADD10C,0.100000*%
%ADD11C,0.150000*%
%ADD12C,0.120000*%
G04 APERTURE END LIST*
D10*
X99935312Y-103917180D02*
X99887693Y-103964800D01*
X99887693Y-103964800D02*
X99744836Y-104012419D01*
X99744836Y-104012419D02*
X99649598Y-104012419D01*
X99649598Y-104012419D02*
X99506741Y-103964800D01*
X99506741Y-103964800D02*
X99411503Y-103869561D01*
X99411503Y-103869561D02*
X99363884Y-103774323D01*
X99363884Y-103774323D02*
X99316265Y-103583847D01*
X99316265Y-103583847D02*
X99316265Y-103440990D01*
X99316265Y-103440990D02*
X99363884Y-103250514D01*
X99363884Y-103250514D02*
X99411503Y-103155276D01*
X99411503Y-103155276D02*
X99506741Y-103060038D01*
X99506741Y-103060038D02*
X99649598Y-103012419D01*
X99649598Y-103012419D02*
X99744836Y-103012419D01*
X99744836Y-103012419D02*
X99887693Y-103060038D01*
X99887693Y-103060038D02*
X99935312Y-103107657D01*
X100506741Y-104012419D02*
X100411503Y-103964800D01*
X100411503Y-103964800D02*
X100363884Y-103917180D01*
X100363884Y-103917180D02*
X100316265Y-103821942D01*
X100316265Y-103821942D02*
X100316265Y-103536228D01*
X100316265Y-103536228D02*
X100363884Y-103440990D01*
X100363884Y-103440990D02*
X100411503Y-103393371D01*
X100411503Y-103393371D02*
X100506741Y-103345752D01*
X100506741Y-103345752D02*
X100649598Y-103345752D01*
X100649598Y-103345752D02*
X100744836Y-103393371D01*
X100744836Y-103393371D02*
X100792455Y-103440990D01*
X100792455Y-103440990D02*
X100840074Y-103536228D01*
X100840074Y-103536228D02*
X100840074Y-103821942D01*
X100840074Y-103821942D02*
X100792455Y-103917180D01*
X100792455Y-103917180D02*
X100744836Y-103964800D01*
X100744836Y-103964800D02*
X100649598Y-104012419D01*
X100649598Y-104012419D02*
X100506741Y-104012419D01*
X101697217Y-104012419D02*
X101697217Y-103012419D01*
X101697217Y-103964800D02*
X101601979Y-104012419D01*
X101601979Y-104012419D02*
X101411503Y-104012419D01*
X101411503Y-104012419D02*
X101316265Y-103964800D01*
X101316265Y-103964800D02*
X101268646Y-103917180D01*
X101268646Y-103917180D02*
X101221027Y-103821942D01*
X101221027Y-103821942D02*
X101221027Y-103536228D01*
X101221027Y-103536228D02*
X101268646Y-103440990D01*
X101268646Y-103440990D02*
X101316265Y-103393371D01*
X101316265Y-103393371D02*
X101411503Y-103345752D01*
X101411503Y-103345752D02*
X101601979Y-103345752D01*
X101601979Y-103345752D02*
X101697217Y-103393371D01*
X102554360Y-103964800D02*
X102459122Y-104012419D01*
X102459122Y-104012419D02*
X102268646Y-104012419D01*
X102268646Y-104012419D02*
X102173408Y-103964800D01*
X102173408Y-103964800D02*
X102125789Y-103869561D01*
X102125789Y-103869561D02*
X102125789Y-103488609D01*
X102125789Y-103488609D02*
X102173408Y-103393371D01*
X102173408Y-103393371D02*
X102268646Y-103345752D01*
X102268646Y-103345752D02*
X102459122Y-103345752D01*
X102459122Y-103345752D02*
X102554360Y-103393371D01*
X102554360Y-103393371D02*
X102601979Y-103488609D01*
X102601979Y-103488609D02*
X102601979Y-103583847D01*
X102601979Y-103583847D02*
X102125789Y-103679085D01*
X102935313Y-104012419D02*
X103459122Y-103345752D01*
X102935313Y-103345752D02*
X103459122Y-104012419D01*
X105173408Y-104012419D02*
X104840075Y-103536228D01*
X104601980Y-104012419D02*
X104601980Y-103012419D01*
X104601980Y-103012419D02*
X104982932Y-103012419D01*
X104982932Y-103012419D02*
X105078170Y-103060038D01*
X105078170Y-103060038D02*
X105125789Y-103107657D01*
X105125789Y-103107657D02*
X105173408Y-103202895D01*
X105173408Y-103202895D02*
X105173408Y-103345752D01*
X105173408Y-103345752D02*
X105125789Y-103440990D01*
X105125789Y-103440990D02*
X105078170Y-103488609D01*
X105078170Y-103488609D02*
X104982932Y-103536228D01*
X104982932Y-103536228D02*
X104601980Y-103536228D01*
X105982932Y-103964800D02*
X105887694Y-104012419D01*
X105887694Y-104012419D02*
X105697218Y-104012419D01*
X105697218Y-104012419D02*
X105601980Y-103964800D01*
X105601980Y-103964800D02*
X105554361Y-103869561D01*
X105554361Y-103869561D02*
X105554361Y-103488609D01*
X105554361Y-103488609D02*
X105601980Y-103393371D01*
X105601980Y-103393371D02*
X105697218Y-103345752D01*
X105697218Y-103345752D02*
X105887694Y-103345752D01*
X105887694Y-103345752D02*
X105982932Y-103393371D01*
X105982932Y-103393371D02*
X106030551Y-103488609D01*
X106030551Y-103488609D02*
X106030551Y-103583847D01*
X106030551Y-103583847D02*
X105554361Y-103679085D01*
X106363885Y-103345752D02*
X106601980Y-104012419D01*
X106601980Y-104012419D02*
X106840075Y-103345752D01*
X107744837Y-104012419D02*
X107173409Y-104012419D01*
X107459123Y-104012419D02*
X107459123Y-103012419D01*
X107459123Y-103012419D02*
X107363885Y-103155276D01*
X107363885Y-103155276D02*
X107268647Y-103250514D01*
X107268647Y-103250514D02*
X107173409Y-103298133D01*
X108173409Y-103917180D02*
X108221028Y-103964800D01*
X108221028Y-103964800D02*
X108173409Y-104012419D01*
X108173409Y-104012419D02*
X108125790Y-103964800D01*
X108125790Y-103964800D02*
X108173409Y-103917180D01*
X108173409Y-103917180D02*
X108173409Y-104012419D01*
X109173408Y-104012419D02*
X108601980Y-104012419D01*
X108887694Y-104012419D02*
X108887694Y-103012419D01*
X108887694Y-103012419D02*
X108792456Y-103155276D01*
X108792456Y-103155276D02*
X108697218Y-103250514D01*
X108697218Y-103250514D02*
X108601980Y-103298133D01*
X108206265Y-62200531D02*
X108206265Y-62391007D01*
X108587217Y-62200531D02*
X108587217Y-62391007D01*
X108920551Y-62200531D02*
X109158646Y-63200531D01*
X109158646Y-63200531D02*
X109349122Y-62486245D01*
X109349122Y-62486245D02*
X109539598Y-63200531D01*
X109539598Y-63200531D02*
X109777694Y-62200531D01*
X110539598Y-63152912D02*
X110444360Y-63200531D01*
X110444360Y-63200531D02*
X110253884Y-63200531D01*
X110253884Y-63200531D02*
X110158646Y-63152912D01*
X110158646Y-63152912D02*
X110111027Y-63057673D01*
X110111027Y-63057673D02*
X110111027Y-62676721D01*
X110111027Y-62676721D02*
X110158646Y-62581483D01*
X110158646Y-62581483D02*
X110253884Y-62533864D01*
X110253884Y-62533864D02*
X110444360Y-62533864D01*
X110444360Y-62533864D02*
X110539598Y-62581483D01*
X110539598Y-62581483D02*
X110587217Y-62676721D01*
X110587217Y-62676721D02*
X110587217Y-62771959D01*
X110587217Y-62771959D02*
X110111027Y-62867197D01*
X112206265Y-63200531D02*
X112206265Y-62200531D01*
X112206265Y-63152912D02*
X112111027Y-63200531D01*
X112111027Y-63200531D02*
X111920551Y-63200531D01*
X111920551Y-63200531D02*
X111825313Y-63152912D01*
X111825313Y-63152912D02*
X111777694Y-63105292D01*
X111777694Y-63105292D02*
X111730075Y-63010054D01*
X111730075Y-63010054D02*
X111730075Y-62724340D01*
X111730075Y-62724340D02*
X111777694Y-62629102D01*
X111777694Y-62629102D02*
X111825313Y-62581483D01*
X111825313Y-62581483D02*
X111920551Y-62533864D01*
X111920551Y-62533864D02*
X112111027Y-62533864D01*
X112111027Y-62533864D02*
X112206265Y-62581483D01*
X112825313Y-63200531D02*
X112730075Y-63152912D01*
X112730075Y-63152912D02*
X112682456Y-63105292D01*
X112682456Y-63105292D02*
X112634837Y-63010054D01*
X112634837Y-63010054D02*
X112634837Y-62724340D01*
X112634837Y-62724340D02*
X112682456Y-62629102D01*
X112682456Y-62629102D02*
X112730075Y-62581483D01*
X112730075Y-62581483D02*
X112825313Y-62533864D01*
X112825313Y-62533864D02*
X112968170Y-62533864D01*
X112968170Y-62533864D02*
X113063408Y-62581483D01*
X113063408Y-62581483D02*
X113111027Y-62629102D01*
X113111027Y-62629102D02*
X113158646Y-62724340D01*
X113158646Y-62724340D02*
X113158646Y-63010054D01*
X113158646Y-63010054D02*
X113111027Y-63105292D01*
X113111027Y-63105292D02*
X113063408Y-63152912D01*
X113063408Y-63152912D02*
X112968170Y-63200531D01*
X112968170Y-63200531D02*
X112825313Y-63200531D01*
X113587218Y-62533864D02*
X113587218Y-63200531D01*
X113587218Y-62629102D02*
X113634837Y-62581483D01*
X113634837Y-62581483D02*
X113730075Y-62533864D01*
X113730075Y-62533864D02*
X113872932Y-62533864D01*
X113872932Y-62533864D02*
X113968170Y-62581483D01*
X113968170Y-62581483D02*
X114015789Y-62676721D01*
X114015789Y-62676721D02*
X114015789Y-63200531D01*
X114539599Y-62200531D02*
X114444361Y-62391007D01*
X114825313Y-62533864D02*
X115206265Y-62533864D01*
X114968170Y-62200531D02*
X114968170Y-63057673D01*
X114968170Y-63057673D02*
X115015789Y-63152912D01*
X115015789Y-63152912D02*
X115111027Y-63200531D01*
X115111027Y-63200531D02*
X115206265Y-63200531D01*
X116301504Y-63200531D02*
X116301504Y-62533864D01*
X116301504Y-62629102D02*
X116349123Y-62581483D01*
X116349123Y-62581483D02*
X116444361Y-62533864D01*
X116444361Y-62533864D02*
X116587218Y-62533864D01*
X116587218Y-62533864D02*
X116682456Y-62581483D01*
X116682456Y-62581483D02*
X116730075Y-62676721D01*
X116730075Y-62676721D02*
X116730075Y-63200531D01*
X116730075Y-62676721D02*
X116777694Y-62581483D01*
X116777694Y-62581483D02*
X116872932Y-62533864D01*
X116872932Y-62533864D02*
X117015789Y-62533864D01*
X117015789Y-62533864D02*
X117111028Y-62581483D01*
X117111028Y-62581483D02*
X117158647Y-62676721D01*
X117158647Y-62676721D02*
X117158647Y-63200531D01*
X118063408Y-63200531D02*
X118063408Y-62676721D01*
X118063408Y-62676721D02*
X118015789Y-62581483D01*
X118015789Y-62581483D02*
X117920551Y-62533864D01*
X117920551Y-62533864D02*
X117730075Y-62533864D01*
X117730075Y-62533864D02*
X117634837Y-62581483D01*
X118063408Y-63152912D02*
X117968170Y-63200531D01*
X117968170Y-63200531D02*
X117730075Y-63200531D01*
X117730075Y-63200531D02*
X117634837Y-63152912D01*
X117634837Y-63152912D02*
X117587218Y-63057673D01*
X117587218Y-63057673D02*
X117587218Y-62962435D01*
X117587218Y-62962435D02*
X117634837Y-62867197D01*
X117634837Y-62867197D02*
X117730075Y-62819578D01*
X117730075Y-62819578D02*
X117968170Y-62819578D01*
X117968170Y-62819578D02*
X118063408Y-62771959D01*
X118539599Y-63200531D02*
X118539599Y-62200531D01*
X118634837Y-62819578D02*
X118920551Y-63200531D01*
X118920551Y-62533864D02*
X118539599Y-62914816D01*
X119730075Y-63152912D02*
X119634837Y-63200531D01*
X119634837Y-63200531D02*
X119444361Y-63200531D01*
X119444361Y-63200531D02*
X119349123Y-63152912D01*
X119349123Y-63152912D02*
X119301504Y-63057673D01*
X119301504Y-63057673D02*
X119301504Y-62676721D01*
X119301504Y-62676721D02*
X119349123Y-62581483D01*
X119349123Y-62581483D02*
X119444361Y-62533864D01*
X119444361Y-62533864D02*
X119634837Y-62533864D01*
X119634837Y-62533864D02*
X119730075Y-62581483D01*
X119730075Y-62581483D02*
X119777694Y-62676721D01*
X119777694Y-62676721D02*
X119777694Y-62771959D01*
X119777694Y-62771959D02*
X119301504Y-62867197D01*
X120968171Y-63200531D02*
X120968171Y-62533864D01*
X120968171Y-62629102D02*
X121015790Y-62581483D01*
X121015790Y-62581483D02*
X121111028Y-62533864D01*
X121111028Y-62533864D02*
X121253885Y-62533864D01*
X121253885Y-62533864D02*
X121349123Y-62581483D01*
X121349123Y-62581483D02*
X121396742Y-62676721D01*
X121396742Y-62676721D02*
X121396742Y-63200531D01*
X121396742Y-62676721D02*
X121444361Y-62581483D01*
X121444361Y-62581483D02*
X121539599Y-62533864D01*
X121539599Y-62533864D02*
X121682456Y-62533864D01*
X121682456Y-62533864D02*
X121777695Y-62581483D01*
X121777695Y-62581483D02*
X121825314Y-62676721D01*
X121825314Y-62676721D02*
X121825314Y-63200531D01*
X122301504Y-63200531D02*
X122301504Y-62533864D01*
X122301504Y-62200531D02*
X122253885Y-62248150D01*
X122253885Y-62248150D02*
X122301504Y-62295769D01*
X122301504Y-62295769D02*
X122349123Y-62248150D01*
X122349123Y-62248150D02*
X122301504Y-62200531D01*
X122301504Y-62200531D02*
X122301504Y-62295769D01*
X122730075Y-63152912D02*
X122825313Y-63200531D01*
X122825313Y-63200531D02*
X123015789Y-63200531D01*
X123015789Y-63200531D02*
X123111027Y-63152912D01*
X123111027Y-63152912D02*
X123158646Y-63057673D01*
X123158646Y-63057673D02*
X123158646Y-63010054D01*
X123158646Y-63010054D02*
X123111027Y-62914816D01*
X123111027Y-62914816D02*
X123015789Y-62867197D01*
X123015789Y-62867197D02*
X122872932Y-62867197D01*
X122872932Y-62867197D02*
X122777694Y-62819578D01*
X122777694Y-62819578D02*
X122730075Y-62724340D01*
X122730075Y-62724340D02*
X122730075Y-62676721D01*
X122730075Y-62676721D02*
X122777694Y-62581483D01*
X122777694Y-62581483D02*
X122872932Y-62533864D01*
X122872932Y-62533864D02*
X123015789Y-62533864D01*
X123015789Y-62533864D02*
X123111027Y-62581483D01*
X123444361Y-62533864D02*
X123825313Y-62533864D01*
X123587218Y-62200531D02*
X123587218Y-63057673D01*
X123587218Y-63057673D02*
X123634837Y-63152912D01*
X123634837Y-63152912D02*
X123730075Y-63200531D01*
X123730075Y-63200531D02*
X123825313Y-63200531D01*
X124587218Y-63200531D02*
X124587218Y-62676721D01*
X124587218Y-62676721D02*
X124539599Y-62581483D01*
X124539599Y-62581483D02*
X124444361Y-62533864D01*
X124444361Y-62533864D02*
X124253885Y-62533864D01*
X124253885Y-62533864D02*
X124158647Y-62581483D01*
X124587218Y-63152912D02*
X124491980Y-63200531D01*
X124491980Y-63200531D02*
X124253885Y-63200531D01*
X124253885Y-63200531D02*
X124158647Y-63152912D01*
X124158647Y-63152912D02*
X124111028Y-63057673D01*
X124111028Y-63057673D02*
X124111028Y-62962435D01*
X124111028Y-62962435D02*
X124158647Y-62867197D01*
X124158647Y-62867197D02*
X124253885Y-62819578D01*
X124253885Y-62819578D02*
X124491980Y-62819578D01*
X124491980Y-62819578D02*
X124587218Y-62771959D01*
X125063409Y-63200531D02*
X125063409Y-62200531D01*
X125158647Y-62819578D02*
X125444361Y-63200531D01*
X125444361Y-62533864D02*
X125063409Y-62914816D01*
X126253885Y-63152912D02*
X126158647Y-63200531D01*
X126158647Y-63200531D02*
X125968171Y-63200531D01*
X125968171Y-63200531D02*
X125872933Y-63152912D01*
X125872933Y-63152912D02*
X125825314Y-63057673D01*
X125825314Y-63057673D02*
X125825314Y-62676721D01*
X125825314Y-62676721D02*
X125872933Y-62581483D01*
X125872933Y-62581483D02*
X125968171Y-62533864D01*
X125968171Y-62533864D02*
X126158647Y-62533864D01*
X126158647Y-62533864D02*
X126253885Y-62581483D01*
X126253885Y-62581483D02*
X126301504Y-62676721D01*
X126301504Y-62676721D02*
X126301504Y-62771959D01*
X126301504Y-62771959D02*
X125825314Y-62867197D01*
X126682457Y-63152912D02*
X126777695Y-63200531D01*
X126777695Y-63200531D02*
X126968171Y-63200531D01*
X126968171Y-63200531D02*
X127063409Y-63152912D01*
X127063409Y-63152912D02*
X127111028Y-63057673D01*
X127111028Y-63057673D02*
X127111028Y-63010054D01*
X127111028Y-63010054D02*
X127063409Y-62914816D01*
X127063409Y-62914816D02*
X126968171Y-62867197D01*
X126968171Y-62867197D02*
X126825314Y-62867197D01*
X126825314Y-62867197D02*
X126730076Y-62819578D01*
X126730076Y-62819578D02*
X126682457Y-62724340D01*
X126682457Y-62724340D02*
X126682457Y-62676721D01*
X126682457Y-62676721D02*
X126730076Y-62581483D01*
X126730076Y-62581483D02*
X126825314Y-62533864D01*
X126825314Y-62533864D02*
X126968171Y-62533864D01*
X126968171Y-62533864D02*
X127063409Y-62581483D01*
X127587219Y-63152912D02*
X127587219Y-63200531D01*
X127587219Y-63200531D02*
X127539600Y-63295769D01*
X127539600Y-63295769D02*
X127491981Y-63343388D01*
X109015789Y-64143808D02*
X109015789Y-65000951D01*
X109015789Y-65000951D02*
X108968170Y-65096189D01*
X108968170Y-65096189D02*
X108872932Y-65143808D01*
X108872932Y-65143808D02*
X108825313Y-65143808D01*
X109015789Y-63810475D02*
X108968170Y-63858094D01*
X108968170Y-63858094D02*
X109015789Y-63905713D01*
X109015789Y-63905713D02*
X109063408Y-63858094D01*
X109063408Y-63858094D02*
X109015789Y-63810475D01*
X109015789Y-63810475D02*
X109015789Y-63905713D01*
X109920550Y-64143808D02*
X109920550Y-64810475D01*
X109491979Y-64143808D02*
X109491979Y-64667617D01*
X109491979Y-64667617D02*
X109539598Y-64762856D01*
X109539598Y-64762856D02*
X109634836Y-64810475D01*
X109634836Y-64810475D02*
X109777693Y-64810475D01*
X109777693Y-64810475D02*
X109872931Y-64762856D01*
X109872931Y-64762856D02*
X109920550Y-64715236D01*
X110349122Y-64762856D02*
X110444360Y-64810475D01*
X110444360Y-64810475D02*
X110634836Y-64810475D01*
X110634836Y-64810475D02*
X110730074Y-64762856D01*
X110730074Y-64762856D02*
X110777693Y-64667617D01*
X110777693Y-64667617D02*
X110777693Y-64619998D01*
X110777693Y-64619998D02*
X110730074Y-64524760D01*
X110730074Y-64524760D02*
X110634836Y-64477141D01*
X110634836Y-64477141D02*
X110491979Y-64477141D01*
X110491979Y-64477141D02*
X110396741Y-64429522D01*
X110396741Y-64429522D02*
X110349122Y-64334284D01*
X110349122Y-64334284D02*
X110349122Y-64286665D01*
X110349122Y-64286665D02*
X110396741Y-64191427D01*
X110396741Y-64191427D02*
X110491979Y-64143808D01*
X110491979Y-64143808D02*
X110634836Y-64143808D01*
X110634836Y-64143808D02*
X110730074Y-64191427D01*
X111063408Y-64143808D02*
X111444360Y-64143808D01*
X111206265Y-63810475D02*
X111206265Y-64667617D01*
X111206265Y-64667617D02*
X111253884Y-64762856D01*
X111253884Y-64762856D02*
X111349122Y-64810475D01*
X111349122Y-64810475D02*
X111444360Y-64810475D01*
X112539599Y-64810475D02*
X112539599Y-63810475D01*
X112968170Y-64810475D02*
X112968170Y-64286665D01*
X112968170Y-64286665D02*
X112920551Y-64191427D01*
X112920551Y-64191427D02*
X112825313Y-64143808D01*
X112825313Y-64143808D02*
X112682456Y-64143808D01*
X112682456Y-64143808D02*
X112587218Y-64191427D01*
X112587218Y-64191427D02*
X112539599Y-64239046D01*
X113872932Y-64810475D02*
X113872932Y-64286665D01*
X113872932Y-64286665D02*
X113825313Y-64191427D01*
X113825313Y-64191427D02*
X113730075Y-64143808D01*
X113730075Y-64143808D02*
X113539599Y-64143808D01*
X113539599Y-64143808D02*
X113444361Y-64191427D01*
X113872932Y-64762856D02*
X113777694Y-64810475D01*
X113777694Y-64810475D02*
X113539599Y-64810475D01*
X113539599Y-64810475D02*
X113444361Y-64762856D01*
X113444361Y-64762856D02*
X113396742Y-64667617D01*
X113396742Y-64667617D02*
X113396742Y-64572379D01*
X113396742Y-64572379D02*
X113444361Y-64477141D01*
X113444361Y-64477141D02*
X113539599Y-64429522D01*
X113539599Y-64429522D02*
X113777694Y-64429522D01*
X113777694Y-64429522D02*
X113872932Y-64381903D01*
X114349123Y-64143808D02*
X114349123Y-65143808D01*
X114349123Y-64191427D02*
X114444361Y-64143808D01*
X114444361Y-64143808D02*
X114634837Y-64143808D01*
X114634837Y-64143808D02*
X114730075Y-64191427D01*
X114730075Y-64191427D02*
X114777694Y-64239046D01*
X114777694Y-64239046D02*
X114825313Y-64334284D01*
X114825313Y-64334284D02*
X114825313Y-64619998D01*
X114825313Y-64619998D02*
X114777694Y-64715236D01*
X114777694Y-64715236D02*
X114730075Y-64762856D01*
X114730075Y-64762856D02*
X114634837Y-64810475D01*
X114634837Y-64810475D02*
X114444361Y-64810475D01*
X114444361Y-64810475D02*
X114349123Y-64762856D01*
X115253885Y-64143808D02*
X115253885Y-65143808D01*
X115253885Y-64191427D02*
X115349123Y-64143808D01*
X115349123Y-64143808D02*
X115539599Y-64143808D01*
X115539599Y-64143808D02*
X115634837Y-64191427D01*
X115634837Y-64191427D02*
X115682456Y-64239046D01*
X115682456Y-64239046D02*
X115730075Y-64334284D01*
X115730075Y-64334284D02*
X115730075Y-64619998D01*
X115730075Y-64619998D02*
X115682456Y-64715236D01*
X115682456Y-64715236D02*
X115634837Y-64762856D01*
X115634837Y-64762856D02*
X115539599Y-64810475D01*
X115539599Y-64810475D02*
X115349123Y-64810475D01*
X115349123Y-64810475D02*
X115253885Y-64762856D01*
X116063409Y-64143808D02*
X116301504Y-64810475D01*
X116539599Y-64143808D02*
X116301504Y-64810475D01*
X116301504Y-64810475D02*
X116206266Y-65048570D01*
X116206266Y-65048570D02*
X116158647Y-65096189D01*
X116158647Y-65096189D02*
X116063409Y-65143808D01*
X117825314Y-64810475D02*
X117730076Y-64762856D01*
X117730076Y-64762856D02*
X117682457Y-64667617D01*
X117682457Y-64667617D02*
X117682457Y-63810475D01*
X118206267Y-64810475D02*
X118206267Y-64143808D01*
X118206267Y-63810475D02*
X118158648Y-63858094D01*
X118158648Y-63858094D02*
X118206267Y-63905713D01*
X118206267Y-63905713D02*
X118253886Y-63858094D01*
X118253886Y-63858094D02*
X118206267Y-63810475D01*
X118206267Y-63810475D02*
X118206267Y-63905713D01*
X118539600Y-64143808D02*
X118920552Y-64143808D01*
X118682457Y-63810475D02*
X118682457Y-64667617D01*
X118682457Y-64667617D02*
X118730076Y-64762856D01*
X118730076Y-64762856D02*
X118825314Y-64810475D01*
X118825314Y-64810475D02*
X118920552Y-64810475D01*
X119111029Y-64143808D02*
X119491981Y-64143808D01*
X119253886Y-63810475D02*
X119253886Y-64667617D01*
X119253886Y-64667617D02*
X119301505Y-64762856D01*
X119301505Y-64762856D02*
X119396743Y-64810475D01*
X119396743Y-64810475D02*
X119491981Y-64810475D01*
X119968172Y-64810475D02*
X119872934Y-64762856D01*
X119872934Y-64762856D02*
X119825315Y-64667617D01*
X119825315Y-64667617D02*
X119825315Y-63810475D01*
X120730077Y-64762856D02*
X120634839Y-64810475D01*
X120634839Y-64810475D02*
X120444363Y-64810475D01*
X120444363Y-64810475D02*
X120349125Y-64762856D01*
X120349125Y-64762856D02*
X120301506Y-64667617D01*
X120301506Y-64667617D02*
X120301506Y-64286665D01*
X120301506Y-64286665D02*
X120349125Y-64191427D01*
X120349125Y-64191427D02*
X120444363Y-64143808D01*
X120444363Y-64143808D02*
X120634839Y-64143808D01*
X120634839Y-64143808D02*
X120730077Y-64191427D01*
X120730077Y-64191427D02*
X120777696Y-64286665D01*
X120777696Y-64286665D02*
X120777696Y-64381903D01*
X120777696Y-64381903D02*
X120301506Y-64477141D01*
X122396744Y-64810475D02*
X122396744Y-64286665D01*
X122396744Y-64286665D02*
X122349125Y-64191427D01*
X122349125Y-64191427D02*
X122253887Y-64143808D01*
X122253887Y-64143808D02*
X122063411Y-64143808D01*
X122063411Y-64143808D02*
X121968173Y-64191427D01*
X122396744Y-64762856D02*
X122301506Y-64810475D01*
X122301506Y-64810475D02*
X122063411Y-64810475D01*
X122063411Y-64810475D02*
X121968173Y-64762856D01*
X121968173Y-64762856D02*
X121920554Y-64667617D01*
X121920554Y-64667617D02*
X121920554Y-64572379D01*
X121920554Y-64572379D02*
X121968173Y-64477141D01*
X121968173Y-64477141D02*
X122063411Y-64429522D01*
X122063411Y-64429522D02*
X122301506Y-64429522D01*
X122301506Y-64429522D02*
X122396744Y-64381903D01*
X123301506Y-64762856D02*
X123206268Y-64810475D01*
X123206268Y-64810475D02*
X123015792Y-64810475D01*
X123015792Y-64810475D02*
X122920554Y-64762856D01*
X122920554Y-64762856D02*
X122872935Y-64715236D01*
X122872935Y-64715236D02*
X122825316Y-64619998D01*
X122825316Y-64619998D02*
X122825316Y-64334284D01*
X122825316Y-64334284D02*
X122872935Y-64239046D01*
X122872935Y-64239046D02*
X122920554Y-64191427D01*
X122920554Y-64191427D02*
X123015792Y-64143808D01*
X123015792Y-64143808D02*
X123206268Y-64143808D01*
X123206268Y-64143808D02*
X123301506Y-64191427D01*
X124158649Y-64762856D02*
X124063411Y-64810475D01*
X124063411Y-64810475D02*
X123872935Y-64810475D01*
X123872935Y-64810475D02*
X123777697Y-64762856D01*
X123777697Y-64762856D02*
X123730078Y-64715236D01*
X123730078Y-64715236D02*
X123682459Y-64619998D01*
X123682459Y-64619998D02*
X123682459Y-64334284D01*
X123682459Y-64334284D02*
X123730078Y-64239046D01*
X123730078Y-64239046D02*
X123777697Y-64191427D01*
X123777697Y-64191427D02*
X123872935Y-64143808D01*
X123872935Y-64143808D02*
X124063411Y-64143808D01*
X124063411Y-64143808D02*
X124158649Y-64191427D01*
X124587221Y-64810475D02*
X124587221Y-64143808D01*
X124587221Y-63810475D02*
X124539602Y-63858094D01*
X124539602Y-63858094D02*
X124587221Y-63905713D01*
X124587221Y-63905713D02*
X124634840Y-63858094D01*
X124634840Y-63858094D02*
X124587221Y-63810475D01*
X124587221Y-63810475D02*
X124587221Y-63905713D01*
X125491982Y-64810475D02*
X125491982Y-63810475D01*
X125491982Y-64762856D02*
X125396744Y-64810475D01*
X125396744Y-64810475D02*
X125206268Y-64810475D01*
X125206268Y-64810475D02*
X125111030Y-64762856D01*
X125111030Y-64762856D02*
X125063411Y-64715236D01*
X125063411Y-64715236D02*
X125015792Y-64619998D01*
X125015792Y-64619998D02*
X125015792Y-64334284D01*
X125015792Y-64334284D02*
X125063411Y-64239046D01*
X125063411Y-64239046D02*
X125111030Y-64191427D01*
X125111030Y-64191427D02*
X125206268Y-64143808D01*
X125206268Y-64143808D02*
X125396744Y-64143808D01*
X125396744Y-64143808D02*
X125491982Y-64191427D01*
X126349125Y-64762856D02*
X126253887Y-64810475D01*
X126253887Y-64810475D02*
X126063411Y-64810475D01*
X126063411Y-64810475D02*
X125968173Y-64762856D01*
X125968173Y-64762856D02*
X125920554Y-64667617D01*
X125920554Y-64667617D02*
X125920554Y-64286665D01*
X125920554Y-64286665D02*
X125968173Y-64191427D01*
X125968173Y-64191427D02*
X126063411Y-64143808D01*
X126063411Y-64143808D02*
X126253887Y-64143808D01*
X126253887Y-64143808D02*
X126349125Y-64191427D01*
X126349125Y-64191427D02*
X126396744Y-64286665D01*
X126396744Y-64286665D02*
X126396744Y-64381903D01*
X126396744Y-64381903D02*
X125920554Y-64477141D01*
X126825316Y-64143808D02*
X126825316Y-64810475D01*
X126825316Y-64239046D02*
X126872935Y-64191427D01*
X126872935Y-64191427D02*
X126968173Y-64143808D01*
X126968173Y-64143808D02*
X127111030Y-64143808D01*
X127111030Y-64143808D02*
X127206268Y-64191427D01*
X127206268Y-64191427D02*
X127253887Y-64286665D01*
X127253887Y-64286665D02*
X127253887Y-64810475D01*
X127587221Y-64143808D02*
X127968173Y-64143808D01*
X127730078Y-63810475D02*
X127730078Y-64667617D01*
X127730078Y-64667617D02*
X127777697Y-64762856D01*
X127777697Y-64762856D02*
X127872935Y-64810475D01*
X127872935Y-64810475D02*
X127968173Y-64810475D01*
X128253888Y-64762856D02*
X128349126Y-64810475D01*
X128349126Y-64810475D02*
X128539602Y-64810475D01*
X128539602Y-64810475D02*
X128634840Y-64762856D01*
X128634840Y-64762856D02*
X128682459Y-64667617D01*
X128682459Y-64667617D02*
X128682459Y-64619998D01*
X128682459Y-64619998D02*
X128634840Y-64524760D01*
X128634840Y-64524760D02*
X128539602Y-64477141D01*
X128539602Y-64477141D02*
X128396745Y-64477141D01*
X128396745Y-64477141D02*
X128301507Y-64429522D01*
X128301507Y-64429522D02*
X128253888Y-64334284D01*
X128253888Y-64334284D02*
X128253888Y-64286665D01*
X128253888Y-64286665D02*
X128301507Y-64191427D01*
X128301507Y-64191427D02*
X128396745Y-64143808D01*
X128396745Y-64143808D02*
X128539602Y-64143808D01*
X128539602Y-64143808D02*
X128634840Y-64191427D01*
X129111031Y-64715236D02*
X129158650Y-64762856D01*
X129158650Y-64762856D02*
X129111031Y-64810475D01*
X129111031Y-64810475D02*
X129063412Y-64762856D01*
X129063412Y-64762856D02*
X129111031Y-64715236D01*
X129111031Y-64715236D02*
X129111031Y-64810475D01*
X129539602Y-63810475D02*
X129539602Y-64000951D01*
X129920554Y-63810475D02*
X129920554Y-64000951D01*
X112015788Y-66039466D02*
X112777693Y-66039466D01*
X114349121Y-65896609D02*
X114491978Y-65944228D01*
X114491978Y-65944228D02*
X114539597Y-65991847D01*
X114539597Y-65991847D02*
X114587216Y-66087085D01*
X114587216Y-66087085D02*
X114587216Y-66229942D01*
X114587216Y-66229942D02*
X114539597Y-66325180D01*
X114539597Y-66325180D02*
X114491978Y-66372800D01*
X114491978Y-66372800D02*
X114396740Y-66420419D01*
X114396740Y-66420419D02*
X114015788Y-66420419D01*
X114015788Y-66420419D02*
X114015788Y-65420419D01*
X114015788Y-65420419D02*
X114349121Y-65420419D01*
X114349121Y-65420419D02*
X114444359Y-65468038D01*
X114444359Y-65468038D02*
X114491978Y-65515657D01*
X114491978Y-65515657D02*
X114539597Y-65610895D01*
X114539597Y-65610895D02*
X114539597Y-65706133D01*
X114539597Y-65706133D02*
X114491978Y-65801371D01*
X114491978Y-65801371D02*
X114444359Y-65848990D01*
X114444359Y-65848990D02*
X114349121Y-65896609D01*
X114349121Y-65896609D02*
X114015788Y-65896609D01*
X115158645Y-66420419D02*
X115063407Y-66372800D01*
X115063407Y-66372800D02*
X115015788Y-66325180D01*
X115015788Y-66325180D02*
X114968169Y-66229942D01*
X114968169Y-66229942D02*
X114968169Y-65944228D01*
X114968169Y-65944228D02*
X115015788Y-65848990D01*
X115015788Y-65848990D02*
X115063407Y-65801371D01*
X115063407Y-65801371D02*
X115158645Y-65753752D01*
X115158645Y-65753752D02*
X115301502Y-65753752D01*
X115301502Y-65753752D02*
X115396740Y-65801371D01*
X115396740Y-65801371D02*
X115444359Y-65848990D01*
X115444359Y-65848990D02*
X115491978Y-65944228D01*
X115491978Y-65944228D02*
X115491978Y-66229942D01*
X115491978Y-66229942D02*
X115444359Y-66325180D01*
X115444359Y-66325180D02*
X115396740Y-66372800D01*
X115396740Y-66372800D02*
X115301502Y-66420419D01*
X115301502Y-66420419D02*
X115158645Y-66420419D01*
X115920550Y-66420419D02*
X115920550Y-65420419D01*
X115920550Y-65801371D02*
X116015788Y-65753752D01*
X116015788Y-65753752D02*
X116206264Y-65753752D01*
X116206264Y-65753752D02*
X116301502Y-65801371D01*
X116301502Y-65801371D02*
X116349121Y-65848990D01*
X116349121Y-65848990D02*
X116396740Y-65944228D01*
X116396740Y-65944228D02*
X116396740Y-66229942D01*
X116396740Y-66229942D02*
X116349121Y-66325180D01*
X116349121Y-66325180D02*
X116301502Y-66372800D01*
X116301502Y-66372800D02*
X116206264Y-66420419D01*
X116206264Y-66420419D02*
X116015788Y-66420419D01*
X116015788Y-66420419D02*
X115920550Y-66372800D01*
X118158645Y-66420419D02*
X117825312Y-65944228D01*
X117587217Y-66420419D02*
X117587217Y-65420419D01*
X117587217Y-65420419D02*
X117968169Y-65420419D01*
X117968169Y-65420419D02*
X118063407Y-65468038D01*
X118063407Y-65468038D02*
X118111026Y-65515657D01*
X118111026Y-65515657D02*
X118158645Y-65610895D01*
X118158645Y-65610895D02*
X118158645Y-65753752D01*
X118158645Y-65753752D02*
X118111026Y-65848990D01*
X118111026Y-65848990D02*
X118063407Y-65896609D01*
X118063407Y-65896609D02*
X117968169Y-65944228D01*
X117968169Y-65944228D02*
X117587217Y-65944228D01*
X118730074Y-66420419D02*
X118634836Y-66372800D01*
X118634836Y-66372800D02*
X118587217Y-66325180D01*
X118587217Y-66325180D02*
X118539598Y-66229942D01*
X118539598Y-66229942D02*
X118539598Y-65944228D01*
X118539598Y-65944228D02*
X118587217Y-65848990D01*
X118587217Y-65848990D02*
X118634836Y-65801371D01*
X118634836Y-65801371D02*
X118730074Y-65753752D01*
X118730074Y-65753752D02*
X118872931Y-65753752D01*
X118872931Y-65753752D02*
X118968169Y-65801371D01*
X118968169Y-65801371D02*
X119015788Y-65848990D01*
X119015788Y-65848990D02*
X119063407Y-65944228D01*
X119063407Y-65944228D02*
X119063407Y-66229942D01*
X119063407Y-66229942D02*
X119015788Y-66325180D01*
X119015788Y-66325180D02*
X118968169Y-66372800D01*
X118968169Y-66372800D02*
X118872931Y-66420419D01*
X118872931Y-66420419D02*
X118730074Y-66420419D01*
X119444360Y-66372800D02*
X119539598Y-66420419D01*
X119539598Y-66420419D02*
X119730074Y-66420419D01*
X119730074Y-66420419D02*
X119825312Y-66372800D01*
X119825312Y-66372800D02*
X119872931Y-66277561D01*
X119872931Y-66277561D02*
X119872931Y-66229942D01*
X119872931Y-66229942D02*
X119825312Y-66134704D01*
X119825312Y-66134704D02*
X119730074Y-66087085D01*
X119730074Y-66087085D02*
X119587217Y-66087085D01*
X119587217Y-66087085D02*
X119491979Y-66039466D01*
X119491979Y-66039466D02*
X119444360Y-65944228D01*
X119444360Y-65944228D02*
X119444360Y-65896609D01*
X119444360Y-65896609D02*
X119491979Y-65801371D01*
X119491979Y-65801371D02*
X119587217Y-65753752D01*
X119587217Y-65753752D02*
X119730074Y-65753752D01*
X119730074Y-65753752D02*
X119825312Y-65801371D01*
X120253884Y-66372800D02*
X120349122Y-66420419D01*
X120349122Y-66420419D02*
X120539598Y-66420419D01*
X120539598Y-66420419D02*
X120634836Y-66372800D01*
X120634836Y-66372800D02*
X120682455Y-66277561D01*
X120682455Y-66277561D02*
X120682455Y-66229942D01*
X120682455Y-66229942D02*
X120634836Y-66134704D01*
X120634836Y-66134704D02*
X120539598Y-66087085D01*
X120539598Y-66087085D02*
X120396741Y-66087085D01*
X120396741Y-66087085D02*
X120301503Y-66039466D01*
X120301503Y-66039466D02*
X120253884Y-65944228D01*
X120253884Y-65944228D02*
X120253884Y-65896609D01*
X120253884Y-65896609D02*
X120301503Y-65801371D01*
X120301503Y-65801371D02*
X120396741Y-65753752D01*
X120396741Y-65753752D02*
X120539598Y-65753752D01*
X120539598Y-65753752D02*
X120634836Y-65801371D01*
X152005312Y-103917180D02*
X151957693Y-103964800D01*
X151957693Y-103964800D02*
X151814836Y-104012419D01*
X151814836Y-104012419D02*
X151719598Y-104012419D01*
X151719598Y-104012419D02*
X151576741Y-103964800D01*
X151576741Y-103964800D02*
X151481503Y-103869561D01*
X151481503Y-103869561D02*
X151433884Y-103774323D01*
X151433884Y-103774323D02*
X151386265Y-103583847D01*
X151386265Y-103583847D02*
X151386265Y-103440990D01*
X151386265Y-103440990D02*
X151433884Y-103250514D01*
X151433884Y-103250514D02*
X151481503Y-103155276D01*
X151481503Y-103155276D02*
X151576741Y-103060038D01*
X151576741Y-103060038D02*
X151719598Y-103012419D01*
X151719598Y-103012419D02*
X151814836Y-103012419D01*
X151814836Y-103012419D02*
X151957693Y-103060038D01*
X151957693Y-103060038D02*
X152005312Y-103107657D01*
X152576741Y-104012419D02*
X152481503Y-103964800D01*
X152481503Y-103964800D02*
X152433884Y-103917180D01*
X152433884Y-103917180D02*
X152386265Y-103821942D01*
X152386265Y-103821942D02*
X152386265Y-103536228D01*
X152386265Y-103536228D02*
X152433884Y-103440990D01*
X152433884Y-103440990D02*
X152481503Y-103393371D01*
X152481503Y-103393371D02*
X152576741Y-103345752D01*
X152576741Y-103345752D02*
X152719598Y-103345752D01*
X152719598Y-103345752D02*
X152814836Y-103393371D01*
X152814836Y-103393371D02*
X152862455Y-103440990D01*
X152862455Y-103440990D02*
X152910074Y-103536228D01*
X152910074Y-103536228D02*
X152910074Y-103821942D01*
X152910074Y-103821942D02*
X152862455Y-103917180D01*
X152862455Y-103917180D02*
X152814836Y-103964800D01*
X152814836Y-103964800D02*
X152719598Y-104012419D01*
X152719598Y-104012419D02*
X152576741Y-104012419D01*
X153338646Y-103345752D02*
X153338646Y-104012419D01*
X153338646Y-103440990D02*
X153386265Y-103393371D01*
X153386265Y-103393371D02*
X153481503Y-103345752D01*
X153481503Y-103345752D02*
X153624360Y-103345752D01*
X153624360Y-103345752D02*
X153719598Y-103393371D01*
X153719598Y-103393371D02*
X153767217Y-103488609D01*
X153767217Y-103488609D02*
X153767217Y-104012419D01*
X154100551Y-103345752D02*
X154481503Y-103345752D01*
X154243408Y-103012419D02*
X154243408Y-103869561D01*
X154243408Y-103869561D02*
X154291027Y-103964800D01*
X154291027Y-103964800D02*
X154386265Y-104012419D01*
X154386265Y-104012419D02*
X154481503Y-104012419D01*
X154814837Y-104012419D02*
X154814837Y-103345752D01*
X154814837Y-103536228D02*
X154862456Y-103440990D01*
X154862456Y-103440990D02*
X154910075Y-103393371D01*
X154910075Y-103393371D02*
X155005313Y-103345752D01*
X155005313Y-103345752D02*
X155100551Y-103345752D01*
X155862456Y-104012419D02*
X155862456Y-103488609D01*
X155862456Y-103488609D02*
X155814837Y-103393371D01*
X155814837Y-103393371D02*
X155719599Y-103345752D01*
X155719599Y-103345752D02*
X155529123Y-103345752D01*
X155529123Y-103345752D02*
X155433885Y-103393371D01*
X155862456Y-103964800D02*
X155767218Y-104012419D01*
X155767218Y-104012419D02*
X155529123Y-104012419D01*
X155529123Y-104012419D02*
X155433885Y-103964800D01*
X155433885Y-103964800D02*
X155386266Y-103869561D01*
X155386266Y-103869561D02*
X155386266Y-103774323D01*
X155386266Y-103774323D02*
X155433885Y-103679085D01*
X155433885Y-103679085D02*
X155529123Y-103631466D01*
X155529123Y-103631466D02*
X155767218Y-103631466D01*
X155767218Y-103631466D02*
X155862456Y-103583847D01*
X156291028Y-103964800D02*
X156386266Y-104012419D01*
X156386266Y-104012419D02*
X156576742Y-104012419D01*
X156576742Y-104012419D02*
X156671980Y-103964800D01*
X156671980Y-103964800D02*
X156719599Y-103869561D01*
X156719599Y-103869561D02*
X156719599Y-103821942D01*
X156719599Y-103821942D02*
X156671980Y-103726704D01*
X156671980Y-103726704D02*
X156576742Y-103679085D01*
X156576742Y-103679085D02*
X156433885Y-103679085D01*
X156433885Y-103679085D02*
X156338647Y-103631466D01*
X156338647Y-103631466D02*
X156291028Y-103536228D01*
X156291028Y-103536228D02*
X156291028Y-103488609D01*
X156291028Y-103488609D02*
X156338647Y-103393371D01*
X156338647Y-103393371D02*
X156433885Y-103345752D01*
X156433885Y-103345752D02*
X156576742Y-103345752D01*
X156576742Y-103345752D02*
X156671980Y-103393371D01*
X157005314Y-103345752D02*
X157386266Y-103345752D01*
X157148171Y-103012419D02*
X157148171Y-103869561D01*
X157148171Y-103869561D02*
X157195790Y-103964800D01*
X157195790Y-103964800D02*
X157291028Y-104012419D01*
X157291028Y-104012419D02*
X157386266Y-104012419D01*
X162689217Y-92058609D02*
X162832074Y-92106228D01*
X162832074Y-92106228D02*
X162879693Y-92153847D01*
X162879693Y-92153847D02*
X162927312Y-92249085D01*
X162927312Y-92249085D02*
X162927312Y-92391942D01*
X162927312Y-92391942D02*
X162879693Y-92487180D01*
X162879693Y-92487180D02*
X162832074Y-92534800D01*
X162832074Y-92534800D02*
X162736836Y-92582419D01*
X162736836Y-92582419D02*
X162355884Y-92582419D01*
X162355884Y-92582419D02*
X162355884Y-91582419D01*
X162355884Y-91582419D02*
X162689217Y-91582419D01*
X162689217Y-91582419D02*
X162784455Y-91630038D01*
X162784455Y-91630038D02*
X162832074Y-91677657D01*
X162832074Y-91677657D02*
X162879693Y-91772895D01*
X162879693Y-91772895D02*
X162879693Y-91868133D01*
X162879693Y-91868133D02*
X162832074Y-91963371D01*
X162832074Y-91963371D02*
X162784455Y-92010990D01*
X162784455Y-92010990D02*
X162689217Y-92058609D01*
X162689217Y-92058609D02*
X162355884Y-92058609D01*
X163355884Y-92582419D02*
X163355884Y-91915752D01*
X163355884Y-92106228D02*
X163403503Y-92010990D01*
X163403503Y-92010990D02*
X163451122Y-91963371D01*
X163451122Y-91963371D02*
X163546360Y-91915752D01*
X163546360Y-91915752D02*
X163641598Y-91915752D01*
X163974932Y-92582419D02*
X163974932Y-91915752D01*
X163974932Y-91582419D02*
X163927313Y-91630038D01*
X163927313Y-91630038D02*
X163974932Y-91677657D01*
X163974932Y-91677657D02*
X164022551Y-91630038D01*
X164022551Y-91630038D02*
X163974932Y-91582419D01*
X163974932Y-91582419D02*
X163974932Y-91677657D01*
X164879693Y-91915752D02*
X164879693Y-92725276D01*
X164879693Y-92725276D02*
X164832074Y-92820514D01*
X164832074Y-92820514D02*
X164784455Y-92868133D01*
X164784455Y-92868133D02*
X164689217Y-92915752D01*
X164689217Y-92915752D02*
X164546360Y-92915752D01*
X164546360Y-92915752D02*
X164451122Y-92868133D01*
X164879693Y-92534800D02*
X164784455Y-92582419D01*
X164784455Y-92582419D02*
X164593979Y-92582419D01*
X164593979Y-92582419D02*
X164498741Y-92534800D01*
X164498741Y-92534800D02*
X164451122Y-92487180D01*
X164451122Y-92487180D02*
X164403503Y-92391942D01*
X164403503Y-92391942D02*
X164403503Y-92106228D01*
X164403503Y-92106228D02*
X164451122Y-92010990D01*
X164451122Y-92010990D02*
X164498741Y-91963371D01*
X164498741Y-91963371D02*
X164593979Y-91915752D01*
X164593979Y-91915752D02*
X164784455Y-91915752D01*
X164784455Y-91915752D02*
X164879693Y-91963371D01*
X165355884Y-92582419D02*
X165355884Y-91582419D01*
X165784455Y-92582419D02*
X165784455Y-92058609D01*
X165784455Y-92058609D02*
X165736836Y-91963371D01*
X165736836Y-91963371D02*
X165641598Y-91915752D01*
X165641598Y-91915752D02*
X165498741Y-91915752D01*
X165498741Y-91915752D02*
X165403503Y-91963371D01*
X165403503Y-91963371D02*
X165355884Y-92010990D01*
X166117789Y-91915752D02*
X166498741Y-91915752D01*
X166260646Y-91582419D02*
X166260646Y-92439561D01*
X166260646Y-92439561D02*
X166308265Y-92534800D01*
X166308265Y-92534800D02*
X166403503Y-92582419D01*
X166403503Y-92582419D02*
X166498741Y-92582419D01*
X166832075Y-91915752D02*
X166832075Y-92582419D01*
X166832075Y-92010990D02*
X166879694Y-91963371D01*
X166879694Y-91963371D02*
X166974932Y-91915752D01*
X166974932Y-91915752D02*
X167117789Y-91915752D01*
X167117789Y-91915752D02*
X167213027Y-91963371D01*
X167213027Y-91963371D02*
X167260646Y-92058609D01*
X167260646Y-92058609D02*
X167260646Y-92582419D01*
X168117789Y-92534800D02*
X168022551Y-92582419D01*
X168022551Y-92582419D02*
X167832075Y-92582419D01*
X167832075Y-92582419D02*
X167736837Y-92534800D01*
X167736837Y-92534800D02*
X167689218Y-92439561D01*
X167689218Y-92439561D02*
X167689218Y-92058609D01*
X167689218Y-92058609D02*
X167736837Y-91963371D01*
X167736837Y-91963371D02*
X167832075Y-91915752D01*
X167832075Y-91915752D02*
X168022551Y-91915752D01*
X168022551Y-91915752D02*
X168117789Y-91963371D01*
X168117789Y-91963371D02*
X168165408Y-92058609D01*
X168165408Y-92058609D02*
X168165408Y-92153847D01*
X168165408Y-92153847D02*
X167689218Y-92249085D01*
X168546361Y-92534800D02*
X168641599Y-92582419D01*
X168641599Y-92582419D02*
X168832075Y-92582419D01*
X168832075Y-92582419D02*
X168927313Y-92534800D01*
X168927313Y-92534800D02*
X168974932Y-92439561D01*
X168974932Y-92439561D02*
X168974932Y-92391942D01*
X168974932Y-92391942D02*
X168927313Y-92296704D01*
X168927313Y-92296704D02*
X168832075Y-92249085D01*
X168832075Y-92249085D02*
X168689218Y-92249085D01*
X168689218Y-92249085D02*
X168593980Y-92201466D01*
X168593980Y-92201466D02*
X168546361Y-92106228D01*
X168546361Y-92106228D02*
X168546361Y-92058609D01*
X168546361Y-92058609D02*
X168593980Y-91963371D01*
X168593980Y-91963371D02*
X168689218Y-91915752D01*
X168689218Y-91915752D02*
X168832075Y-91915752D01*
X168832075Y-91915752D02*
X168927313Y-91963371D01*
X169355885Y-92534800D02*
X169451123Y-92582419D01*
X169451123Y-92582419D02*
X169641599Y-92582419D01*
X169641599Y-92582419D02*
X169736837Y-92534800D01*
X169736837Y-92534800D02*
X169784456Y-92439561D01*
X169784456Y-92439561D02*
X169784456Y-92391942D01*
X169784456Y-92391942D02*
X169736837Y-92296704D01*
X169736837Y-92296704D02*
X169641599Y-92249085D01*
X169641599Y-92249085D02*
X169498742Y-92249085D01*
X169498742Y-92249085D02*
X169403504Y-92201466D01*
X169403504Y-92201466D02*
X169355885Y-92106228D01*
X169355885Y-92106228D02*
X169355885Y-92058609D01*
X169355885Y-92058609D02*
X169403504Y-91963371D01*
X169403504Y-91963371D02*
X169498742Y-91915752D01*
X169498742Y-91915752D02*
X169641599Y-91915752D01*
X169641599Y-91915752D02*
X169736837Y-91963371D01*
X172833312Y-92360180D02*
X172785693Y-92407800D01*
X172785693Y-92407800D02*
X172642836Y-92455419D01*
X172642836Y-92455419D02*
X172547598Y-92455419D01*
X172547598Y-92455419D02*
X172404741Y-92407800D01*
X172404741Y-92407800D02*
X172309503Y-92312561D01*
X172309503Y-92312561D02*
X172261884Y-92217323D01*
X172261884Y-92217323D02*
X172214265Y-92026847D01*
X172214265Y-92026847D02*
X172214265Y-91883990D01*
X172214265Y-91883990D02*
X172261884Y-91693514D01*
X172261884Y-91693514D02*
X172309503Y-91598276D01*
X172309503Y-91598276D02*
X172404741Y-91503038D01*
X172404741Y-91503038D02*
X172547598Y-91455419D01*
X172547598Y-91455419D02*
X172642836Y-91455419D01*
X172642836Y-91455419D02*
X172785693Y-91503038D01*
X172785693Y-91503038D02*
X172833312Y-91550657D01*
X173404741Y-92455419D02*
X173309503Y-92407800D01*
X173309503Y-92407800D02*
X173261884Y-92360180D01*
X173261884Y-92360180D02*
X173214265Y-92264942D01*
X173214265Y-92264942D02*
X173214265Y-91979228D01*
X173214265Y-91979228D02*
X173261884Y-91883990D01*
X173261884Y-91883990D02*
X173309503Y-91836371D01*
X173309503Y-91836371D02*
X173404741Y-91788752D01*
X173404741Y-91788752D02*
X173547598Y-91788752D01*
X173547598Y-91788752D02*
X173642836Y-91836371D01*
X173642836Y-91836371D02*
X173690455Y-91883990D01*
X173690455Y-91883990D02*
X173738074Y-91979228D01*
X173738074Y-91979228D02*
X173738074Y-92264942D01*
X173738074Y-92264942D02*
X173690455Y-92360180D01*
X173690455Y-92360180D02*
X173642836Y-92407800D01*
X173642836Y-92407800D02*
X173547598Y-92455419D01*
X173547598Y-92455419D02*
X173404741Y-92455419D01*
X174166646Y-91788752D02*
X174166646Y-92455419D01*
X174166646Y-91883990D02*
X174214265Y-91836371D01*
X174214265Y-91836371D02*
X174309503Y-91788752D01*
X174309503Y-91788752D02*
X174452360Y-91788752D01*
X174452360Y-91788752D02*
X174547598Y-91836371D01*
X174547598Y-91836371D02*
X174595217Y-91931609D01*
X174595217Y-91931609D02*
X174595217Y-92455419D01*
X174928551Y-91788752D02*
X175309503Y-91788752D01*
X175071408Y-91455419D02*
X175071408Y-92312561D01*
X175071408Y-92312561D02*
X175119027Y-92407800D01*
X175119027Y-92407800D02*
X175214265Y-92455419D01*
X175214265Y-92455419D02*
X175309503Y-92455419D01*
X175642837Y-92455419D02*
X175642837Y-91788752D01*
X175642837Y-91979228D02*
X175690456Y-91883990D01*
X175690456Y-91883990D02*
X175738075Y-91836371D01*
X175738075Y-91836371D02*
X175833313Y-91788752D01*
X175833313Y-91788752D02*
X175928551Y-91788752D01*
X176690456Y-92455419D02*
X176690456Y-91931609D01*
X176690456Y-91931609D02*
X176642837Y-91836371D01*
X176642837Y-91836371D02*
X176547599Y-91788752D01*
X176547599Y-91788752D02*
X176357123Y-91788752D01*
X176357123Y-91788752D02*
X176261885Y-91836371D01*
X176690456Y-92407800D02*
X176595218Y-92455419D01*
X176595218Y-92455419D02*
X176357123Y-92455419D01*
X176357123Y-92455419D02*
X176261885Y-92407800D01*
X176261885Y-92407800D02*
X176214266Y-92312561D01*
X176214266Y-92312561D02*
X176214266Y-92217323D01*
X176214266Y-92217323D02*
X176261885Y-92122085D01*
X176261885Y-92122085D02*
X176357123Y-92074466D01*
X176357123Y-92074466D02*
X176595218Y-92074466D01*
X176595218Y-92074466D02*
X176690456Y-92026847D01*
X177119028Y-92407800D02*
X177214266Y-92455419D01*
X177214266Y-92455419D02*
X177404742Y-92455419D01*
X177404742Y-92455419D02*
X177499980Y-92407800D01*
X177499980Y-92407800D02*
X177547599Y-92312561D01*
X177547599Y-92312561D02*
X177547599Y-92264942D01*
X177547599Y-92264942D02*
X177499980Y-92169704D01*
X177499980Y-92169704D02*
X177404742Y-92122085D01*
X177404742Y-92122085D02*
X177261885Y-92122085D01*
X177261885Y-92122085D02*
X177166647Y-92074466D01*
X177166647Y-92074466D02*
X177119028Y-91979228D01*
X177119028Y-91979228D02*
X177119028Y-91931609D01*
X177119028Y-91931609D02*
X177166647Y-91836371D01*
X177166647Y-91836371D02*
X177261885Y-91788752D01*
X177261885Y-91788752D02*
X177404742Y-91788752D01*
X177404742Y-91788752D02*
X177499980Y-91836371D01*
X177833314Y-91788752D02*
X178214266Y-91788752D01*
X177976171Y-91455419D02*
X177976171Y-92312561D01*
X177976171Y-92312561D02*
X178023790Y-92407800D01*
X178023790Y-92407800D02*
X178119028Y-92455419D01*
X178119028Y-92455419D02*
X178214266Y-92455419D01*
X178103884Y-62229466D02*
X178865789Y-62229466D01*
X179185074Y-58800419D02*
X178708884Y-58800419D01*
X178708884Y-58800419D02*
X178708884Y-57800419D01*
X179518408Y-58276609D02*
X179851741Y-58276609D01*
X179994598Y-58800419D02*
X179518408Y-58800419D01*
X179518408Y-58800419D02*
X179518408Y-57800419D01*
X179518408Y-57800419D02*
X179994598Y-57800419D01*
X180423170Y-58800419D02*
X180423170Y-57800419D01*
X180423170Y-57800419D02*
X180661265Y-57800419D01*
X180661265Y-57800419D02*
X180804122Y-57848038D01*
X180804122Y-57848038D02*
X180899360Y-57943276D01*
X180899360Y-57943276D02*
X180946979Y-58038514D01*
X180946979Y-58038514D02*
X180994598Y-58228990D01*
X180994598Y-58228990D02*
X180994598Y-58371847D01*
X180994598Y-58371847D02*
X180946979Y-58562323D01*
X180946979Y-58562323D02*
X180899360Y-58657561D01*
X180899360Y-58657561D02*
X180804122Y-58752800D01*
X180804122Y-58752800D02*
X180661265Y-58800419D01*
X180661265Y-58800419D02*
X180423170Y-58800419D01*
X183580693Y-93027038D02*
X183485455Y-92979419D01*
X183485455Y-92979419D02*
X183342598Y-92979419D01*
X183342598Y-92979419D02*
X183199741Y-93027038D01*
X183199741Y-93027038D02*
X183104503Y-93122276D01*
X183104503Y-93122276D02*
X183056884Y-93217514D01*
X183056884Y-93217514D02*
X183009265Y-93407990D01*
X183009265Y-93407990D02*
X183009265Y-93550847D01*
X183009265Y-93550847D02*
X183056884Y-93741323D01*
X183056884Y-93741323D02*
X183104503Y-93836561D01*
X183104503Y-93836561D02*
X183199741Y-93931800D01*
X183199741Y-93931800D02*
X183342598Y-93979419D01*
X183342598Y-93979419D02*
X183437836Y-93979419D01*
X183437836Y-93979419D02*
X183580693Y-93931800D01*
X183580693Y-93931800D02*
X183628312Y-93884180D01*
X183628312Y-93884180D02*
X183628312Y-93550847D01*
X183628312Y-93550847D02*
X183437836Y-93550847D01*
X184056884Y-93979419D02*
X184056884Y-92979419D01*
X184056884Y-92979419D02*
X184628312Y-93979419D01*
X184628312Y-93979419D02*
X184628312Y-92979419D01*
X185104503Y-93979419D02*
X185104503Y-92979419D01*
X185104503Y-92979419D02*
X185342598Y-92979419D01*
X185342598Y-92979419D02*
X185485455Y-93027038D01*
X185485455Y-93027038D02*
X185580693Y-93122276D01*
X185580693Y-93122276D02*
X185628312Y-93217514D01*
X185628312Y-93217514D02*
X185675931Y-93407990D01*
X185675931Y-93407990D02*
X185675931Y-93550847D01*
X185675931Y-93550847D02*
X185628312Y-93741323D01*
X185628312Y-93741323D02*
X185580693Y-93836561D01*
X185580693Y-93836561D02*
X185485455Y-93931800D01*
X185485455Y-93931800D02*
X185342598Y-93979419D01*
X185342598Y-93979419D02*
X185104503Y-93979419D01*
X184549074Y-84089419D02*
X184072884Y-84089419D01*
X184072884Y-84089419D02*
X184025265Y-84565609D01*
X184025265Y-84565609D02*
X184072884Y-84517990D01*
X184072884Y-84517990D02*
X184168122Y-84470371D01*
X184168122Y-84470371D02*
X184406217Y-84470371D01*
X184406217Y-84470371D02*
X184501455Y-84517990D01*
X184501455Y-84517990D02*
X184549074Y-84565609D01*
X184549074Y-84565609D02*
X184596693Y-84660847D01*
X184596693Y-84660847D02*
X184596693Y-84898942D01*
X184596693Y-84898942D02*
X184549074Y-84994180D01*
X184549074Y-84994180D02*
X184501455Y-85041800D01*
X184501455Y-85041800D02*
X184406217Y-85089419D01*
X184406217Y-85089419D02*
X184168122Y-85089419D01*
X184168122Y-85089419D02*
X184072884Y-85041800D01*
X184072884Y-85041800D02*
X184025265Y-84994180D01*
X184930027Y-84422752D02*
X185168122Y-85089419D01*
X185168122Y-85089419D02*
X185406217Y-84422752D01*
X181355466Y-62434115D02*
X181355466Y-61672211D01*
X181736419Y-62053163D02*
X180974514Y-62053163D01*
D11*
X189912666Y-84798819D02*
X189912666Y-85513104D01*
X189912666Y-85513104D02*
X189865047Y-85655961D01*
X189865047Y-85655961D02*
X189769809Y-85751200D01*
X189769809Y-85751200D02*
X189626952Y-85798819D01*
X189626952Y-85798819D02*
X189531714Y-85798819D01*
X190293619Y-84798819D02*
X190960285Y-84798819D01*
X190960285Y-84798819D02*
X190531714Y-85798819D01*
X169759333Y-58986819D02*
X169426000Y-58510628D01*
X169187905Y-58986819D02*
X169187905Y-57986819D01*
X169187905Y-57986819D02*
X169568857Y-57986819D01*
X169568857Y-57986819D02*
X169664095Y-58034438D01*
X169664095Y-58034438D02*
X169711714Y-58082057D01*
X169711714Y-58082057D02*
X169759333Y-58177295D01*
X169759333Y-58177295D02*
X169759333Y-58320152D01*
X169759333Y-58320152D02*
X169711714Y-58415390D01*
X169711714Y-58415390D02*
X169664095Y-58463009D01*
X169664095Y-58463009D02*
X169568857Y-58510628D01*
X169568857Y-58510628D02*
X169187905Y-58510628D01*
X170711714Y-58986819D02*
X170140286Y-58986819D01*
X170426000Y-58986819D02*
X170426000Y-57986819D01*
X170426000Y-57986819D02*
X170330762Y-58129676D01*
X170330762Y-58129676D02*
X170235524Y-58224914D01*
X170235524Y-58224914D02*
X170140286Y-58272533D01*
X194564095Y-61684819D02*
X194564095Y-62494342D01*
X194564095Y-62494342D02*
X194611714Y-62589580D01*
X194611714Y-62589580D02*
X194659333Y-62637200D01*
X194659333Y-62637200D02*
X194754571Y-62684819D01*
X194754571Y-62684819D02*
X194945047Y-62684819D01*
X194945047Y-62684819D02*
X195040285Y-62637200D01*
X195040285Y-62637200D02*
X195087904Y-62589580D01*
X195087904Y-62589580D02*
X195135523Y-62494342D01*
X195135523Y-62494342D02*
X195135523Y-61684819D01*
X196135523Y-62684819D02*
X195564095Y-62684819D01*
X195849809Y-62684819D02*
X195849809Y-61684819D01*
X195849809Y-61684819D02*
X195754571Y-61827676D01*
X195754571Y-61827676D02*
X195659333Y-61922914D01*
X195659333Y-61922914D02*
X195564095Y-61970533D01*
X190333333Y-91545580D02*
X190285714Y-91593200D01*
X190285714Y-91593200D02*
X190142857Y-91640819D01*
X190142857Y-91640819D02*
X190047619Y-91640819D01*
X190047619Y-91640819D02*
X189904762Y-91593200D01*
X189904762Y-91593200D02*
X189809524Y-91497961D01*
X189809524Y-91497961D02*
X189761905Y-91402723D01*
X189761905Y-91402723D02*
X189714286Y-91212247D01*
X189714286Y-91212247D02*
X189714286Y-91069390D01*
X189714286Y-91069390D02*
X189761905Y-90878914D01*
X189761905Y-90878914D02*
X189809524Y-90783676D01*
X189809524Y-90783676D02*
X189904762Y-90688438D01*
X189904762Y-90688438D02*
X190047619Y-90640819D01*
X190047619Y-90640819D02*
X190142857Y-90640819D01*
X190142857Y-90640819D02*
X190285714Y-90688438D01*
X190285714Y-90688438D02*
X190333333Y-90736057D01*
X191190476Y-90974152D02*
X191190476Y-91640819D01*
X190952381Y-90593200D02*
X190714286Y-91307485D01*
X190714286Y-91307485D02*
X191333333Y-91307485D01*
X175815666Y-61303819D02*
X175815666Y-62018104D01*
X175815666Y-62018104D02*
X175768047Y-62160961D01*
X175768047Y-62160961D02*
X175672809Y-62256200D01*
X175672809Y-62256200D02*
X175529952Y-62303819D01*
X175529952Y-62303819D02*
X175434714Y-62303819D01*
X176720428Y-61637152D02*
X176720428Y-62303819D01*
X176482333Y-61256200D02*
X176244238Y-61970485D01*
X176244238Y-61970485D02*
X176863285Y-61970485D01*
X174799666Y-86449819D02*
X174799666Y-87164104D01*
X174799666Y-87164104D02*
X174752047Y-87306961D01*
X174752047Y-87306961D02*
X174656809Y-87402200D01*
X174656809Y-87402200D02*
X174513952Y-87449819D01*
X174513952Y-87449819D02*
X174418714Y-87449819D01*
X175323476Y-87449819D02*
X175513952Y-87449819D01*
X175513952Y-87449819D02*
X175609190Y-87402200D01*
X175609190Y-87402200D02*
X175656809Y-87354580D01*
X175656809Y-87354580D02*
X175752047Y-87211723D01*
X175752047Y-87211723D02*
X175799666Y-87021247D01*
X175799666Y-87021247D02*
X175799666Y-86640295D01*
X175799666Y-86640295D02*
X175752047Y-86545057D01*
X175752047Y-86545057D02*
X175704428Y-86497438D01*
X175704428Y-86497438D02*
X175609190Y-86449819D01*
X175609190Y-86449819D02*
X175418714Y-86449819D01*
X175418714Y-86449819D02*
X175323476Y-86497438D01*
X175323476Y-86497438D02*
X175275857Y-86545057D01*
X175275857Y-86545057D02*
X175228238Y-86640295D01*
X175228238Y-86640295D02*
X175228238Y-86878390D01*
X175228238Y-86878390D02*
X175275857Y-86973628D01*
X175275857Y-86973628D02*
X175323476Y-87021247D01*
X175323476Y-87021247D02*
X175418714Y-87068866D01*
X175418714Y-87068866D02*
X175609190Y-87068866D01*
X175609190Y-87068866D02*
X175704428Y-87021247D01*
X175704428Y-87021247D02*
X175752047Y-86973628D01*
X175752047Y-86973628D02*
X175799666Y-86878390D01*
X171283333Y-104499580D02*
X171235714Y-104547200D01*
X171235714Y-104547200D02*
X171092857Y-104594819D01*
X171092857Y-104594819D02*
X170997619Y-104594819D01*
X170997619Y-104594819D02*
X170854762Y-104547200D01*
X170854762Y-104547200D02*
X170759524Y-104451961D01*
X170759524Y-104451961D02*
X170711905Y-104356723D01*
X170711905Y-104356723D02*
X170664286Y-104166247D01*
X170664286Y-104166247D02*
X170664286Y-104023390D01*
X170664286Y-104023390D02*
X170711905Y-103832914D01*
X170711905Y-103832914D02*
X170759524Y-103737676D01*
X170759524Y-103737676D02*
X170854762Y-103642438D01*
X170854762Y-103642438D02*
X170997619Y-103594819D01*
X170997619Y-103594819D02*
X171092857Y-103594819D01*
X171092857Y-103594819D02*
X171235714Y-103642438D01*
X171235714Y-103642438D02*
X171283333Y-103690057D01*
X171664286Y-103690057D02*
X171711905Y-103642438D01*
X171711905Y-103642438D02*
X171807143Y-103594819D01*
X171807143Y-103594819D02*
X172045238Y-103594819D01*
X172045238Y-103594819D02*
X172140476Y-103642438D01*
X172140476Y-103642438D02*
X172188095Y-103690057D01*
X172188095Y-103690057D02*
X172235714Y-103785295D01*
X172235714Y-103785295D02*
X172235714Y-103880533D01*
X172235714Y-103880533D02*
X172188095Y-104023390D01*
X172188095Y-104023390D02*
X171616667Y-104594819D01*
X171616667Y-104594819D02*
X172235714Y-104594819D01*
X192873333Y-92434580D02*
X192825714Y-92482200D01*
X192825714Y-92482200D02*
X192682857Y-92529819D01*
X192682857Y-92529819D02*
X192587619Y-92529819D01*
X192587619Y-92529819D02*
X192444762Y-92482200D01*
X192444762Y-92482200D02*
X192349524Y-92386961D01*
X192349524Y-92386961D02*
X192301905Y-92291723D01*
X192301905Y-92291723D02*
X192254286Y-92101247D01*
X192254286Y-92101247D02*
X192254286Y-91958390D01*
X192254286Y-91958390D02*
X192301905Y-91767914D01*
X192301905Y-91767914D02*
X192349524Y-91672676D01*
X192349524Y-91672676D02*
X192444762Y-91577438D01*
X192444762Y-91577438D02*
X192587619Y-91529819D01*
X192587619Y-91529819D02*
X192682857Y-91529819D01*
X192682857Y-91529819D02*
X192825714Y-91577438D01*
X192825714Y-91577438D02*
X192873333Y-91625057D01*
X193206667Y-91529819D02*
X193825714Y-91529819D01*
X193825714Y-91529819D02*
X193492381Y-91910771D01*
X193492381Y-91910771D02*
X193635238Y-91910771D01*
X193635238Y-91910771D02*
X193730476Y-91958390D01*
X193730476Y-91958390D02*
X193778095Y-92006009D01*
X193778095Y-92006009D02*
X193825714Y-92101247D01*
X193825714Y-92101247D02*
X193825714Y-92339342D01*
X193825714Y-92339342D02*
X193778095Y-92434580D01*
X193778095Y-92434580D02*
X193730476Y-92482200D01*
X193730476Y-92482200D02*
X193635238Y-92529819D01*
X193635238Y-92529819D02*
X193349524Y-92529819D01*
X193349524Y-92529819D02*
X193254286Y-92482200D01*
X193254286Y-92482200D02*
X193206667Y-92434580D01*
X130010819Y-60277333D02*
X130725104Y-60277333D01*
X130725104Y-60277333D02*
X130867961Y-60324952D01*
X130867961Y-60324952D02*
X130963200Y-60420190D01*
X130963200Y-60420190D02*
X131010819Y-60563047D01*
X131010819Y-60563047D02*
X131010819Y-60658285D01*
X130106057Y-59848761D02*
X130058438Y-59801142D01*
X130058438Y-59801142D02*
X130010819Y-59705904D01*
X130010819Y-59705904D02*
X130010819Y-59467809D01*
X130010819Y-59467809D02*
X130058438Y-59372571D01*
X130058438Y-59372571D02*
X130106057Y-59324952D01*
X130106057Y-59324952D02*
X130201295Y-59277333D01*
X130201295Y-59277333D02*
X130296533Y-59277333D01*
X130296533Y-59277333D02*
X130439390Y-59324952D01*
X130439390Y-59324952D02*
X131010819Y-59896380D01*
X131010819Y-59896380D02*
X131010819Y-59277333D01*
X153971666Y-95104819D02*
X153971666Y-95819104D01*
X153971666Y-95819104D02*
X153924047Y-95961961D01*
X153924047Y-95961961D02*
X153828809Y-96057200D01*
X153828809Y-96057200D02*
X153685952Y-96104819D01*
X153685952Y-96104819D02*
X153590714Y-96104819D01*
X154924047Y-95104819D02*
X154447857Y-95104819D01*
X154447857Y-95104819D02*
X154400238Y-95581009D01*
X154400238Y-95581009D02*
X154447857Y-95533390D01*
X154447857Y-95533390D02*
X154543095Y-95485771D01*
X154543095Y-95485771D02*
X154781190Y-95485771D01*
X154781190Y-95485771D02*
X154876428Y-95533390D01*
X154876428Y-95533390D02*
X154924047Y-95581009D01*
X154924047Y-95581009D02*
X154971666Y-95676247D01*
X154971666Y-95676247D02*
X154971666Y-95914342D01*
X154971666Y-95914342D02*
X154924047Y-96009580D01*
X154924047Y-96009580D02*
X154876428Y-96057200D01*
X154876428Y-96057200D02*
X154781190Y-96104819D01*
X154781190Y-96104819D02*
X154543095Y-96104819D01*
X154543095Y-96104819D02*
X154447857Y-96057200D01*
X154447857Y-96057200D02*
X154400238Y-96009580D01*
X183834819Y-97281904D02*
X184644342Y-97281904D01*
X184644342Y-97281904D02*
X184739580Y-97234285D01*
X184739580Y-97234285D02*
X184787200Y-97186666D01*
X184787200Y-97186666D02*
X184834819Y-97091428D01*
X184834819Y-97091428D02*
X184834819Y-96900952D01*
X184834819Y-96900952D02*
X184787200Y-96805714D01*
X184787200Y-96805714D02*
X184739580Y-96758095D01*
X184739580Y-96758095D02*
X184644342Y-96710476D01*
X184644342Y-96710476D02*
X183834819Y-96710476D01*
X183930057Y-96281904D02*
X183882438Y-96234285D01*
X183882438Y-96234285D02*
X183834819Y-96139047D01*
X183834819Y-96139047D02*
X183834819Y-95900952D01*
X183834819Y-95900952D02*
X183882438Y-95805714D01*
X183882438Y-95805714D02*
X183930057Y-95758095D01*
X183930057Y-95758095D02*
X184025295Y-95710476D01*
X184025295Y-95710476D02*
X184120533Y-95710476D01*
X184120533Y-95710476D02*
X184263390Y-95758095D01*
X184263390Y-95758095D02*
X184834819Y-96329523D01*
X184834819Y-96329523D02*
X184834819Y-95710476D01*
X191420761Y-59224057D02*
X191325523Y-59176438D01*
X191325523Y-59176438D02*
X191230285Y-59081200D01*
X191230285Y-59081200D02*
X191087428Y-58938342D01*
X191087428Y-58938342D02*
X190992190Y-58890723D01*
X190992190Y-58890723D02*
X190896952Y-58890723D01*
X190944571Y-59128819D02*
X190849333Y-59081200D01*
X190849333Y-59081200D02*
X190754095Y-58985961D01*
X190754095Y-58985961D02*
X190706476Y-58795485D01*
X190706476Y-58795485D02*
X190706476Y-58462152D01*
X190706476Y-58462152D02*
X190754095Y-58271676D01*
X190754095Y-58271676D02*
X190849333Y-58176438D01*
X190849333Y-58176438D02*
X190944571Y-58128819D01*
X190944571Y-58128819D02*
X191135047Y-58128819D01*
X191135047Y-58128819D02*
X191230285Y-58176438D01*
X191230285Y-58176438D02*
X191325523Y-58271676D01*
X191325523Y-58271676D02*
X191373142Y-58462152D01*
X191373142Y-58462152D02*
X191373142Y-58795485D01*
X191373142Y-58795485D02*
X191325523Y-58985961D01*
X191325523Y-58985961D02*
X191230285Y-59081200D01*
X191230285Y-59081200D02*
X191135047Y-59128819D01*
X191135047Y-59128819D02*
X190944571Y-59128819D01*
X192325523Y-59128819D02*
X191754095Y-59128819D01*
X192039809Y-59128819D02*
X192039809Y-58128819D01*
X192039809Y-58128819D02*
X191944571Y-58271676D01*
X191944571Y-58271676D02*
X191849333Y-58366914D01*
X191849333Y-58366914D02*
X191754095Y-58414533D01*
X184964819Y-99393333D02*
X185679104Y-99393333D01*
X185679104Y-99393333D02*
X185821961Y-99440952D01*
X185821961Y-99440952D02*
X185917200Y-99536190D01*
X185917200Y-99536190D02*
X185964819Y-99679047D01*
X185964819Y-99679047D02*
X185964819Y-99774285D01*
X184964819Y-99012380D02*
X184964819Y-98393333D01*
X184964819Y-98393333D02*
X185345771Y-98726666D01*
X185345771Y-98726666D02*
X185345771Y-98583809D01*
X185345771Y-98583809D02*
X185393390Y-98488571D01*
X185393390Y-98488571D02*
X185441009Y-98440952D01*
X185441009Y-98440952D02*
X185536247Y-98393333D01*
X185536247Y-98393333D02*
X185774342Y-98393333D01*
X185774342Y-98393333D02*
X185869580Y-98440952D01*
X185869580Y-98440952D02*
X185917200Y-98488571D01*
X185917200Y-98488571D02*
X185964819Y-98583809D01*
X185964819Y-98583809D02*
X185964819Y-98869523D01*
X185964819Y-98869523D02*
X185917200Y-98964761D01*
X185917200Y-98964761D02*
X185869580Y-99012380D01*
X138289819Y-91138333D02*
X139004104Y-91138333D01*
X139004104Y-91138333D02*
X139146961Y-91185952D01*
X139146961Y-91185952D02*
X139242200Y-91281190D01*
X139242200Y-91281190D02*
X139289819Y-91424047D01*
X139289819Y-91424047D02*
X139289819Y-91519285D01*
X139289819Y-90138333D02*
X139289819Y-90709761D01*
X139289819Y-90424047D02*
X138289819Y-90424047D01*
X138289819Y-90424047D02*
X138432676Y-90519285D01*
X138432676Y-90519285D02*
X138527914Y-90614523D01*
X138527914Y-90614523D02*
X138575533Y-90709761D01*
X180895666Y-93053819D02*
X180895666Y-93768104D01*
X180895666Y-93768104D02*
X180848047Y-93910961D01*
X180848047Y-93910961D02*
X180752809Y-94006200D01*
X180752809Y-94006200D02*
X180609952Y-94053819D01*
X180609952Y-94053819D02*
X180514714Y-94053819D01*
X181514714Y-93482390D02*
X181419476Y-93434771D01*
X181419476Y-93434771D02*
X181371857Y-93387152D01*
X181371857Y-93387152D02*
X181324238Y-93291914D01*
X181324238Y-93291914D02*
X181324238Y-93244295D01*
X181324238Y-93244295D02*
X181371857Y-93149057D01*
X181371857Y-93149057D02*
X181419476Y-93101438D01*
X181419476Y-93101438D02*
X181514714Y-93053819D01*
X181514714Y-93053819D02*
X181705190Y-93053819D01*
X181705190Y-93053819D02*
X181800428Y-93101438D01*
X181800428Y-93101438D02*
X181848047Y-93149057D01*
X181848047Y-93149057D02*
X181895666Y-93244295D01*
X181895666Y-93244295D02*
X181895666Y-93291914D01*
X181895666Y-93291914D02*
X181848047Y-93387152D01*
X181848047Y-93387152D02*
X181800428Y-93434771D01*
X181800428Y-93434771D02*
X181705190Y-93482390D01*
X181705190Y-93482390D02*
X181514714Y-93482390D01*
X181514714Y-93482390D02*
X181419476Y-93530009D01*
X181419476Y-93530009D02*
X181371857Y-93577628D01*
X181371857Y-93577628D02*
X181324238Y-93672866D01*
X181324238Y-93672866D02*
X181324238Y-93863342D01*
X181324238Y-93863342D02*
X181371857Y-93958580D01*
X181371857Y-93958580D02*
X181419476Y-94006200D01*
X181419476Y-94006200D02*
X181514714Y-94053819D01*
X181514714Y-94053819D02*
X181705190Y-94053819D01*
X181705190Y-94053819D02*
X181800428Y-94006200D01*
X181800428Y-94006200D02*
X181848047Y-93958580D01*
X181848047Y-93958580D02*
X181895666Y-93863342D01*
X181895666Y-93863342D02*
X181895666Y-93672866D01*
X181895666Y-93672866D02*
X181848047Y-93577628D01*
X181848047Y-93577628D02*
X181800428Y-93530009D01*
X181800428Y-93530009D02*
X181705190Y-93482390D01*
X165687476Y-86576819D02*
X165687476Y-87291104D01*
X165687476Y-87291104D02*
X165639857Y-87433961D01*
X165639857Y-87433961D02*
X165544619Y-87529200D01*
X165544619Y-87529200D02*
X165401762Y-87576819D01*
X165401762Y-87576819D02*
X165306524Y-87576819D01*
X166687476Y-87576819D02*
X166116048Y-87576819D01*
X166401762Y-87576819D02*
X166401762Y-86576819D01*
X166401762Y-86576819D02*
X166306524Y-86719676D01*
X166306524Y-86719676D02*
X166211286Y-86814914D01*
X166211286Y-86814914D02*
X166116048Y-86862533D01*
X167306524Y-86576819D02*
X167401762Y-86576819D01*
X167401762Y-86576819D02*
X167497000Y-86624438D01*
X167497000Y-86624438D02*
X167544619Y-86672057D01*
X167544619Y-86672057D02*
X167592238Y-86767295D01*
X167592238Y-86767295D02*
X167639857Y-86957771D01*
X167639857Y-86957771D02*
X167639857Y-87195866D01*
X167639857Y-87195866D02*
X167592238Y-87386342D01*
X167592238Y-87386342D02*
X167544619Y-87481580D01*
X167544619Y-87481580D02*
X167497000Y-87529200D01*
X167497000Y-87529200D02*
X167401762Y-87576819D01*
X167401762Y-87576819D02*
X167306524Y-87576819D01*
X167306524Y-87576819D02*
X167211286Y-87529200D01*
X167211286Y-87529200D02*
X167163667Y-87481580D01*
X167163667Y-87481580D02*
X167116048Y-87386342D01*
X167116048Y-87386342D02*
X167068429Y-87195866D01*
X167068429Y-87195866D02*
X167068429Y-86957771D01*
X167068429Y-86957771D02*
X167116048Y-86767295D01*
X167116048Y-86767295D02*
X167163667Y-86672057D01*
X167163667Y-86672057D02*
X167211286Y-86624438D01*
X167211286Y-86624438D02*
X167306524Y-86576819D01*
X177736667Y-104547200D02*
X177879524Y-104594819D01*
X177879524Y-104594819D02*
X178117619Y-104594819D01*
X178117619Y-104594819D02*
X178212857Y-104547200D01*
X178212857Y-104547200D02*
X178260476Y-104499580D01*
X178260476Y-104499580D02*
X178308095Y-104404342D01*
X178308095Y-104404342D02*
X178308095Y-104309104D01*
X178308095Y-104309104D02*
X178260476Y-104213866D01*
X178260476Y-104213866D02*
X178212857Y-104166247D01*
X178212857Y-104166247D02*
X178117619Y-104118628D01*
X178117619Y-104118628D02*
X177927143Y-104071009D01*
X177927143Y-104071009D02*
X177831905Y-104023390D01*
X177831905Y-104023390D02*
X177784286Y-103975771D01*
X177784286Y-103975771D02*
X177736667Y-103880533D01*
X177736667Y-103880533D02*
X177736667Y-103785295D01*
X177736667Y-103785295D02*
X177784286Y-103690057D01*
X177784286Y-103690057D02*
X177831905Y-103642438D01*
X177831905Y-103642438D02*
X177927143Y-103594819D01*
X177927143Y-103594819D02*
X178165238Y-103594819D01*
X178165238Y-103594819D02*
X178308095Y-103642438D01*
X178641429Y-103594819D02*
X178879524Y-104594819D01*
X178879524Y-104594819D02*
X179070000Y-103880533D01*
X179070000Y-103880533D02*
X179260476Y-104594819D01*
X179260476Y-104594819D02*
X179498572Y-103594819D01*
X180403333Y-104594819D02*
X179831905Y-104594819D01*
X180117619Y-104594819D02*
X180117619Y-103594819D01*
X180117619Y-103594819D02*
X180022381Y-103737676D01*
X180022381Y-103737676D02*
X179927143Y-103832914D01*
X179927143Y-103832914D02*
X179831905Y-103880533D01*
X166203333Y-101959580D02*
X166155714Y-102007200D01*
X166155714Y-102007200D02*
X166012857Y-102054819D01*
X166012857Y-102054819D02*
X165917619Y-102054819D01*
X165917619Y-102054819D02*
X165774762Y-102007200D01*
X165774762Y-102007200D02*
X165679524Y-101911961D01*
X165679524Y-101911961D02*
X165631905Y-101816723D01*
X165631905Y-101816723D02*
X165584286Y-101626247D01*
X165584286Y-101626247D02*
X165584286Y-101483390D01*
X165584286Y-101483390D02*
X165631905Y-101292914D01*
X165631905Y-101292914D02*
X165679524Y-101197676D01*
X165679524Y-101197676D02*
X165774762Y-101102438D01*
X165774762Y-101102438D02*
X165917619Y-101054819D01*
X165917619Y-101054819D02*
X166012857Y-101054819D01*
X166012857Y-101054819D02*
X166155714Y-101102438D01*
X166155714Y-101102438D02*
X166203333Y-101150057D01*
X167155714Y-102054819D02*
X166584286Y-102054819D01*
X166870000Y-102054819D02*
X166870000Y-101054819D01*
X166870000Y-101054819D02*
X166774762Y-101197676D01*
X166774762Y-101197676D02*
X166679524Y-101292914D01*
X166679524Y-101292914D02*
X166584286Y-101340533D01*
%TO.C,J7*%
D12*
X180900000Y-85284000D02*
X180900000Y-87944000D01*
X186040000Y-85284000D02*
X180900000Y-85284000D01*
X186040000Y-85284000D02*
X186040000Y-87944000D01*
X186040000Y-87944000D02*
X180900000Y-87944000D01*
X187310000Y-85284000D02*
X188640000Y-85284000D01*
X188640000Y-85284000D02*
X188640000Y-86614000D01*
%TO.C,R1*%
X167056000Y-60452000D02*
X168006000Y-60452000D01*
X168006000Y-59532000D02*
X168006000Y-61372000D01*
X168006000Y-61372000D02*
X171846000Y-61372000D01*
X171846000Y-59532000D02*
X168006000Y-59532000D01*
X171846000Y-61372000D02*
X171846000Y-59532000D01*
X172796000Y-60452000D02*
X171846000Y-60452000D01*
%TO.C,U1*%
X145990000Y-63440000D02*
X145990000Y-66100000D01*
X145990000Y-81220000D02*
X145990000Y-83880000D01*
X194310000Y-63440000D02*
X145990000Y-63440000D01*
X194310000Y-63440000D02*
X194310000Y-66100000D01*
X194310000Y-66100000D02*
X145990000Y-66100000D01*
X195580000Y-63440000D02*
X196910000Y-63440000D01*
X196910000Y-63440000D02*
X196910000Y-64770000D01*
X196910000Y-81220000D02*
X145990000Y-81220000D01*
X196910000Y-81220000D02*
X196910000Y-82550000D01*
X196910000Y-81220000D02*
X196910000Y-83880000D01*
X196910000Y-83880000D02*
X145990000Y-83880000D01*
%TO.C,C4*%
X193890000Y-88610000D02*
G75*
G02*
X189650000Y-88610000I-2120000J0D01*
G01*
X189650000Y-88610000D02*
G75*
G02*
X193890000Y-88610000I2120000J0D01*
G01*
%TO.C,J4*%
X177232000Y-58868000D02*
X177232000Y-61528000D01*
X179832000Y-58868000D02*
X177232000Y-58868000D01*
X179832000Y-58868000D02*
X179832000Y-61528000D01*
X179832000Y-61528000D02*
X177232000Y-61528000D01*
X182432000Y-60198000D02*
X182432000Y-61528000D01*
X182432000Y-61528000D02*
X181102000Y-61528000D01*
%TO.C,J9*%
X171340000Y-88155000D02*
X171340000Y-90915000D01*
X176530000Y-88155000D02*
X171340000Y-88155000D01*
X176530000Y-88155000D02*
X176530000Y-90915000D01*
X176530000Y-90915000D02*
X171340000Y-90915000D01*
X177800000Y-88155001D02*
X179180000Y-88155000D01*
X179180000Y-88155000D02*
X179179999Y-89535000D01*
%TO.C,C2*%
X170080000Y-96630000D02*
X170395000Y-96630000D01*
X170080000Y-101570000D02*
X170080000Y-96630000D01*
X170080000Y-101570000D02*
X170395000Y-101570000D01*
X172505000Y-96630000D02*
X172820000Y-96630000D01*
X172505000Y-101570000D02*
X172820000Y-101570000D01*
X172820000Y-101570000D02*
X172820000Y-96630000D01*
%TO.C,C3*%
X194210000Y-86430000D02*
X194210000Y-91370000D01*
X194525000Y-86430000D02*
X194210000Y-86430000D01*
X194525000Y-91370000D02*
X194210000Y-91370000D01*
X196950000Y-86430000D02*
X196635000Y-86430000D01*
X196950000Y-86430000D02*
X196950000Y-91370000D01*
X196950000Y-91370000D02*
X196635000Y-91370000D01*
%TO.C,J2*%
X103826000Y-58614000D02*
X105156000Y-58614000D01*
X103826000Y-59944000D02*
X103826000Y-58614000D01*
X106426000Y-58614000D02*
X129346000Y-58614000D01*
X106426000Y-61274000D02*
X106426000Y-58614000D01*
X106426000Y-61274000D02*
X129346000Y-61274000D01*
X129346000Y-61274000D02*
X129346000Y-58614000D01*
%TO.C,J5*%
X152975000Y-99690000D02*
X152975000Y-102290000D01*
X152975000Y-99690000D02*
X155635000Y-99690000D01*
X152975000Y-102290000D02*
X155635000Y-102290000D01*
X154305000Y-97090000D02*
X155635000Y-97090000D01*
X155635000Y-97090000D02*
X155635000Y-98420000D01*
X155635000Y-99690000D02*
X155635000Y-102290000D01*
%TO.C,U2*%
X175200000Y-95190000D02*
X175200000Y-97850000D01*
X180340000Y-95190000D02*
X175200000Y-95190000D01*
X180340000Y-95190000D02*
X180340000Y-97850000D01*
X180340000Y-97850000D02*
X175200000Y-97850000D01*
X182940000Y-96520000D02*
X182940000Y-97850000D01*
X182940000Y-97850000D02*
X181610000Y-97850000D01*
%TO.C,Q1*%
X185525000Y-62175000D02*
X189125000Y-62175000D01*
X185486522Y-62163478D02*
G75*
G02*
X187325000Y-57724999I1838478J1838478D01*
G01*
X187325000Y-57725000D02*
G75*
G02*
X189163478Y-62163478I0J-2600000D01*
G01*
%TO.C,J3*%
X186509000Y-93920000D02*
X196430000Y-93920000D01*
X186509000Y-104200000D02*
X186509000Y-93920000D01*
X186509000Y-104200000D02*
X196430000Y-104200000D01*
X189469000Y-104200000D02*
X189469000Y-93920000D01*
X190495000Y-95450000D02*
X190531000Y-95485000D01*
X190701000Y-95245000D02*
X190747000Y-95292000D01*
X192793000Y-97747000D02*
X192839000Y-97794000D01*
X193009000Y-97554000D02*
X193044000Y-97589000D01*
X194370000Y-104200000D02*
X194370000Y-93920000D01*
X195870000Y-104200000D02*
X195870000Y-93920000D01*
X195930000Y-104440000D02*
X196670000Y-104440000D01*
X196430000Y-104200000D02*
X196430000Y-93920000D01*
X196670000Y-104440000D02*
X196670000Y-103940000D01*
X190234573Y-102283042D02*
G75*
G02*
X190235000Y-100916000I1535420J683041D01*
G01*
X191086958Y-100064573D02*
G75*
G02*
X192454000Y-100065000I683042J-1535427D01*
G01*
X192453042Y-103135427D02*
G75*
G02*
X191086000Y-103135000I-683041J1535420D01*
G01*
X193304756Y-100916682D02*
G75*
G02*
X193450000Y-101600000I-1534756J-683318D01*
G01*
X193450253Y-101571195D02*
G75*
G02*
X193305000Y-102284000I-1680254J-28806D01*
G01*
X193450000Y-96520000D02*
G75*
G02*
X190090000Y-96520000I-1680000J0D01*
G01*
X190090000Y-96520000D02*
G75*
G02*
X193450000Y-96520000I1680000J0D01*
G01*
%TO.C,J1*%
X140275000Y-88205000D02*
X141605000Y-88205000D01*
X140275000Y-89535000D02*
X140275000Y-88205000D01*
X140275000Y-90805000D02*
X142875000Y-90805000D01*
X140275000Y-93405000D02*
X140275000Y-90805000D01*
X140275000Y-93405000D02*
X160715000Y-93405000D01*
X142875000Y-88205000D02*
X160715000Y-88205000D01*
X142875000Y-90805000D02*
X142875000Y-88205000D01*
X160715000Y-93405000D02*
X160715000Y-88205000D01*
%TO.C,J8*%
X180900000Y-89934000D02*
X180900000Y-92594000D01*
X186040000Y-89934000D02*
X180900000Y-89934000D01*
X186040000Y-89934000D02*
X186040000Y-92594000D01*
X186040000Y-92594000D02*
X180900000Y-92594000D01*
X187310000Y-89934000D02*
X188640000Y-89934000D01*
X188640000Y-89934000D02*
X188640000Y-91264000D01*
%TO.C,J10*%
X162196000Y-88155000D02*
X162196000Y-90915000D01*
X167386000Y-88155000D02*
X162196000Y-88155000D01*
X167386000Y-88155000D02*
X167386000Y-90915000D01*
X167386000Y-90915000D02*
X162196000Y-90915000D01*
X168656000Y-88155001D02*
X170036000Y-88155000D01*
X170036000Y-88155000D02*
X170035999Y-89535000D01*
%TO.C,SW1*%
X175200000Y-102930000D02*
X175200000Y-101600000D01*
X176530000Y-102930000D02*
X175200000Y-102930000D01*
X177800000Y-100270000D02*
X182940000Y-100270000D01*
X177800000Y-102930000D02*
X177800000Y-100270000D01*
X177800000Y-102930000D02*
X182940000Y-102930000D01*
X182940000Y-102930000D02*
X182940000Y-100270000D01*
%TO.C,C1*%
X169760000Y-98770000D02*
G75*
G02*
X165520000Y-98770000I-2120000J0D01*
G01*
X165520000Y-98770000D02*
G75*
G02*
X169760000Y-98770000I2120000J0D01*
G01*
%TD*%
M02*
