%TF.GenerationSoftware,KiCad,Pcbnew,10.0.3-10.0.3~ubuntu24.04.1*%
%TF.CreationDate,2026-07-03T19:12:05-05:00*%
%TF.ProjectId,texteditor,74657874-6564-4697-946f-722e6b696361,rev?*%
%TF.SameCoordinates,Original*%
%TF.FileFunction,Soldermask,Top*%
%TF.FilePolarity,Negative*%
%FSLAX46Y46*%
G04 Gerber Fmt 4.6, Leading zero omitted, Abs format (unit mm)*
G04 Created by KiCad (PCBNEW 10.0.3-10.0.3~ubuntu24.04.1) date 2026-07-03 19:12:05*
%MOMM*%
%LPD*%
G01*
G04 APERTURE LIST*
%ADD10R,1.700000X1.700000*%
%ADD11O,1.700000X1.700000*%
%ADD12C,1.400000*%
%ADD13O,1.400000X1.400000*%
%ADD14C,1.700000*%
%ADD15C,1.200000*%
%ADD16C,1.600000*%
%ADD17R,1.050000X1.500000*%
%ADD18O,1.050000X1.500000*%
%ADD19R,2.600000X2.600000*%
%ADD20C,2.600000*%
G04 APERTURE END LIST*
D10*
%TO.C,J7*%
X187310000Y-86614000D03*
D11*
X184770000Y-86614000D03*
X182230000Y-86614000D03*
%TD*%
D12*
%TO.C,R1*%
X166116000Y-60452000D03*
D13*
X173736000Y-60452000D03*
%TD*%
D10*
%TO.C,U1*%
X195580000Y-64770000D03*
D11*
X193040000Y-64770000D03*
X190500000Y-64770000D03*
X187960000Y-64770000D03*
X185420000Y-64770000D03*
X182880000Y-64770000D03*
X180340000Y-64770000D03*
X177800000Y-64770000D03*
X175260000Y-64770000D03*
X172720000Y-64770000D03*
X170180000Y-64770000D03*
X167640000Y-64770000D03*
X165100000Y-64770000D03*
X162560000Y-64770000D03*
X160020000Y-64770000D03*
X157480000Y-64770000D03*
X154940000Y-64770000D03*
X152400000Y-64770000D03*
X149860000Y-64770000D03*
X147320000Y-64770000D03*
X147320000Y-82550000D03*
X149860000Y-82550000D03*
X152400000Y-82550000D03*
X154940000Y-82550000D03*
X157480000Y-82550000D03*
X160020000Y-82550000D03*
X162560000Y-82550000D03*
X165100000Y-82550000D03*
X167640000Y-82550000D03*
X170180000Y-82550000D03*
X172720000Y-82550000D03*
X175260000Y-82550000D03*
X177800000Y-82550000D03*
X180340000Y-82550000D03*
X182880000Y-82550000D03*
X185420000Y-82550000D03*
X187960000Y-82550000D03*
X190500000Y-82550000D03*
X193040000Y-82550000D03*
D14*
X195580000Y-82550000D03*
%TD*%
D15*
%TO.C,C4*%
X191770000Y-87860000D03*
X191770000Y-89360000D03*
%TD*%
D10*
%TO.C,J4*%
X181102000Y-60198000D03*
D11*
X178562000Y-60198000D03*
%TD*%
D10*
%TO.C,J9*%
X177800000Y-89535000D03*
D14*
X175260000Y-89535000D03*
X172720001Y-89535000D03*
%TD*%
D16*
%TO.C,C2*%
X171450000Y-101600000D03*
X171450000Y-96600000D03*
%TD*%
%TO.C,C3*%
X195580000Y-86400000D03*
X195580000Y-91400000D03*
%TD*%
D11*
%TO.C,J2*%
X125476000Y-59944000D03*
X112776000Y-59944000D03*
X117856000Y-59944000D03*
X107696000Y-59944000D03*
D10*
X105156000Y-59944000D03*
D11*
X122936000Y-59944000D03*
X120396000Y-59944000D03*
X110236000Y-59944000D03*
X115316000Y-59944000D03*
X128016000Y-59944000D03*
%TD*%
D10*
%TO.C,J5*%
X154305000Y-98420000D03*
D11*
X154305000Y-100960000D03*
%TD*%
D10*
%TO.C,U2*%
X181610000Y-96520000D03*
D11*
X179070000Y-96520000D03*
X176530000Y-96520000D03*
%TD*%
D17*
%TO.C,Q1*%
X186055000Y-60325000D03*
D18*
X187325000Y-60325000D03*
X188595000Y-60325000D03*
%TD*%
D19*
%TO.C,J3*%
X191770000Y-101600000D03*
D20*
X191770000Y-96520000D03*
%TD*%
D10*
%TO.C,J1*%
X141605000Y-89535000D03*
D11*
X141605000Y-92075000D03*
X144145000Y-89535000D03*
X144145000Y-92075000D03*
X146685000Y-89535000D03*
X146685000Y-92075000D03*
X149225000Y-89535000D03*
X149225000Y-92075000D03*
X151765000Y-89535000D03*
X151765000Y-92075000D03*
X154305000Y-89535000D03*
X154305000Y-92075000D03*
X156845000Y-89535000D03*
X156845000Y-92075000D03*
X159385000Y-89535000D03*
X159385000Y-92075000D03*
%TD*%
D10*
%TO.C,J8*%
X187310000Y-91264000D03*
D11*
X184770000Y-91264000D03*
X182230000Y-91264000D03*
%TD*%
D10*
%TO.C,J10*%
X168656000Y-89535000D03*
D14*
X166116000Y-89535000D03*
X163576001Y-89535000D03*
%TD*%
D10*
%TO.C,SW1*%
X176530000Y-101600000D03*
D11*
X179070000Y-101600000D03*
X181610000Y-101600000D03*
%TD*%
D15*
%TO.C,C1*%
X167640000Y-99520000D03*
X167640000Y-98020000D03*
%TD*%
M02*
