%TF.GenerationSoftware,KiCad,Pcbnew,10.0.3*%
%TF.CreationDate,2026-06-26T12:41:40-05:00*%
%TF.ProjectId,usb_daughter,7573625f-6461-4756-9768-7465722e6b69,rev?*%
%TF.SameCoordinates,Original*%
%TF.FileFunction,Copper,L2,Bot*%
%TF.FilePolarity,Positive*%
%FSLAX46Y46*%
G04 Gerber Fmt 4.6, Leading zero omitted, Abs format (unit mm)*
G04 Created by KiCad (PCBNEW 10.0.3) date 2026-06-26 12:41:40*
%MOMM*%
%LPD*%
G01*
G04 APERTURE LIST*
%TA.AperFunction,ComponentPad*%
%ADD10R,1.428000X1.428000*%
%TD*%
%TA.AperFunction,ComponentPad*%
%ADD11C,1.428000*%
%TD*%
%TA.AperFunction,ComponentPad*%
%ADD12C,3.346000*%
%TD*%
%TA.AperFunction,ViaPad*%
%ADD13C,0.600000*%
%TD*%
G04 APERTURE END LIST*
D10*
%TO.P,J1,1,VUSB_1*%
%TO.N,Net-(J1-VUSB)*%
X147631282Y-93376078D03*
D11*
%TO.P,J1,2,D-_2*%
%TO.N,Net-(J1-D-)*%
X150131282Y-93376078D03*
%TO.P,J1,3,D+_3*%
%TO.N,Net-(J1-D+)*%
X152131282Y-93376078D03*
%TO.P,J1,4,GND_4*%
%TO.N,Net-(J1-GND)*%
X154631282Y-93376078D03*
D12*
%TO.P,J1,S1,SHIELD_S1*%
X144561281Y-96376078D03*
%TO.P,J1,S2,SHIELD__1_S2*%
X157701283Y-96376078D03*
%TD*%
D13*
%TO.N,Net-(J1-GND)*%
X145506281Y-103376078D03*
%TD*%
%TA.AperFunction,Conductor*%
%TO.N,Net-(J1-GND)*%
G36*
X161755001Y-87376581D02*
G01*
X161755497Y-87376584D01*
X161807602Y-87376948D01*
X161813631Y-87377139D01*
X161920920Y-87383164D01*
X161927831Y-87383747D01*
X162032380Y-87395526D01*
X162039243Y-87396495D01*
X162142997Y-87414122D01*
X162149820Y-87415479D01*
X162169556Y-87419983D01*
X162252436Y-87438900D01*
X162259106Y-87440620D01*
X162360260Y-87469761D01*
X162366859Y-87471865D01*
X162466197Y-87506625D01*
X162472660Y-87509091D01*
X162569930Y-87549380D01*
X162576218Y-87552195D01*
X162671046Y-87597861D01*
X162677167Y-87601023D01*
X162769314Y-87651949D01*
X162775284Y-87655471D01*
X162859997Y-87708700D01*
X162864379Y-87711453D01*
X162870162Y-87715317D01*
X162955980Y-87776207D01*
X162961527Y-87780381D01*
X163043779Y-87845973D01*
X163049095Y-87850461D01*
X163127572Y-87920592D01*
X163132625Y-87925370D01*
X163207018Y-87999761D01*
X163211780Y-88004797D01*
X163281908Y-88083270D01*
X163286376Y-88088561D01*
X163352021Y-88170874D01*
X163356161Y-88176376D01*
X163417068Y-88262216D01*
X163420917Y-88267976D01*
X163476911Y-88357087D01*
X163480446Y-88363081D01*
X163531332Y-88455154D01*
X163534523Y-88461331D01*
X163580185Y-88556146D01*
X163583027Y-88562495D01*
X163623290Y-88659696D01*
X163625770Y-88666193D01*
X163660522Y-88765503D01*
X163662630Y-88772118D01*
X163682510Y-88841117D01*
X163691761Y-88873229D01*
X163693498Y-88879963D01*
X163716909Y-88982529D01*
X163718266Y-88989350D01*
X163735895Y-89093097D01*
X163736867Y-89099986D01*
X163748647Y-89204533D01*
X163749232Y-89211463D01*
X163755247Y-89318548D01*
X163755439Y-89324699D01*
X163755779Y-89377216D01*
X163755782Y-89378019D01*
X163755782Y-102373972D01*
X163755779Y-102374826D01*
X163755417Y-102427392D01*
X163755225Y-102433490D01*
X163749204Y-102540712D01*
X163748619Y-102547643D01*
X163736842Y-102652170D01*
X163735870Y-102659056D01*
X163718246Y-102762791D01*
X163716889Y-102769615D01*
X163693477Y-102872190D01*
X163691740Y-102878923D01*
X163662610Y-102980039D01*
X163660501Y-102986659D01*
X163646865Y-103025628D01*
X163625754Y-103085962D01*
X163623273Y-103092461D01*
X163582999Y-103189690D01*
X163580159Y-103196037D01*
X163534515Y-103290821D01*
X163531321Y-103297003D01*
X163480427Y-103389088D01*
X163476894Y-103395078D01*
X163420916Y-103484167D01*
X163417052Y-103489950D01*
X163356167Y-103575760D01*
X163351985Y-103581317D01*
X163286381Y-103663583D01*
X163281893Y-103668898D01*
X163211774Y-103747361D01*
X163206995Y-103752415D01*
X163132604Y-103826806D01*
X163127550Y-103831584D01*
X163049103Y-103901689D01*
X163043801Y-103906167D01*
X162961516Y-103971786D01*
X162955970Y-103975961D01*
X162870162Y-104036845D01*
X162864378Y-104040709D01*
X162775283Y-104096690D01*
X162769294Y-104100223D01*
X162677205Y-104151120D01*
X162671024Y-104154313D01*
X162576226Y-104199965D01*
X162569885Y-104202802D01*
X162534341Y-104217525D01*
X162472666Y-104243071D01*
X162466171Y-104245550D01*
X162392992Y-104271157D01*
X162366873Y-104280296D01*
X162360252Y-104282407D01*
X162259129Y-104311539D01*
X162252394Y-104313276D01*
X162149826Y-104336685D01*
X162143006Y-104338042D01*
X162039245Y-104355672D01*
X162032356Y-104356644D01*
X161927840Y-104368419D01*
X161920910Y-104369004D01*
X161813710Y-104375024D01*
X161807605Y-104375216D01*
X161755862Y-104375569D01*
X161755065Y-104375575D01*
X161754222Y-104375578D01*
X140508398Y-104375578D01*
X140507542Y-104375575D01*
X140454979Y-104375212D01*
X140448880Y-104375020D01*
X140341661Y-104368997D01*
X140334732Y-104368412D01*
X140230195Y-104356633D01*
X140223307Y-104355661D01*
X140119567Y-104338034D01*
X140112749Y-104336677D01*
X140061462Y-104324971D01*
X140010179Y-104313266D01*
X140003444Y-104311528D01*
X139902335Y-104282398D01*
X139895709Y-104280286D01*
X139796398Y-104245535D01*
X139789916Y-104243061D01*
X139692677Y-104202782D01*
X139686358Y-104199954D01*
X139591556Y-104154299D01*
X139585376Y-104151106D01*
X139493288Y-104100210D01*
X139487297Y-104096676D01*
X139472477Y-104087364D01*
X139398201Y-104040692D01*
X139392424Y-104036832D01*
X139306623Y-103975951D01*
X139301067Y-103971770D01*
X139218817Y-103906177D01*
X139218790Y-103906155D01*
X139213489Y-103901678D01*
X139135034Y-103831564D01*
X139129980Y-103826787D01*
X139055580Y-103752386D01*
X139050819Y-103747350D01*
X138980687Y-103668871D01*
X138976219Y-103663579D01*
X138910611Y-103581307D01*
X138906430Y-103575751D01*
X138845545Y-103489942D01*
X138841686Y-103484167D01*
X138785701Y-103395064D01*
X138782168Y-103389075D01*
X138731255Y-103296954D01*
X138728108Y-103290861D01*
X138682419Y-103195986D01*
X138679592Y-103189668D01*
X138674037Y-103176256D01*
X138639329Y-103092461D01*
X138636858Y-103085987D01*
X138602090Y-102986622D01*
X138599998Y-102980057D01*
X138570853Y-102878892D01*
X138569122Y-102872178D01*
X138566430Y-102860384D01*
X138545711Y-102769605D01*
X138544358Y-102762804D01*
X138526727Y-102659028D01*
X138525766Y-102652226D01*
X138513977Y-102547588D01*
X138513399Y-102540724D01*
X138507367Y-102433306D01*
X138507176Y-102427324D01*
X138506784Y-102374391D01*
X138506782Y-102373651D01*
X138506782Y-102019791D01*
X139405783Y-102019791D01*
X139405783Y-102232364D01*
X139436657Y-102427299D01*
X139439037Y-102442321D01*
X139482733Y-102576804D01*
X139504727Y-102644492D01*
X139601234Y-102833898D01*
X139726173Y-103005864D01*
X139876496Y-103156187D01*
X140048462Y-103281126D01*
X140048464Y-103281127D01*
X140048467Y-103281129D01*
X140237871Y-103377635D01*
X140440040Y-103443324D01*
X140649996Y-103476578D01*
X140649997Y-103476578D01*
X140862569Y-103476578D01*
X140862570Y-103476578D01*
X141072526Y-103443324D01*
X141274695Y-103377635D01*
X141464099Y-103281129D01*
X141581219Y-103196037D01*
X141636069Y-103156187D01*
X141636071Y-103156184D01*
X141636075Y-103156182D01*
X141786387Y-103005870D01*
X141786389Y-103005866D01*
X141786392Y-103005864D01*
X141911331Y-102833898D01*
X141911330Y-102833898D01*
X141911334Y-102833894D01*
X142007840Y-102644490D01*
X142073529Y-102442321D01*
X142106783Y-102232365D01*
X142106783Y-102019791D01*
X160155781Y-102019791D01*
X160155781Y-102232364D01*
X160186655Y-102427299D01*
X160189035Y-102442321D01*
X160232731Y-102576804D01*
X160254725Y-102644492D01*
X160351232Y-102833898D01*
X160476171Y-103005864D01*
X160626494Y-103156187D01*
X160798460Y-103281126D01*
X160798462Y-103281127D01*
X160798465Y-103281129D01*
X160987869Y-103377635D01*
X161190038Y-103443324D01*
X161399994Y-103476578D01*
X161399995Y-103476578D01*
X161612567Y-103476578D01*
X161612568Y-103476578D01*
X161822524Y-103443324D01*
X162024693Y-103377635D01*
X162214097Y-103281129D01*
X162331217Y-103196037D01*
X162386067Y-103156187D01*
X162386069Y-103156184D01*
X162386073Y-103156182D01*
X162536385Y-103005870D01*
X162536387Y-103005866D01*
X162536390Y-103005864D01*
X162661329Y-102833898D01*
X162661328Y-102833898D01*
X162661332Y-102833894D01*
X162757838Y-102644490D01*
X162823527Y-102442321D01*
X162856781Y-102232365D01*
X162856781Y-102019791D01*
X162823527Y-101809835D01*
X162757838Y-101607666D01*
X162661332Y-101418262D01*
X162661330Y-101418259D01*
X162661329Y-101418257D01*
X162536390Y-101246291D01*
X162386067Y-101095968D01*
X162214101Y-100971029D01*
X162024695Y-100874522D01*
X162024694Y-100874521D01*
X162024693Y-100874521D01*
X161822524Y-100808832D01*
X161822522Y-100808831D01*
X161822521Y-100808831D01*
X161661238Y-100783286D01*
X161612568Y-100775578D01*
X161399994Y-100775578D01*
X161351323Y-100783286D01*
X161190041Y-100808831D01*
X160987866Y-100874522D01*
X160798460Y-100971029D01*
X160626494Y-101095968D01*
X160476171Y-101246291D01*
X160351232Y-101418257D01*
X160254725Y-101607663D01*
X160189034Y-101809838D01*
X160155781Y-102019791D01*
X142106783Y-102019791D01*
X142073529Y-101809835D01*
X142007840Y-101607666D01*
X141911334Y-101418262D01*
X141911332Y-101418259D01*
X141911331Y-101418257D01*
X141786392Y-101246291D01*
X141636069Y-101095968D01*
X141464103Y-100971029D01*
X141274697Y-100874522D01*
X141274696Y-100874521D01*
X141274695Y-100874521D01*
X141072526Y-100808832D01*
X141072524Y-100808831D01*
X141072523Y-100808831D01*
X140911240Y-100783286D01*
X140862570Y-100775578D01*
X140649996Y-100775578D01*
X140601325Y-100783286D01*
X140440043Y-100808831D01*
X140237868Y-100874522D01*
X140048462Y-100971029D01*
X139876496Y-101095968D01*
X139726173Y-101246291D01*
X139601234Y-101418257D01*
X139504727Y-101607663D01*
X139439036Y-101809838D01*
X139405783Y-102019791D01*
X138506782Y-102019791D01*
X138506782Y-96233651D01*
X142388281Y-96233651D01*
X142388281Y-96518504D01*
X142425459Y-96800908D01*
X142425462Y-96800921D01*
X142499186Y-97076067D01*
X142608192Y-97339230D01*
X142608197Y-97339241D01*
X142750619Y-97585922D01*
X142857973Y-97725829D01*
X142857974Y-97725829D01*
X143578454Y-97005349D01*
X143672669Y-97135024D01*
X143802335Y-97264690D01*
X143932008Y-97358903D01*
X143211528Y-98079383D01*
X143211528Y-98079384D01*
X143351431Y-98186735D01*
X143598117Y-98329161D01*
X143598128Y-98329166D01*
X143861291Y-98438172D01*
X144136437Y-98511896D01*
X144136450Y-98511899D01*
X144418854Y-98549078D01*
X144703708Y-98549078D01*
X144986111Y-98511899D01*
X144986124Y-98511896D01*
X145261270Y-98438172D01*
X145524433Y-98329166D01*
X145524444Y-98329161D01*
X145771118Y-98186743D01*
X145771126Y-98186737D01*
X145911032Y-98079383D01*
X145190552Y-97358903D01*
X145320227Y-97264690D01*
X145449893Y-97135024D01*
X145544106Y-97005349D01*
X146264586Y-97725829D01*
X146371940Y-97585923D01*
X146371946Y-97585915D01*
X146514364Y-97339241D01*
X146514369Y-97339230D01*
X146623375Y-97076067D01*
X146697099Y-96800921D01*
X146697102Y-96800908D01*
X146734281Y-96518504D01*
X146734281Y-96233651D01*
X155528283Y-96233651D01*
X155528283Y-96518504D01*
X155565461Y-96800908D01*
X155565464Y-96800921D01*
X155639188Y-97076067D01*
X155748194Y-97339230D01*
X155748199Y-97339241D01*
X155890621Y-97585922D01*
X155997975Y-97725829D01*
X155997976Y-97725829D01*
X156718456Y-97005349D01*
X156812671Y-97135024D01*
X156942337Y-97264690D01*
X157072010Y-97358903D01*
X156351530Y-98079383D01*
X156351530Y-98079384D01*
X156491433Y-98186735D01*
X156738119Y-98329161D01*
X156738130Y-98329166D01*
X157001293Y-98438172D01*
X157276439Y-98511896D01*
X157276452Y-98511899D01*
X157558856Y-98549078D01*
X157843710Y-98549078D01*
X158126113Y-98511899D01*
X158126126Y-98511896D01*
X158401272Y-98438172D01*
X158664435Y-98329166D01*
X158664446Y-98329161D01*
X158911120Y-98186743D01*
X158911128Y-98186737D01*
X159051034Y-98079383D01*
X158330554Y-97358903D01*
X158460229Y-97264690D01*
X158589895Y-97135024D01*
X158684108Y-97005349D01*
X159404588Y-97725829D01*
X159511942Y-97585923D01*
X159511948Y-97585915D01*
X159654366Y-97339241D01*
X159654371Y-97339230D01*
X159763377Y-97076067D01*
X159837101Y-96800921D01*
X159837104Y-96800908D01*
X159874283Y-96518504D01*
X159874283Y-96233651D01*
X159837104Y-95951247D01*
X159837101Y-95951234D01*
X159763377Y-95676088D01*
X159654371Y-95412925D01*
X159654366Y-95412914D01*
X159511940Y-95166228D01*
X159404588Y-95026325D01*
X158684108Y-95746805D01*
X158589895Y-95617132D01*
X158460229Y-95487466D01*
X158330554Y-95393251D01*
X159051034Y-94672771D01*
X159051034Y-94672770D01*
X158911127Y-94565416D01*
X158664446Y-94422994D01*
X158664435Y-94422989D01*
X158401272Y-94313983D01*
X158126126Y-94240259D01*
X158126113Y-94240256D01*
X157843710Y-94203078D01*
X157558856Y-94203078D01*
X157276452Y-94240256D01*
X157276439Y-94240259D01*
X157001293Y-94313983D01*
X156738130Y-94422989D01*
X156738119Y-94422994D01*
X156491438Y-94565416D01*
X156351530Y-94672770D01*
X156351530Y-94672771D01*
X157072011Y-95393252D01*
X156942337Y-95487466D01*
X156812671Y-95617132D01*
X156718457Y-95746805D01*
X155997976Y-95026325D01*
X155997975Y-95026325D01*
X155890621Y-95166233D01*
X155748199Y-95412914D01*
X155748194Y-95412925D01*
X155639188Y-95676088D01*
X155565464Y-95951234D01*
X155565461Y-95951247D01*
X155528283Y-96233651D01*
X146734281Y-96233651D01*
X146697102Y-95951247D01*
X146697099Y-95951234D01*
X146623375Y-95676088D01*
X146514369Y-95412925D01*
X146514364Y-95412914D01*
X146371938Y-95166228D01*
X146264586Y-95026325D01*
X145544106Y-95746805D01*
X145449893Y-95617132D01*
X145320227Y-95487466D01*
X145190552Y-95393251D01*
X145911032Y-94672771D01*
X145911032Y-94672770D01*
X145771125Y-94565416D01*
X145524444Y-94422994D01*
X145524433Y-94422989D01*
X145261270Y-94313983D01*
X144986124Y-94240259D01*
X144986111Y-94240256D01*
X144703708Y-94203078D01*
X144418854Y-94203078D01*
X144136450Y-94240256D01*
X144136437Y-94240259D01*
X143861291Y-94313983D01*
X143598128Y-94422989D01*
X143598117Y-94422994D01*
X143351436Y-94565416D01*
X143211528Y-94672770D01*
X143211528Y-94672771D01*
X143932009Y-95393252D01*
X143802335Y-95487466D01*
X143672669Y-95617132D01*
X143578455Y-95746805D01*
X142857974Y-95026325D01*
X142857973Y-95026325D01*
X142750619Y-95166233D01*
X142608197Y-95412914D01*
X142608192Y-95412925D01*
X142499186Y-95676088D01*
X142425462Y-95951234D01*
X142425459Y-95951247D01*
X142388281Y-96233651D01*
X138506782Y-96233651D01*
X138506782Y-92614213D01*
X146416782Y-92614213D01*
X146416782Y-94137948D01*
X146416783Y-94137954D01*
X146423190Y-94197561D01*
X146473484Y-94332406D01*
X146473488Y-94332413D01*
X146559734Y-94447622D01*
X146559737Y-94447625D01*
X146674946Y-94533871D01*
X146674953Y-94533875D01*
X146809799Y-94584169D01*
X146809798Y-94584169D01*
X146816726Y-94584913D01*
X146869409Y-94590578D01*
X148393154Y-94590577D01*
X148452765Y-94584169D01*
X148587613Y-94533874D01*
X148702828Y-94447624D01*
X148789078Y-94332409D01*
X148839373Y-94197561D01*
X148845782Y-94137951D01*
X148845781Y-94044801D01*
X148865465Y-93977766D01*
X148918268Y-93932010D01*
X148987427Y-93922066D01*
X149050983Y-93951090D01*
X149080264Y-93988506D01*
X149092416Y-94012353D01*
X149092549Y-94012614D01*
X149204914Y-94167271D01*
X149340089Y-94302446D01*
X149494746Y-94414811D01*
X149665076Y-94501599D01*
X149846886Y-94560673D01*
X149917690Y-94571887D01*
X150035694Y-94590578D01*
X150035699Y-94590578D01*
X150226870Y-94590578D01*
X150331761Y-94573964D01*
X150415678Y-94560673D01*
X150597488Y-94501599D01*
X150767818Y-94414811D01*
X150922475Y-94302446D01*
X151043601Y-94181320D01*
X151104924Y-94147835D01*
X151174616Y-94152819D01*
X151218963Y-94181320D01*
X151340089Y-94302446D01*
X151494746Y-94414811D01*
X151665076Y-94501599D01*
X151846886Y-94560673D01*
X151917690Y-94571887D01*
X152035694Y-94590578D01*
X152035699Y-94590578D01*
X152226870Y-94590578D01*
X152331761Y-94573964D01*
X152415678Y-94560673D01*
X152597488Y-94501599D01*
X152767818Y-94414811D01*
X152922475Y-94302446D01*
X153057650Y-94167271D01*
X153170015Y-94012614D01*
X153256803Y-93842284D01*
X153263613Y-93821322D01*
X153303048Y-93763648D01*
X153367406Y-93736449D01*
X153436253Y-93748361D01*
X153487730Y-93795604D01*
X153499475Y-93821322D01*
X153506222Y-93842089D01*
X153506224Y-93842092D01*
X153592978Y-94012357D01*
X153613374Y-94040429D01*
X153613375Y-94040430D01*
X154180979Y-93472826D01*
X154202631Y-93553631D01*
X154263191Y-93658524D01*
X154348836Y-93744169D01*
X154453729Y-93804729D01*
X154534532Y-93826380D01*
X153966928Y-94393983D01*
X153995006Y-94414383D01*
X154165267Y-94501135D01*
X154165270Y-94501137D01*
X154346999Y-94560184D01*
X154535739Y-94590078D01*
X154726825Y-94590078D01*
X154915562Y-94560184D01*
X154915565Y-94560184D01*
X155097293Y-94501137D01*
X155097296Y-94501135D01*
X155267557Y-94414383D01*
X155295633Y-94393984D01*
X155295633Y-94393983D01*
X154728032Y-93826380D01*
X154808835Y-93804729D01*
X154913728Y-93744169D01*
X154999373Y-93658524D01*
X155059933Y-93553631D01*
X155081584Y-93472827D01*
X155649187Y-94040429D01*
X155649188Y-94040429D01*
X155669587Y-94012353D01*
X155756339Y-93842092D01*
X155756341Y-93842089D01*
X155815388Y-93660361D01*
X155815388Y-93660358D01*
X155845282Y-93471621D01*
X155845282Y-93280534D01*
X155815388Y-93091797D01*
X155815388Y-93091794D01*
X155756341Y-92910066D01*
X155756339Y-92910063D01*
X155669587Y-92739802D01*
X155649187Y-92711725D01*
X155649187Y-92711724D01*
X155081584Y-93279327D01*
X155059933Y-93198525D01*
X154999373Y-93093632D01*
X154913728Y-93007987D01*
X154808835Y-92947427D01*
X154728031Y-92925775D01*
X155295634Y-92358171D01*
X155295633Y-92358170D01*
X155267561Y-92337774D01*
X155097296Y-92251020D01*
X155097293Y-92251018D01*
X154915564Y-92191971D01*
X154726825Y-92162078D01*
X154535739Y-92162078D01*
X154347001Y-92191971D01*
X154346998Y-92191971D01*
X154165270Y-92251018D01*
X154165267Y-92251019D01*
X153995003Y-92337774D01*
X153966929Y-92358170D01*
X153966929Y-92358171D01*
X154534533Y-92925775D01*
X154453729Y-92947427D01*
X154348836Y-93007987D01*
X154263191Y-93093632D01*
X154202631Y-93198525D01*
X154180979Y-93279329D01*
X153613375Y-92711725D01*
X153613374Y-92711725D01*
X153592978Y-92739799D01*
X153506223Y-92910063D01*
X153506220Y-92910071D01*
X153499474Y-92930835D01*
X153460036Y-92988510D01*
X153395677Y-93015707D01*
X153326831Y-93003792D01*
X153275356Y-92956547D01*
X153263613Y-92930832D01*
X153256867Y-92910071D01*
X153256803Y-92909872D01*
X153170015Y-92739542D01*
X153057650Y-92584885D01*
X152922475Y-92449710D01*
X152767818Y-92337345D01*
X152597488Y-92250557D01*
X152415678Y-92191483D01*
X152415676Y-92191482D01*
X152415674Y-92191482D01*
X152226870Y-92161578D01*
X152226865Y-92161578D01*
X152035699Y-92161578D01*
X152035694Y-92161578D01*
X151846889Y-92191482D01*
X151665073Y-92250558D01*
X151494745Y-92337345D01*
X151466081Y-92358171D01*
X151340089Y-92449710D01*
X151340087Y-92449712D01*
X151340086Y-92449712D01*
X151218963Y-92570836D01*
X151157640Y-92604321D01*
X151087948Y-92599337D01*
X151043601Y-92570836D01*
X150922477Y-92449712D01*
X150922475Y-92449710D01*
X150767818Y-92337345D01*
X150597488Y-92250557D01*
X150415678Y-92191483D01*
X150415676Y-92191482D01*
X150415674Y-92191482D01*
X150226870Y-92161578D01*
X150226865Y-92161578D01*
X150035699Y-92161578D01*
X150035694Y-92161578D01*
X149846889Y-92191482D01*
X149665073Y-92250558D01*
X149494745Y-92337345D01*
X149466081Y-92358171D01*
X149340089Y-92449710D01*
X149340087Y-92449712D01*
X149340086Y-92449712D01*
X149204916Y-92584882D01*
X149204916Y-92584883D01*
X149204914Y-92584885D01*
X149183606Y-92614213D01*
X149092547Y-92739544D01*
X149080265Y-92763649D01*
X149032290Y-92814445D01*
X148964469Y-92831239D01*
X148898334Y-92808701D01*
X148854883Y-92753985D01*
X148845781Y-92707353D01*
X148845781Y-92614207D01*
X148845780Y-92614201D01*
X148845779Y-92614194D01*
X148839373Y-92554595D01*
X148800253Y-92449710D01*
X148789079Y-92419749D01*
X148789075Y-92419742D01*
X148702829Y-92304533D01*
X148702826Y-92304530D01*
X148587617Y-92218284D01*
X148587610Y-92218280D01*
X148452764Y-92167986D01*
X148452765Y-92167986D01*
X148393165Y-92161579D01*
X148393163Y-92161578D01*
X148393155Y-92161578D01*
X148393146Y-92161578D01*
X146869411Y-92161578D01*
X146869405Y-92161579D01*
X146809798Y-92167986D01*
X146674953Y-92218280D01*
X146674946Y-92218284D01*
X146559737Y-92304530D01*
X146559734Y-92304533D01*
X146473488Y-92419742D01*
X146473484Y-92419749D01*
X146423190Y-92554595D01*
X146416783Y-92614194D01*
X146416783Y-92614201D01*
X146416782Y-92614213D01*
X138506782Y-92614213D01*
X138506782Y-89519791D01*
X139405783Y-89519791D01*
X139405783Y-89732364D01*
X139439036Y-89942317D01*
X139504727Y-90144492D01*
X139601234Y-90333898D01*
X139726173Y-90505864D01*
X139876496Y-90656187D01*
X140048462Y-90781126D01*
X140048464Y-90781127D01*
X140048467Y-90781129D01*
X140237871Y-90877635D01*
X140440040Y-90943324D01*
X140649996Y-90976578D01*
X140649997Y-90976578D01*
X140862569Y-90976578D01*
X140862570Y-90976578D01*
X141072526Y-90943324D01*
X141274695Y-90877635D01*
X141464099Y-90781129D01*
X141486072Y-90765164D01*
X141636069Y-90656187D01*
X141636071Y-90656184D01*
X141636075Y-90656182D01*
X141786387Y-90505870D01*
X141786389Y-90505866D01*
X141786392Y-90505864D01*
X141911331Y-90333898D01*
X141911332Y-90333897D01*
X141911334Y-90333894D01*
X142007840Y-90144490D01*
X142073529Y-89942321D01*
X142106783Y-89732365D01*
X142106783Y-89519791D01*
X142106783Y-89519790D01*
X160155781Y-89519790D01*
X160155781Y-89732363D01*
X160189034Y-89942316D01*
X160189034Y-89942318D01*
X160189035Y-89942320D01*
X160189035Y-89942321D01*
X160254725Y-90144491D01*
X160351232Y-90333897D01*
X160476171Y-90505863D01*
X160626494Y-90656186D01*
X160798460Y-90781125D01*
X160798462Y-90781126D01*
X160798465Y-90781128D01*
X160987869Y-90877634D01*
X161190038Y-90943323D01*
X161399994Y-90976577D01*
X161399995Y-90976577D01*
X161612567Y-90976577D01*
X161612568Y-90976577D01*
X161822524Y-90943323D01*
X162024693Y-90877634D01*
X162214097Y-90781128D01*
X162236070Y-90765163D01*
X162386067Y-90656186D01*
X162386069Y-90656183D01*
X162386073Y-90656181D01*
X162536385Y-90505869D01*
X162536389Y-90505864D01*
X162536390Y-90505863D01*
X162661329Y-90333897D01*
X162661331Y-90333894D01*
X162661332Y-90333893D01*
X162757838Y-90144489D01*
X162823527Y-89942320D01*
X162856781Y-89732364D01*
X162856781Y-89519790D01*
X162823527Y-89309834D01*
X162757838Y-89107665D01*
X162661332Y-88918261D01*
X162661330Y-88918258D01*
X162661329Y-88918256D01*
X162536390Y-88746290D01*
X162386067Y-88595967D01*
X162214101Y-88471028D01*
X162024695Y-88374521D01*
X162024694Y-88374520D01*
X162024693Y-88374520D01*
X161822524Y-88308831D01*
X161822522Y-88308830D01*
X161822521Y-88308830D01*
X161661238Y-88283285D01*
X161612568Y-88275577D01*
X161399994Y-88275577D01*
X161351323Y-88283285D01*
X161190041Y-88308830D01*
X161190038Y-88308831D01*
X161023075Y-88363081D01*
X160987866Y-88374521D01*
X160798460Y-88471028D01*
X160626494Y-88595967D01*
X160476171Y-88746290D01*
X160351232Y-88918256D01*
X160254725Y-89107662D01*
X160189034Y-89309837D01*
X160155781Y-89519790D01*
X142106783Y-89519790D01*
X142073529Y-89309835D01*
X142007840Y-89107666D01*
X141911334Y-88918262D01*
X141911332Y-88918259D01*
X141911331Y-88918257D01*
X141786392Y-88746291D01*
X141636069Y-88595968D01*
X141464103Y-88471029D01*
X141274697Y-88374522D01*
X141274696Y-88374521D01*
X141274695Y-88374521D01*
X141072526Y-88308832D01*
X141072524Y-88308831D01*
X141072523Y-88308831D01*
X140911240Y-88283286D01*
X140862570Y-88275578D01*
X140649996Y-88275578D01*
X140601325Y-88283286D01*
X140440043Y-88308831D01*
X140237868Y-88374522D01*
X140048462Y-88471029D01*
X139876496Y-88595968D01*
X139726173Y-88746291D01*
X139601234Y-88918257D01*
X139504727Y-89107663D01*
X139439036Y-89309838D01*
X139405783Y-89519791D01*
X138506782Y-89519791D01*
X138506782Y-89378238D01*
X138506785Y-89377370D01*
X138507021Y-89343668D01*
X138507153Y-89324776D01*
X138507344Y-89318743D01*
X138513370Y-89211448D01*
X138513955Y-89204529D01*
X138525737Y-89099968D01*
X138526702Y-89093131D01*
X138544339Y-88989328D01*
X138545683Y-88982574D01*
X138569107Y-88879950D01*
X138570831Y-88873267D01*
X138599975Y-88772107D01*
X138602069Y-88765539D01*
X138636844Y-88666161D01*
X138639303Y-88659717D01*
X138679583Y-88562473D01*
X138682405Y-88556167D01*
X138728077Y-88461327D01*
X138731251Y-88455186D01*
X138782160Y-88363074D01*
X138785677Y-88357110D01*
X138841691Y-88267968D01*
X138845509Y-88262253D01*
X138906447Y-88176368D01*
X138910579Y-88170879D01*
X138976229Y-88088557D01*
X138980672Y-88083296D01*
X139050811Y-88004811D01*
X139055554Y-87999794D01*
X139129986Y-87925362D01*
X139135022Y-87920602D01*
X139213487Y-87850481D01*
X139218770Y-87846018D01*
X139301068Y-87780388D01*
X139306613Y-87776216D01*
X139306626Y-87776207D01*
X139392442Y-87715316D01*
X139398170Y-87711488D01*
X139487345Y-87655457D01*
X139493250Y-87651974D01*
X139585404Y-87601042D01*
X139591534Y-87597875D01*
X139686355Y-87552211D01*
X139692667Y-87549387D01*
X139789936Y-87509096D01*
X139796380Y-87506637D01*
X139895735Y-87471870D01*
X139902303Y-87469776D01*
X140003459Y-87440633D01*
X140010156Y-87438905D01*
X140112768Y-87415484D01*
X140119555Y-87414134D01*
X140223309Y-87396505D01*
X140230187Y-87395534D01*
X140334745Y-87383752D01*
X140341662Y-87383168D01*
X140448950Y-87377143D01*
X140454984Y-87376952D01*
X140507082Y-87376584D01*
X140507607Y-87376581D01*
X140508482Y-87376578D01*
X161754135Y-87376578D01*
X161755001Y-87376581D01*
G37*
%TD.AperFunction*%
%TD*%
M02*
