%TF.GenerationSoftware,KiCad,Pcbnew,10.0.3*%
%TF.CreationDate,2026-06-26T12:41:40-05:00*%
%TF.ProjectId,usb_daughter,7573625f-6461-4756-9768-7465722e6b69,rev?*%
%TF.SameCoordinates,Original*%
%TF.FileFunction,Copper,L1,Top*%
%TF.FilePolarity,Positive*%
%FSLAX46Y46*%
G04 Gerber Fmt 4.6, Leading zero omitted, Abs format (unit mm)*
G04 Created by KiCad (PCBNEW 10.0.3) date 2026-06-26 12:41:40*
%MOMM*%
%LPD*%
G01*
G04 APERTURE LIST*
G04 Aperture macros list*
%AMRoundRect*
0 Rectangle with rounded corners*
0 $1 Rounding radius*
0 $2 $3 $4 $5 $6 $7 $8 $9 X,Y pos of 4 corners*
0 Add a 4 corners polygon primitive as box body*
4,1,4,$2,$3,$4,$5,$6,$7,$8,$9,$2,$3,0*
0 Add four circle primitives for the rounded corners*
1,1,$1+$1,$2,$3*
1,1,$1+$1,$4,$5*
1,1,$1+$1,$6,$7*
1,1,$1+$1,$8,$9*
0 Add four rect primitives between the rounded corners*
20,1,$1+$1,$2,$3,$4,$5,0*
20,1,$1+$1,$4,$5,$6,$7,0*
20,1,$1+$1,$6,$7,$8,$9,0*
20,1,$1+$1,$8,$9,$2,$3,0*%
G04 Aperture macros list end*
%TA.AperFunction,ComponentPad*%
%ADD10R,1.428000X1.428000*%
%TD*%
%TA.AperFunction,ComponentPad*%
%ADD11C,1.428000*%
%TD*%
%TA.AperFunction,ComponentPad*%
%ADD12C,3.346000*%
%TD*%
%TA.AperFunction,SMDPad,CuDef*%
%ADD13RoundRect,0.112500X-0.112500X-0.577500X0.112500X-0.577500X0.112500X0.577500X-0.112500X0.577500X0*%
%TD*%
%TA.AperFunction,SMDPad,CuDef*%
%ADD14RoundRect,0.250000X-0.575000X-0.400000X0.575000X-0.400000X0.575000X0.400000X-0.575000X0.400000X0*%
%TD*%
%TA.AperFunction,SMDPad,CuDef*%
%ADD15RoundRect,0.250000X-0.462500X-0.525000X0.462500X-0.525000X0.462500X0.525000X-0.462500X0.525000X0*%
%TD*%
%TA.AperFunction,SMDPad,CuDef*%
%ADD16RoundRect,0.250000X-0.650000X-0.700000X0.650000X-0.700000X0.650000X0.700000X-0.650000X0.700000X0*%
%TD*%
%TA.AperFunction,SMDPad,CuDef*%
%ADD17RoundRect,0.250000X-0.250000X-0.700000X0.250000X-0.700000X0.250000X0.700000X-0.250000X0.700000X0*%
%TD*%
%TA.AperFunction,ViaPad*%
%ADD18C,0.600000*%
%TD*%
%TA.AperFunction,Conductor*%
%ADD19C,0.200000*%
%TD*%
G04 APERTURE END LIST*
D10*
%TO.P,J1,1,VUSB_1*%
%TO.N,Net-(J1-VUSB)*%
X147631282Y-93376078D03*
D11*
%TO.P,J1,2,D-_2*%
%TO.N,Net-(J1-D-)*%
X150131282Y-93376078D03*
%TO.P,J1,3,D+_3*%
%TO.N,Net-(J1-D+)*%
X152131282Y-93376078D03*
%TO.P,J1,4,GND_4*%
%TO.N,Net-(J1-GND)*%
X154631282Y-93376078D03*
D12*
%TO.P,J1,S1,SHIELD_S1*%
X144561281Y-96376078D03*
%TO.P,J1,S2,SHIELD__1_S2*%
X157701283Y-96376078D03*
%TD*%
D13*
%TO.P,J2,1,VBUS_1*%
%TO.N,Net-(J1-VUSB)*%
X149693782Y-100791079D03*
%TO.P,J2,2,D-_2*%
%TO.N,Net-(J1-D-)*%
X150343782Y-100791080D03*
%TO.P,J2,3,D+_3*%
%TO.N,Net-(J1-D+)*%
X150993782Y-100791079D03*
%TO.P,J2,4,ID_4*%
%TO.N,unconnected-(J2-ID-Pad4)*%
X151643782Y-100791080D03*
%TO.P,J2,5,GND_5*%
%TO.N,Net-(J1-GND)*%
X152293782Y-100791079D03*
D14*
%TO.P,J2,SH,Shield_SH*%
X147618782Y-103451080D03*
D15*
X148506282Y-100876079D03*
D16*
X149843782Y-103451079D03*
D17*
X152543782Y-103451080D03*
D15*
X153481282Y-100876079D03*
D14*
X154368782Y-103451080D03*
%TD*%
D18*
%TO.N,Net-(J1-GND)*%
X145506281Y-103376078D03*
%TD*%
%TO.N,Net-(J1-VUSB)*%
D19*
X147631282Y-93376078D02*
X149693782Y-95438579D01*
X149693782Y-95438579D02*
X149693781Y-100791078D01*
%TO.N,Net-(J1-D-)*%
X150343782Y-100791079D02*
X150343781Y-93588579D01*
X150343781Y-93588579D02*
X150131282Y-93376078D01*
%TO.N,Net-(J1-D+)*%
X152131282Y-93376077D02*
X150993782Y-94513578D01*
X150993782Y-94513578D02*
X150993782Y-100791078D01*
%TO.N,Net-(J1-GND)*%
X147618782Y-101763579D02*
X148506282Y-100876078D01*
X154368782Y-103451078D02*
X147618782Y-103451079D01*
X154368782Y-101763578D02*
X153481281Y-100876078D01*
X145581283Y-103451080D02*
X145506281Y-103376078D01*
X152293782Y-100791078D02*
X153396281Y-100791078D01*
X153396281Y-100791078D02*
X153481281Y-100876078D01*
X147618782Y-103451079D02*
X145581283Y-103451080D01*
X154368782Y-103451078D02*
X154368782Y-101763578D01*
X147618782Y-103451079D02*
X147618782Y-101763579D01*
%TD*%
M02*
