%TF.GenerationSoftware,KiCad,Pcbnew,10.0.3*%
%TF.CreationDate,2026-06-26T09:34:41-05:00*%
%TF.ProjectId,usb_daughter,7573625f-6461-4756-9768-7465722e6b69,rev?*%
%TF.SameCoordinates,Original*%
%TF.FileFunction,Legend,Top*%
%TF.FilePolarity,Positive*%
%FSLAX46Y46*%
G04 Gerber Fmt 4.6, Leading zero omitted, Abs format (unit mm)*
G04 Created by KiCad (PCBNEW 10.0.3) date 2026-06-26 09:34:41*
%MOMM*%
%LPD*%
G01*
G04 APERTURE LIST*
%ADD10C,0.150000*%
%ADD11C,0.127000*%
%ADD12C,0.300000*%
%ADD13C,0.120000*%
G04 APERTURE END LIST*
D10*
X144846666Y-87232319D02*
X144846666Y-87946604D01*
X144846666Y-87946604D02*
X144799047Y-88089461D01*
X144799047Y-88089461D02*
X144703809Y-88184700D01*
X144703809Y-88184700D02*
X144560952Y-88232319D01*
X144560952Y-88232319D02*
X144465714Y-88232319D01*
X145846666Y-88232319D02*
X145275238Y-88232319D01*
X145560952Y-88232319D02*
X145560952Y-87232319D01*
X145560952Y-87232319D02*
X145465714Y-87375176D01*
X145465714Y-87375176D02*
X145370476Y-87470414D01*
X145370476Y-87470414D02*
X145275238Y-87518033D01*
X149429166Y-88629818D02*
X149429166Y-89344103D01*
X149429166Y-89344103D02*
X149381547Y-89486960D01*
X149381547Y-89486960D02*
X149286309Y-89582199D01*
X149286309Y-89582199D02*
X149143452Y-89629818D01*
X149143452Y-89629818D02*
X149048214Y-89629818D01*
X149857738Y-88725056D02*
X149905357Y-88677437D01*
X149905357Y-88677437D02*
X150000595Y-88629818D01*
X150000595Y-88629818D02*
X150238690Y-88629818D01*
X150238690Y-88629818D02*
X150333928Y-88677437D01*
X150333928Y-88677437D02*
X150381547Y-88725056D01*
X150381547Y-88725056D02*
X150429166Y-88820294D01*
X150429166Y-88820294D02*
X150429166Y-88915532D01*
X150429166Y-88915532D02*
X150381547Y-89058389D01*
X150381547Y-89058389D02*
X149810119Y-89629818D01*
X149810119Y-89629818D02*
X150429166Y-89629818D01*
%TO.C,J1*%
D11*
X142375000Y-90012500D02*
X156875000Y-90012500D01*
X142375000Y-92762500D02*
X142375000Y-90012500D01*
X142375000Y-97212500D02*
X142375000Y-96912500D01*
X156875000Y-90012500D02*
X156875000Y-92762500D01*
X156875000Y-96912500D02*
X156875000Y-97212500D01*
X156875000Y-97212500D02*
X142375000Y-97212500D01*
D12*
X146125000Y-89262500D02*
G75*
G02*
X145925000Y-89262500I-100000J0D01*
G01*
X145925000Y-89262500D02*
G75*
G02*
X146125000Y-89262500I100000J0D01*
G01*
%TO.C,J2*%
D13*
X145952500Y-83535000D02*
X145952500Y-83275000D01*
X145952500Y-87585000D02*
X145952500Y-85815000D01*
X145952500Y-87585000D02*
X146332500Y-87585000D01*
X153572500Y-83275000D02*
X153572500Y-83535000D01*
X153572500Y-85815000D02*
X153572500Y-87585000D01*
X153572500Y-87585000D02*
X153192500Y-87585000D01*
%TD*%
M02*
