%TF.GenerationSoftware,KiCad,Pcbnew,10.0.3*%
%TF.CreationDate,2026-06-26T09:34:41-05:00*%
%TF.ProjectId,usb_daughter,7573625f-6461-4756-9768-7465722e6b69,rev?*%
%TF.SameCoordinates,Original*%
%TF.FileFunction,Copper,L2,Bot*%
%TF.FilePolarity,Positive*%
%FSLAX46Y46*%
G04 Gerber Fmt 4.6, Leading zero omitted, Abs format (unit mm)*
G04 Created by KiCad (PCBNEW 10.0.3) date 2026-06-26 09:34:41*
%MOMM*%
%LPD*%
G01*
G04 APERTURE LIST*
%TA.AperFunction,ComponentPad*%
%ADD10R,1.428000X1.428000*%
%TD*%
%TA.AperFunction,ComponentPad*%
%ADD11C,1.428000*%
%TD*%
%TA.AperFunction,ComponentPad*%
%ADD12C,3.346000*%
%TD*%
%TA.AperFunction,ViaPad*%
%ADD13C,0.600000*%
%TD*%
%TA.AperFunction,Conductor*%
%ADD14C,0.200000*%
%TD*%
G04 APERTURE END LIST*
D10*
%TO.P,J1,1,VUSB_1*%
%TO.N,Net-(J1-VUSB)*%
X146125000Y-91762500D03*
D11*
%TO.P,J1,2,D-_2*%
%TO.N,Net-(J1-D-)*%
X148625000Y-91762500D03*
%TO.P,J1,3,D+_3*%
%TO.N,Net-(J1-D+)*%
X150625000Y-91762500D03*
%TO.P,J1,4,GND_4*%
%TO.N,Net-(J1-GND)*%
X153125000Y-91762500D03*
D12*
%TO.P,J1,S1,SHIELD_S1*%
X143055000Y-94762500D03*
%TO.P,J1,S2,SHIELD__1_S2*%
X156195000Y-94762500D03*
%TD*%
D13*
%TO.N,Net-(J1-GND)*%
X155250000Y-84750000D03*
%TO.N,Net-(J1-VUSB)*%
X149750000Y-86000000D03*
%TO.N,Net-(J1-D-)*%
X150500000Y-88750000D03*
%TD*%
%TO.N,Net-(J1-VUSB)*%
D14*
X149750000Y-86000000D02*
X146125000Y-89625000D01*
X146125000Y-89625000D02*
X146125000Y-91762500D01*
%TO.N,Net-(J1-D-)*%
X148625000Y-90625000D02*
X148625000Y-91762500D01*
X150500000Y-88750000D02*
X148625000Y-90625000D01*
%TD*%
%TA.AperFunction,Conductor*%
%TO.N,Net-(J1-GND)*%
G36*
X160254043Y-83750765D02*
G01*
X160502895Y-83767075D01*
X160518953Y-83769190D01*
X160726105Y-83810395D01*
X160759535Y-83817045D01*
X160775202Y-83821243D01*
X160944947Y-83878863D01*
X161007481Y-83900091D01*
X161022458Y-83906294D01*
X161231799Y-84009529D01*
X161242460Y-84014787D01*
X161256506Y-84022897D01*
X161460460Y-84159174D01*
X161473329Y-84169048D01*
X161657749Y-84330781D01*
X161669218Y-84342250D01*
X161830951Y-84526670D01*
X161840825Y-84539539D01*
X161977102Y-84743493D01*
X161985212Y-84757539D01*
X162093702Y-84977534D01*
X162099909Y-84992520D01*
X162178756Y-85224797D01*
X162182954Y-85240464D01*
X162230807Y-85481035D01*
X162232925Y-85497116D01*
X162249235Y-85745956D01*
X162249500Y-85754066D01*
X162249500Y-98745933D01*
X162249235Y-98754043D01*
X162232925Y-99002883D01*
X162230807Y-99018964D01*
X162182954Y-99259535D01*
X162178756Y-99275202D01*
X162099909Y-99507479D01*
X162093702Y-99522465D01*
X161985212Y-99742460D01*
X161977102Y-99756506D01*
X161840825Y-99960460D01*
X161830951Y-99973329D01*
X161669218Y-100157749D01*
X161657749Y-100169218D01*
X161473329Y-100330951D01*
X161460460Y-100340825D01*
X161256506Y-100477102D01*
X161242460Y-100485212D01*
X161022465Y-100593702D01*
X161007479Y-100599909D01*
X160775202Y-100678756D01*
X160759535Y-100682954D01*
X160518964Y-100730807D01*
X160502883Y-100732925D01*
X160254043Y-100749235D01*
X160245933Y-100749500D01*
X139004067Y-100749500D01*
X138995957Y-100749235D01*
X138747116Y-100732925D01*
X138731035Y-100730807D01*
X138490464Y-100682954D01*
X138474797Y-100678756D01*
X138242520Y-100599909D01*
X138227534Y-100593702D01*
X138007539Y-100485212D01*
X137993493Y-100477102D01*
X137789539Y-100340825D01*
X137776670Y-100330951D01*
X137592250Y-100169218D01*
X137580781Y-100157749D01*
X137419048Y-99973329D01*
X137409174Y-99960460D01*
X137272897Y-99756506D01*
X137264787Y-99742460D01*
X137259529Y-99731799D01*
X137156294Y-99522458D01*
X137150090Y-99507479D01*
X137071243Y-99275202D01*
X137067045Y-99259535D01*
X137056757Y-99207816D01*
X137019190Y-99018953D01*
X137017075Y-99002895D01*
X137000765Y-98754043D01*
X137000500Y-98745933D01*
X137000500Y-98393713D01*
X137899500Y-98393713D01*
X137899500Y-98606287D01*
X137932754Y-98816243D01*
X137996030Y-99010987D01*
X137998444Y-99018414D01*
X138094951Y-99207820D01*
X138219890Y-99379786D01*
X138370213Y-99530109D01*
X138542179Y-99655048D01*
X138542181Y-99655049D01*
X138542184Y-99655051D01*
X138731588Y-99751557D01*
X138933757Y-99817246D01*
X139143713Y-99850500D01*
X139143714Y-99850500D01*
X139356286Y-99850500D01*
X139356287Y-99850500D01*
X139566243Y-99817246D01*
X139768412Y-99751557D01*
X139957816Y-99655051D01*
X139979789Y-99639086D01*
X140129786Y-99530109D01*
X140129788Y-99530106D01*
X140129792Y-99530104D01*
X140280104Y-99379792D01*
X140280106Y-99379788D01*
X140280109Y-99379786D01*
X140405048Y-99207820D01*
X140405047Y-99207820D01*
X140405051Y-99207816D01*
X140501557Y-99018412D01*
X140567246Y-98816243D01*
X140600500Y-98606287D01*
X140600500Y-98393713D01*
X158649500Y-98393713D01*
X158649500Y-98606287D01*
X158682754Y-98816243D01*
X158746030Y-99010987D01*
X158748444Y-99018414D01*
X158844951Y-99207820D01*
X158969890Y-99379786D01*
X159120213Y-99530109D01*
X159292179Y-99655048D01*
X159292181Y-99655049D01*
X159292184Y-99655051D01*
X159481588Y-99751557D01*
X159683757Y-99817246D01*
X159893713Y-99850500D01*
X159893714Y-99850500D01*
X160106286Y-99850500D01*
X160106287Y-99850500D01*
X160316243Y-99817246D01*
X160518412Y-99751557D01*
X160707816Y-99655051D01*
X160729789Y-99639086D01*
X160879786Y-99530109D01*
X160879788Y-99530106D01*
X160879792Y-99530104D01*
X161030104Y-99379792D01*
X161030106Y-99379788D01*
X161030109Y-99379786D01*
X161155048Y-99207820D01*
X161155047Y-99207820D01*
X161155051Y-99207816D01*
X161251557Y-99018412D01*
X161317246Y-98816243D01*
X161350500Y-98606287D01*
X161350500Y-98393713D01*
X161317246Y-98183757D01*
X161251557Y-97981588D01*
X161155051Y-97792184D01*
X161155049Y-97792181D01*
X161155048Y-97792179D01*
X161030109Y-97620213D01*
X160879786Y-97469890D01*
X160707820Y-97344951D01*
X160518414Y-97248444D01*
X160518413Y-97248443D01*
X160518412Y-97248443D01*
X160316243Y-97182754D01*
X160316241Y-97182753D01*
X160316240Y-97182753D01*
X160154957Y-97157208D01*
X160106287Y-97149500D01*
X159893713Y-97149500D01*
X159845042Y-97157208D01*
X159683760Y-97182753D01*
X159481585Y-97248444D01*
X159292179Y-97344951D01*
X159120213Y-97469890D01*
X158969890Y-97620213D01*
X158844951Y-97792179D01*
X158748444Y-97981585D01*
X158682753Y-98183760D01*
X158649500Y-98393713D01*
X140600500Y-98393713D01*
X140567246Y-98183757D01*
X140501557Y-97981588D01*
X140405051Y-97792184D01*
X140405049Y-97792181D01*
X140405048Y-97792179D01*
X140280109Y-97620213D01*
X140129786Y-97469890D01*
X139957820Y-97344951D01*
X139768414Y-97248444D01*
X139768413Y-97248443D01*
X139768412Y-97248443D01*
X139566243Y-97182754D01*
X139566241Y-97182753D01*
X139566240Y-97182753D01*
X139404957Y-97157208D01*
X139356287Y-97149500D01*
X139143713Y-97149500D01*
X139095042Y-97157208D01*
X138933760Y-97182753D01*
X138731585Y-97248444D01*
X138542179Y-97344951D01*
X138370213Y-97469890D01*
X138219890Y-97620213D01*
X138094951Y-97792179D01*
X137998444Y-97981585D01*
X137932753Y-98183760D01*
X137899500Y-98393713D01*
X137000500Y-98393713D01*
X137000500Y-94620073D01*
X140882000Y-94620073D01*
X140882000Y-94904926D01*
X140919178Y-95187330D01*
X140919181Y-95187343D01*
X140992905Y-95462489D01*
X141101911Y-95725652D01*
X141101916Y-95725663D01*
X141244338Y-95972344D01*
X141351692Y-96112251D01*
X141351693Y-96112251D01*
X142072173Y-95391771D01*
X142166388Y-95521446D01*
X142296054Y-95651112D01*
X142425727Y-95745325D01*
X141705247Y-96465805D01*
X141705247Y-96465806D01*
X141845150Y-96573157D01*
X142091836Y-96715583D01*
X142091847Y-96715588D01*
X142355010Y-96824594D01*
X142630156Y-96898318D01*
X142630169Y-96898321D01*
X142912573Y-96935500D01*
X143197427Y-96935500D01*
X143479830Y-96898321D01*
X143479843Y-96898318D01*
X143754989Y-96824594D01*
X144018152Y-96715588D01*
X144018163Y-96715583D01*
X144264837Y-96573165D01*
X144264845Y-96573159D01*
X144404751Y-96465805D01*
X143684271Y-95745325D01*
X143813946Y-95651112D01*
X143943612Y-95521446D01*
X144037825Y-95391771D01*
X144758305Y-96112251D01*
X144865659Y-95972345D01*
X144865665Y-95972337D01*
X145008083Y-95725663D01*
X145008088Y-95725652D01*
X145117094Y-95462489D01*
X145190818Y-95187343D01*
X145190821Y-95187330D01*
X145228000Y-94904926D01*
X145228000Y-94620073D01*
X154022000Y-94620073D01*
X154022000Y-94904926D01*
X154059178Y-95187330D01*
X154059181Y-95187343D01*
X154132905Y-95462489D01*
X154241911Y-95725652D01*
X154241916Y-95725663D01*
X154384338Y-95972344D01*
X154491692Y-96112251D01*
X154491693Y-96112251D01*
X155212173Y-95391771D01*
X155306388Y-95521446D01*
X155436054Y-95651112D01*
X155565727Y-95745325D01*
X154845247Y-96465805D01*
X154845247Y-96465806D01*
X154985150Y-96573157D01*
X155231836Y-96715583D01*
X155231847Y-96715588D01*
X155495010Y-96824594D01*
X155770156Y-96898318D01*
X155770169Y-96898321D01*
X156052573Y-96935500D01*
X156337427Y-96935500D01*
X156619830Y-96898321D01*
X156619843Y-96898318D01*
X156894989Y-96824594D01*
X157158152Y-96715588D01*
X157158163Y-96715583D01*
X157404837Y-96573165D01*
X157404845Y-96573159D01*
X157544751Y-96465805D01*
X156824271Y-95745325D01*
X156953946Y-95651112D01*
X157083612Y-95521446D01*
X157177825Y-95391771D01*
X157898305Y-96112251D01*
X158005659Y-95972345D01*
X158005665Y-95972337D01*
X158148083Y-95725663D01*
X158148088Y-95725652D01*
X158257094Y-95462489D01*
X158330818Y-95187343D01*
X158330821Y-95187330D01*
X158368000Y-94904926D01*
X158368000Y-94620073D01*
X158330821Y-94337669D01*
X158330818Y-94337656D01*
X158257094Y-94062510D01*
X158148088Y-93799347D01*
X158148083Y-93799336D01*
X158005657Y-93552650D01*
X157898305Y-93412747D01*
X157177825Y-94133227D01*
X157083612Y-94003554D01*
X156953946Y-93873888D01*
X156824271Y-93779673D01*
X157544751Y-93059193D01*
X157544751Y-93059192D01*
X157404844Y-92951838D01*
X157158163Y-92809416D01*
X157158152Y-92809411D01*
X156894989Y-92700405D01*
X156619843Y-92626681D01*
X156619830Y-92626678D01*
X156337427Y-92589500D01*
X156052573Y-92589500D01*
X155770169Y-92626678D01*
X155770156Y-92626681D01*
X155495010Y-92700405D01*
X155231847Y-92809411D01*
X155231836Y-92809416D01*
X154985155Y-92951838D01*
X154845247Y-93059192D01*
X154845247Y-93059193D01*
X155565728Y-93779674D01*
X155436054Y-93873888D01*
X155306388Y-94003554D01*
X155212174Y-94133227D01*
X154491693Y-93412747D01*
X154491692Y-93412747D01*
X154384338Y-93552655D01*
X154241916Y-93799336D01*
X154241911Y-93799347D01*
X154132905Y-94062510D01*
X154059181Y-94337656D01*
X154059178Y-94337669D01*
X154022000Y-94620073D01*
X145228000Y-94620073D01*
X145190821Y-94337669D01*
X145190818Y-94337656D01*
X145117094Y-94062510D01*
X145008088Y-93799347D01*
X145008083Y-93799336D01*
X144865657Y-93552650D01*
X144758305Y-93412747D01*
X144037825Y-94133227D01*
X143943612Y-94003554D01*
X143813946Y-93873888D01*
X143684271Y-93779673D01*
X144404751Y-93059193D01*
X144404751Y-93059192D01*
X144264844Y-92951838D01*
X144018163Y-92809416D01*
X144018152Y-92809411D01*
X143754989Y-92700405D01*
X143479843Y-92626681D01*
X143479830Y-92626678D01*
X143197427Y-92589500D01*
X142912573Y-92589500D01*
X142630169Y-92626678D01*
X142630156Y-92626681D01*
X142355010Y-92700405D01*
X142091847Y-92809411D01*
X142091836Y-92809416D01*
X141845155Y-92951838D01*
X141705247Y-93059192D01*
X141705247Y-93059193D01*
X142425728Y-93779674D01*
X142296054Y-93873888D01*
X142166388Y-94003554D01*
X142072174Y-94133227D01*
X141351693Y-93412747D01*
X141351692Y-93412747D01*
X141244338Y-93552655D01*
X141101916Y-93799336D01*
X141101911Y-93799347D01*
X140992905Y-94062510D01*
X140919181Y-94337656D01*
X140919178Y-94337669D01*
X140882000Y-94620073D01*
X137000500Y-94620073D01*
X137000500Y-91000635D01*
X144910500Y-91000635D01*
X144910500Y-92524370D01*
X144910501Y-92524376D01*
X144916908Y-92583983D01*
X144967202Y-92718828D01*
X144967206Y-92718835D01*
X145053452Y-92834044D01*
X145053455Y-92834047D01*
X145168664Y-92920293D01*
X145168671Y-92920297D01*
X145303517Y-92970591D01*
X145303516Y-92970591D01*
X145310444Y-92971335D01*
X145363127Y-92977000D01*
X146886872Y-92976999D01*
X146946483Y-92970591D01*
X147081331Y-92920296D01*
X147196546Y-92834046D01*
X147282796Y-92718831D01*
X147333091Y-92583983D01*
X147339500Y-92524373D01*
X147339499Y-92431223D01*
X147359183Y-92364188D01*
X147411986Y-92318432D01*
X147481145Y-92308488D01*
X147544701Y-92337512D01*
X147573982Y-92374928D01*
X147586134Y-92398775D01*
X147586267Y-92399036D01*
X147698632Y-92553693D01*
X147833807Y-92688868D01*
X147988464Y-92801233D01*
X148158794Y-92888021D01*
X148340604Y-92947095D01*
X148411408Y-92958309D01*
X148529412Y-92977000D01*
X148529417Y-92977000D01*
X148720588Y-92977000D01*
X148825479Y-92960386D01*
X148909396Y-92947095D01*
X149091206Y-92888021D01*
X149261536Y-92801233D01*
X149416193Y-92688868D01*
X149537319Y-92567742D01*
X149598642Y-92534257D01*
X149668334Y-92539241D01*
X149712681Y-92567742D01*
X149833807Y-92688868D01*
X149988464Y-92801233D01*
X150158794Y-92888021D01*
X150340604Y-92947095D01*
X150411408Y-92958309D01*
X150529412Y-92977000D01*
X150529417Y-92977000D01*
X150720588Y-92977000D01*
X150825479Y-92960386D01*
X150909396Y-92947095D01*
X151091206Y-92888021D01*
X151261536Y-92801233D01*
X151416193Y-92688868D01*
X151551368Y-92553693D01*
X151663733Y-92399036D01*
X151750521Y-92228706D01*
X151757331Y-92207744D01*
X151796766Y-92150070D01*
X151861124Y-92122871D01*
X151929971Y-92134783D01*
X151981448Y-92182026D01*
X151993193Y-92207744D01*
X151999940Y-92228511D01*
X151999942Y-92228514D01*
X152086696Y-92398779D01*
X152107092Y-92426851D01*
X152107093Y-92426852D01*
X152674697Y-91859248D01*
X152696349Y-91940053D01*
X152756909Y-92044946D01*
X152842554Y-92130591D01*
X152947447Y-92191151D01*
X153028250Y-92212802D01*
X152460646Y-92780405D01*
X152488724Y-92800805D01*
X152658985Y-92887557D01*
X152658988Y-92887559D01*
X152840717Y-92946606D01*
X153029457Y-92976500D01*
X153220543Y-92976500D01*
X153409280Y-92946606D01*
X153409283Y-92946606D01*
X153591011Y-92887559D01*
X153591014Y-92887557D01*
X153761275Y-92800805D01*
X153789351Y-92780406D01*
X153789351Y-92780405D01*
X153221750Y-92212802D01*
X153302553Y-92191151D01*
X153407446Y-92130591D01*
X153493091Y-92044946D01*
X153553651Y-91940053D01*
X153575302Y-91859249D01*
X154142905Y-92426851D01*
X154142906Y-92426851D01*
X154163305Y-92398775D01*
X154250057Y-92228514D01*
X154250059Y-92228511D01*
X154309106Y-92046783D01*
X154309106Y-92046780D01*
X154339000Y-91858043D01*
X154339000Y-91666956D01*
X154309106Y-91478219D01*
X154309106Y-91478216D01*
X154250059Y-91296488D01*
X154250057Y-91296485D01*
X154163305Y-91126224D01*
X154142905Y-91098147D01*
X154142905Y-91098146D01*
X153575302Y-91665749D01*
X153553651Y-91584947D01*
X153493091Y-91480054D01*
X153407446Y-91394409D01*
X153302553Y-91333849D01*
X153221749Y-91312197D01*
X153789352Y-90744593D01*
X153789351Y-90744592D01*
X153761279Y-90724196D01*
X153591014Y-90637442D01*
X153591011Y-90637440D01*
X153409282Y-90578393D01*
X153220543Y-90548500D01*
X153029457Y-90548500D01*
X152840719Y-90578393D01*
X152840716Y-90578393D01*
X152658988Y-90637440D01*
X152658985Y-90637441D01*
X152488721Y-90724196D01*
X152460647Y-90744592D01*
X152460647Y-90744593D01*
X153028251Y-91312197D01*
X152947447Y-91333849D01*
X152842554Y-91394409D01*
X152756909Y-91480054D01*
X152696349Y-91584947D01*
X152674697Y-91665751D01*
X152107093Y-91098147D01*
X152107092Y-91098147D01*
X152086696Y-91126221D01*
X151999941Y-91296485D01*
X151999938Y-91296493D01*
X151993192Y-91317257D01*
X151953754Y-91374932D01*
X151889395Y-91402129D01*
X151820549Y-91390214D01*
X151769074Y-91342969D01*
X151757331Y-91317254D01*
X151750585Y-91296493D01*
X151750521Y-91296294D01*
X151663733Y-91125964D01*
X151551368Y-90971307D01*
X151416193Y-90836132D01*
X151261536Y-90723767D01*
X151091206Y-90636979D01*
X150909396Y-90577905D01*
X150909394Y-90577904D01*
X150909392Y-90577904D01*
X150720588Y-90548000D01*
X150720583Y-90548000D01*
X150529417Y-90548000D01*
X150529412Y-90548000D01*
X150340607Y-90577904D01*
X150158791Y-90636980D01*
X149988463Y-90723767D01*
X149959799Y-90744593D01*
X149833807Y-90836132D01*
X149833805Y-90836134D01*
X149833804Y-90836134D01*
X149712681Y-90957258D01*
X149704735Y-90961596D01*
X149699310Y-90968844D01*
X149674550Y-90978078D01*
X149651358Y-90990743D01*
X149642328Y-90990097D01*
X149633846Y-90993261D01*
X149608025Y-90987644D01*
X149581666Y-90985759D01*
X149572612Y-90979940D01*
X149565573Y-90978409D01*
X149537319Y-90957258D01*
X149427328Y-90847267D01*
X149393843Y-90785944D01*
X149398827Y-90716252D01*
X149427326Y-90671908D01*
X150514662Y-89584572D01*
X150575983Y-89551089D01*
X150578150Y-89550638D01*
X150636085Y-89539113D01*
X150733497Y-89519737D01*
X150879179Y-89459394D01*
X151010289Y-89371789D01*
X151121789Y-89260289D01*
X151209394Y-89129179D01*
X151269737Y-88983497D01*
X151300500Y-88828842D01*
X151300500Y-88671158D01*
X151300500Y-88671155D01*
X151300499Y-88671153D01*
X151269738Y-88516510D01*
X151269738Y-88516508D01*
X151269737Y-88516503D01*
X151269735Y-88516498D01*
X151209397Y-88370827D01*
X151209390Y-88370814D01*
X151121789Y-88239711D01*
X151121786Y-88239707D01*
X151010292Y-88128213D01*
X151010288Y-88128210D01*
X150879185Y-88040609D01*
X150879172Y-88040602D01*
X150733501Y-87980264D01*
X150733489Y-87980261D01*
X150578845Y-87949500D01*
X150578842Y-87949500D01*
X150421158Y-87949500D01*
X150421155Y-87949500D01*
X150266510Y-87980261D01*
X150266498Y-87980264D01*
X150120827Y-88040602D01*
X150120814Y-88040609D01*
X149989711Y-88128210D01*
X149989707Y-88128213D01*
X149878213Y-88239707D01*
X149878210Y-88239711D01*
X149790609Y-88370814D01*
X149790602Y-88370827D01*
X149730264Y-88516498D01*
X149730261Y-88516508D01*
X149699361Y-88671850D01*
X149666976Y-88733761D01*
X149665425Y-88735339D01*
X148144481Y-90256282D01*
X148144479Y-90256285D01*
X148094361Y-90343094D01*
X148094359Y-90343096D01*
X148065425Y-90393209D01*
X148065424Y-90393210D01*
X148065423Y-90393215D01*
X148024499Y-90545943D01*
X148024499Y-90545945D01*
X148024499Y-90634405D01*
X148004814Y-90701444D01*
X147973386Y-90734721D01*
X147875045Y-90806171D01*
X147833804Y-90836134D01*
X147698634Y-90971304D01*
X147698634Y-90971305D01*
X147698632Y-90971307D01*
X147677324Y-91000635D01*
X147586265Y-91125966D01*
X147573983Y-91150071D01*
X147526008Y-91200867D01*
X147458187Y-91217661D01*
X147392052Y-91195123D01*
X147348601Y-91140407D01*
X147339499Y-91093775D01*
X147339499Y-91000629D01*
X147339498Y-91000623D01*
X147339497Y-91000616D01*
X147333091Y-90941017D01*
X147293971Y-90836132D01*
X147282797Y-90806171D01*
X147282793Y-90806164D01*
X147196547Y-90690955D01*
X147196544Y-90690952D01*
X147081335Y-90604706D01*
X147081328Y-90604702D01*
X146946482Y-90554408D01*
X146946483Y-90554408D01*
X146886883Y-90548001D01*
X146886881Y-90548000D01*
X146886873Y-90548000D01*
X146886865Y-90548000D01*
X146849500Y-90548000D01*
X146782461Y-90528315D01*
X146736706Y-90475511D01*
X146725500Y-90424000D01*
X146725500Y-89925097D01*
X146745185Y-89858058D01*
X146761819Y-89837416D01*
X148228421Y-88370814D01*
X149764662Y-86834572D01*
X149825983Y-86801089D01*
X149828150Y-86800638D01*
X149886085Y-86789113D01*
X149983497Y-86769737D01*
X150129179Y-86709394D01*
X150260289Y-86621789D01*
X150371789Y-86510289D01*
X150459394Y-86379179D01*
X150519737Y-86233497D01*
X150550500Y-86078842D01*
X150550500Y-85921158D01*
X150545041Y-85893713D01*
X158649500Y-85893713D01*
X158649500Y-86106287D01*
X158682754Y-86316243D01*
X158745803Y-86510288D01*
X158748444Y-86518414D01*
X158844951Y-86707820D01*
X158969890Y-86879786D01*
X159120213Y-87030109D01*
X159292179Y-87155048D01*
X159292181Y-87155049D01*
X159292184Y-87155051D01*
X159481588Y-87251557D01*
X159683757Y-87317246D01*
X159893713Y-87350500D01*
X159893714Y-87350500D01*
X160106286Y-87350500D01*
X160106287Y-87350500D01*
X160316243Y-87317246D01*
X160518412Y-87251557D01*
X160707816Y-87155051D01*
X160729789Y-87139086D01*
X160879786Y-87030109D01*
X160879788Y-87030106D01*
X160879792Y-87030104D01*
X161030104Y-86879792D01*
X161030106Y-86879788D01*
X161030109Y-86879786D01*
X161153902Y-86709397D01*
X161155051Y-86707816D01*
X161251557Y-86518412D01*
X161317246Y-86316243D01*
X161350500Y-86106287D01*
X161350500Y-85893713D01*
X161317246Y-85683757D01*
X161251557Y-85481588D01*
X161155051Y-85292184D01*
X161155049Y-85292181D01*
X161155048Y-85292179D01*
X161030109Y-85120213D01*
X160879786Y-84969890D01*
X160707820Y-84844951D01*
X160518414Y-84748444D01*
X160518413Y-84748443D01*
X160518412Y-84748443D01*
X160316243Y-84682754D01*
X160316241Y-84682753D01*
X160316240Y-84682753D01*
X160154957Y-84657208D01*
X160106287Y-84649500D01*
X159893713Y-84649500D01*
X159845042Y-84657208D01*
X159683760Y-84682753D01*
X159683757Y-84682754D01*
X159496823Y-84743493D01*
X159481585Y-84748444D01*
X159292179Y-84844951D01*
X159120213Y-84969890D01*
X158969890Y-85120213D01*
X158844951Y-85292179D01*
X158748444Y-85481585D01*
X158682753Y-85683760D01*
X158672262Y-85750000D01*
X158649500Y-85893713D01*
X150545041Y-85893713D01*
X150519737Y-85766503D01*
X150519735Y-85766498D01*
X150459397Y-85620827D01*
X150459390Y-85620814D01*
X150371789Y-85489711D01*
X150371786Y-85489707D01*
X150260292Y-85378213D01*
X150260288Y-85378210D01*
X150129185Y-85290609D01*
X150129172Y-85290602D01*
X149983501Y-85230264D01*
X149983489Y-85230261D01*
X149828845Y-85199500D01*
X149828842Y-85199500D01*
X149671158Y-85199500D01*
X149671155Y-85199500D01*
X149516510Y-85230261D01*
X149516498Y-85230264D01*
X149370827Y-85290602D01*
X149370814Y-85290609D01*
X149239711Y-85378210D01*
X149239707Y-85378213D01*
X149128213Y-85489707D01*
X149128210Y-85489711D01*
X149040609Y-85620814D01*
X149040602Y-85620827D01*
X148980264Y-85766498D01*
X148980261Y-85766508D01*
X148949361Y-85921850D01*
X148916976Y-85983761D01*
X148915425Y-85985339D01*
X145644481Y-89256282D01*
X145644479Y-89256285D01*
X145594361Y-89343094D01*
X145594359Y-89343096D01*
X145565425Y-89393209D01*
X145565424Y-89393210D01*
X145565423Y-89393215D01*
X145524499Y-89545943D01*
X145524499Y-89545945D01*
X145524499Y-89714046D01*
X145524500Y-89714059D01*
X145524500Y-90424000D01*
X145504815Y-90491039D01*
X145452011Y-90536794D01*
X145400503Y-90548000D01*
X145363131Y-90548000D01*
X145363123Y-90548001D01*
X145303516Y-90554408D01*
X145168671Y-90604702D01*
X145168664Y-90604706D01*
X145053455Y-90690952D01*
X145053452Y-90690955D01*
X144967206Y-90806164D01*
X144967202Y-90806171D01*
X144916908Y-90941017D01*
X144911292Y-90993261D01*
X144910501Y-91000623D01*
X144910500Y-91000635D01*
X137000500Y-91000635D01*
X137000500Y-85893713D01*
X137899500Y-85893713D01*
X137899500Y-86106287D01*
X137932754Y-86316243D01*
X137995803Y-86510288D01*
X137998444Y-86518414D01*
X138094951Y-86707820D01*
X138219890Y-86879786D01*
X138370213Y-87030109D01*
X138542179Y-87155048D01*
X138542181Y-87155049D01*
X138542184Y-87155051D01*
X138731588Y-87251557D01*
X138933757Y-87317246D01*
X139143713Y-87350500D01*
X139143714Y-87350500D01*
X139356286Y-87350500D01*
X139356287Y-87350500D01*
X139566243Y-87317246D01*
X139768412Y-87251557D01*
X139957816Y-87155051D01*
X139979789Y-87139086D01*
X140129786Y-87030109D01*
X140129788Y-87030106D01*
X140129792Y-87030104D01*
X140280104Y-86879792D01*
X140280106Y-86879788D01*
X140280109Y-86879786D01*
X140403902Y-86709397D01*
X140405051Y-86707816D01*
X140501557Y-86518412D01*
X140567246Y-86316243D01*
X140600500Y-86106287D01*
X140600500Y-85893713D01*
X140567246Y-85683757D01*
X140501557Y-85481588D01*
X140405051Y-85292184D01*
X140405049Y-85292181D01*
X140405048Y-85292179D01*
X140280109Y-85120213D01*
X140129786Y-84969890D01*
X139957820Y-84844951D01*
X139768414Y-84748444D01*
X139768413Y-84748443D01*
X139768412Y-84748443D01*
X139566243Y-84682754D01*
X139566241Y-84682753D01*
X139566240Y-84682753D01*
X139404957Y-84657208D01*
X139356287Y-84649500D01*
X139143713Y-84649500D01*
X139095042Y-84657208D01*
X138933760Y-84682753D01*
X138933757Y-84682754D01*
X138746823Y-84743493D01*
X138731585Y-84748444D01*
X138542179Y-84844951D01*
X138370213Y-84969890D01*
X138219890Y-85120213D01*
X138094951Y-85292179D01*
X137998444Y-85481585D01*
X137932753Y-85683760D01*
X137922262Y-85750000D01*
X137899500Y-85893713D01*
X137000500Y-85893713D01*
X137000500Y-85754066D01*
X137000765Y-85745956D01*
X137004819Y-85684108D01*
X137017075Y-85497102D01*
X137019190Y-85481048D01*
X137067045Y-85240462D01*
X137071243Y-85224797D01*
X137106746Y-85120208D01*
X137150093Y-84992512D01*
X137156291Y-84977547D01*
X137264790Y-84757533D01*
X137272897Y-84743493D01*
X137409174Y-84539539D01*
X137419039Y-84526681D01*
X137580786Y-84342244D01*
X137592244Y-84330786D01*
X137776681Y-84169039D01*
X137789534Y-84159177D01*
X137993493Y-84022897D01*
X138007533Y-84014790D01*
X138227547Y-83906291D01*
X138242512Y-83900093D01*
X138406762Y-83844337D01*
X138474797Y-83821243D01*
X138490464Y-83817045D01*
X138731048Y-83769190D01*
X138747102Y-83767075D01*
X138995957Y-83750765D01*
X139004067Y-83750500D01*
X139065892Y-83750500D01*
X160184108Y-83750500D01*
X160245933Y-83750500D01*
X160254043Y-83750765D01*
G37*
%TD.AperFunction*%
%TD*%
M02*
