M48
; DRILL file {KiCad 8.0.9-8.0.9-0~ubuntu24.04.1} date 2026-05-17T19:54:18-0500
; FORMAT={-:-/ absolute / inch / decimal}
; #@! TF.CreationDate,2026-05-17T19:54:18-05:00
; #@! TF.GenerationSoftware,Kicad,Pcbnew,8.0.9-8.0.9-0~ubuntu24.04.1
; #@! TF.FileFunction,Plated,1,2,PTH
FMAT,2
INCH
; #@! TA.AperFunction,Plated,PTH,ViaDrill
T1C0.0118
; #@! TA.AperFunction,Plated,PTH,ComponentDrill
T2C0.0236
; #@! TA.AperFunction,Plated,PTH,ComponentDrill
T3C0.0276
; #@! TA.AperFunction,Plated,PTH,ComponentDrill
T4C0.0295
; #@! TA.AperFunction,Plated,PTH,ComponentDrill
T5C0.0315
; #@! TA.AperFunction,Plated,PTH,ComponentDrill
T6C0.0394
; #@! TA.AperFunction,Plated,PTH,ComponentDrill
T7C0.0512
%
G90
G05
T1
X5.325Y-3.075
X5.35Y-3.15
X5.4Y-3.225
X5.45Y-2.85
X5.6Y-2.65
X5.85Y-3.025
X6.025Y-2.825
T2
X6.6Y-3.8591
X6.6Y-3.9181
X7.55Y-3.4591
X7.55Y-3.5181
T3
X6.54Y-2.38
X6.84Y-2.38
T4
X7.325Y-2.375
X7.375Y-2.375
X7.425Y-2.375
T5
X6.75Y-3.8031
X6.75Y-4.0
X7.7Y-3.4016
X7.7Y-3.5984
T6
X4.14Y-2.36
X4.24Y-2.36
X4.34Y-2.36
X4.44Y-2.36
X4.54Y-2.36
X4.64Y-2.36
X4.74Y-2.36
X4.84Y-2.36
X4.94Y-2.36
X5.04Y-2.36
X5.575Y-3.525
X5.575Y-3.625
X5.675Y-3.525
X5.675Y-3.625
X5.775Y-3.525
X5.775Y-3.625
X5.8Y-2.55
X5.8Y-3.25
X5.875Y-3.525
X5.875Y-3.625
X5.9Y-2.55
X5.9Y-3.25
X5.975Y-3.525
X5.975Y-3.625
X6.0Y-2.55
X6.0Y-3.25
X6.075Y-3.525
X6.075Y-3.625
X6.075Y-3.8748
X6.075Y-3.9748
X6.1Y-2.55
X6.1Y-3.25
X6.175Y-3.525
X6.175Y-3.625
X6.2Y-2.55
X6.2Y-3.25
X6.275Y-3.525
X6.275Y-3.625
X6.3Y-2.55
X6.3Y-3.25
X6.4Y-2.55
X6.4Y-3.25
X6.5Y-2.55
X6.5Y-3.25
X6.5Y-3.5
X6.6Y-2.55
X6.6Y-3.25
X6.7Y-2.55
X6.7Y-3.25
X6.74Y-3.4369
X6.74Y-3.62
X6.8Y-2.55
X6.8Y-3.25
X6.84Y-3.4369
X6.84Y-3.62
X6.9Y-2.55
X6.9Y-3.25
X6.94Y-3.4369
X6.94Y-3.62
X6.95Y-3.8
X6.95Y-4.0
X7.0Y-2.55
X7.0Y-3.25
X7.025Y-2.375
X7.05Y-3.8
X7.05Y-4.0
X7.1Y-2.55
X7.1Y-3.25
X7.125Y-2.375
X7.15Y-3.8
X7.15Y-4.0
X7.2Y-2.55
X7.2Y-3.25
X7.3Y-2.55
X7.3Y-3.25
X7.4Y-2.55
X7.4Y-3.25
X7.5Y-2.55
X7.5Y-3.25
X7.6Y-2.55
X7.6Y-3.25
X7.7Y-2.55
X7.7Y-3.25
T7
X7.55Y-3.8
X7.55Y-4.0
M30
