%TF.GenerationSoftware,KiCad,Pcbnew,8.0.9-8.0.9-0~ubuntu24.04.1*%
%TF.CreationDate,2026-05-17T19:54:16-05:00*%
%TF.ProjectId,texteditor,74657874-6564-4697-946f-722e6b696361,rev?*%
%TF.SameCoordinates,Original*%
%TF.FileFunction,Legend,Top*%
%TF.FilePolarity,Positive*%
%FSLAX46Y46*%
G04 Gerber Fmt 4.6, Leading zero omitted, Abs format (unit mm)*
G04 Created by KiCad (PCBNEW 8.0.9-8.0.9-0~ubuntu24.04.1) date 2026-05-17 19:54:16*
%MOMM*%
%LPD*%
G01*
G04 APERTURE LIST*
%ADD10C,0.100000*%
%ADD11C,0.150000*%
%ADD12C,0.120000*%
G04 APERTURE END LIST*
D10*
X166943693Y-91376038D02*
X166848455Y-91328419D01*
X166848455Y-91328419D02*
X166705598Y-91328419D01*
X166705598Y-91328419D02*
X166562741Y-91376038D01*
X166562741Y-91376038D02*
X166467503Y-91471276D01*
X166467503Y-91471276D02*
X166419884Y-91566514D01*
X166419884Y-91566514D02*
X166372265Y-91756990D01*
X166372265Y-91756990D02*
X166372265Y-91899847D01*
X166372265Y-91899847D02*
X166419884Y-92090323D01*
X166419884Y-92090323D02*
X166467503Y-92185561D01*
X166467503Y-92185561D02*
X166562741Y-92280800D01*
X166562741Y-92280800D02*
X166705598Y-92328419D01*
X166705598Y-92328419D02*
X166800836Y-92328419D01*
X166800836Y-92328419D02*
X166943693Y-92280800D01*
X166943693Y-92280800D02*
X166991312Y-92233180D01*
X166991312Y-92233180D02*
X166991312Y-91899847D01*
X166991312Y-91899847D02*
X166800836Y-91899847D01*
X167419884Y-92328419D02*
X167419884Y-91328419D01*
X167419884Y-91328419D02*
X167991312Y-92328419D01*
X167991312Y-92328419D02*
X167991312Y-91328419D01*
X168467503Y-92328419D02*
X168467503Y-91328419D01*
X168467503Y-91328419D02*
X168705598Y-91328419D01*
X168705598Y-91328419D02*
X168848455Y-91376038D01*
X168848455Y-91376038D02*
X168943693Y-91471276D01*
X168943693Y-91471276D02*
X168991312Y-91566514D01*
X168991312Y-91566514D02*
X169038931Y-91756990D01*
X169038931Y-91756990D02*
X169038931Y-91899847D01*
X169038931Y-91899847D02*
X168991312Y-92090323D01*
X168991312Y-92090323D02*
X168943693Y-92185561D01*
X168943693Y-92185561D02*
X168848455Y-92280800D01*
X168848455Y-92280800D02*
X168705598Y-92328419D01*
X168705598Y-92328419D02*
X168467503Y-92328419D01*
X99935312Y-103917180D02*
X99887693Y-103964800D01*
X99887693Y-103964800D02*
X99744836Y-104012419D01*
X99744836Y-104012419D02*
X99649598Y-104012419D01*
X99649598Y-104012419D02*
X99506741Y-103964800D01*
X99506741Y-103964800D02*
X99411503Y-103869561D01*
X99411503Y-103869561D02*
X99363884Y-103774323D01*
X99363884Y-103774323D02*
X99316265Y-103583847D01*
X99316265Y-103583847D02*
X99316265Y-103440990D01*
X99316265Y-103440990D02*
X99363884Y-103250514D01*
X99363884Y-103250514D02*
X99411503Y-103155276D01*
X99411503Y-103155276D02*
X99506741Y-103060038D01*
X99506741Y-103060038D02*
X99649598Y-103012419D01*
X99649598Y-103012419D02*
X99744836Y-103012419D01*
X99744836Y-103012419D02*
X99887693Y-103060038D01*
X99887693Y-103060038D02*
X99935312Y-103107657D01*
X100506741Y-104012419D02*
X100411503Y-103964800D01*
X100411503Y-103964800D02*
X100363884Y-103917180D01*
X100363884Y-103917180D02*
X100316265Y-103821942D01*
X100316265Y-103821942D02*
X100316265Y-103536228D01*
X100316265Y-103536228D02*
X100363884Y-103440990D01*
X100363884Y-103440990D02*
X100411503Y-103393371D01*
X100411503Y-103393371D02*
X100506741Y-103345752D01*
X100506741Y-103345752D02*
X100649598Y-103345752D01*
X100649598Y-103345752D02*
X100744836Y-103393371D01*
X100744836Y-103393371D02*
X100792455Y-103440990D01*
X100792455Y-103440990D02*
X100840074Y-103536228D01*
X100840074Y-103536228D02*
X100840074Y-103821942D01*
X100840074Y-103821942D02*
X100792455Y-103917180D01*
X100792455Y-103917180D02*
X100744836Y-103964800D01*
X100744836Y-103964800D02*
X100649598Y-104012419D01*
X100649598Y-104012419D02*
X100506741Y-104012419D01*
X101697217Y-104012419D02*
X101697217Y-103012419D01*
X101697217Y-103964800D02*
X101601979Y-104012419D01*
X101601979Y-104012419D02*
X101411503Y-104012419D01*
X101411503Y-104012419D02*
X101316265Y-103964800D01*
X101316265Y-103964800D02*
X101268646Y-103917180D01*
X101268646Y-103917180D02*
X101221027Y-103821942D01*
X101221027Y-103821942D02*
X101221027Y-103536228D01*
X101221027Y-103536228D02*
X101268646Y-103440990D01*
X101268646Y-103440990D02*
X101316265Y-103393371D01*
X101316265Y-103393371D02*
X101411503Y-103345752D01*
X101411503Y-103345752D02*
X101601979Y-103345752D01*
X101601979Y-103345752D02*
X101697217Y-103393371D01*
X102554360Y-103964800D02*
X102459122Y-104012419D01*
X102459122Y-104012419D02*
X102268646Y-104012419D01*
X102268646Y-104012419D02*
X102173408Y-103964800D01*
X102173408Y-103964800D02*
X102125789Y-103869561D01*
X102125789Y-103869561D02*
X102125789Y-103488609D01*
X102125789Y-103488609D02*
X102173408Y-103393371D01*
X102173408Y-103393371D02*
X102268646Y-103345752D01*
X102268646Y-103345752D02*
X102459122Y-103345752D01*
X102459122Y-103345752D02*
X102554360Y-103393371D01*
X102554360Y-103393371D02*
X102601979Y-103488609D01*
X102601979Y-103488609D02*
X102601979Y-103583847D01*
X102601979Y-103583847D02*
X102125789Y-103679085D01*
X102935313Y-104012419D02*
X103459122Y-103345752D01*
X102935313Y-103345752D02*
X103459122Y-104012419D01*
X105173408Y-104012419D02*
X104840075Y-103536228D01*
X104601980Y-104012419D02*
X104601980Y-103012419D01*
X104601980Y-103012419D02*
X104982932Y-103012419D01*
X104982932Y-103012419D02*
X105078170Y-103060038D01*
X105078170Y-103060038D02*
X105125789Y-103107657D01*
X105125789Y-103107657D02*
X105173408Y-103202895D01*
X105173408Y-103202895D02*
X105173408Y-103345752D01*
X105173408Y-103345752D02*
X105125789Y-103440990D01*
X105125789Y-103440990D02*
X105078170Y-103488609D01*
X105078170Y-103488609D02*
X104982932Y-103536228D01*
X104982932Y-103536228D02*
X104601980Y-103536228D01*
X105982932Y-103964800D02*
X105887694Y-104012419D01*
X105887694Y-104012419D02*
X105697218Y-104012419D01*
X105697218Y-104012419D02*
X105601980Y-103964800D01*
X105601980Y-103964800D02*
X105554361Y-103869561D01*
X105554361Y-103869561D02*
X105554361Y-103488609D01*
X105554361Y-103488609D02*
X105601980Y-103393371D01*
X105601980Y-103393371D02*
X105697218Y-103345752D01*
X105697218Y-103345752D02*
X105887694Y-103345752D01*
X105887694Y-103345752D02*
X105982932Y-103393371D01*
X105982932Y-103393371D02*
X106030551Y-103488609D01*
X106030551Y-103488609D02*
X106030551Y-103583847D01*
X106030551Y-103583847D02*
X105554361Y-103679085D01*
X106363885Y-103345752D02*
X106601980Y-104012419D01*
X106601980Y-104012419D02*
X106840075Y-103345752D01*
X107411504Y-103012419D02*
X107506742Y-103012419D01*
X107506742Y-103012419D02*
X107601980Y-103060038D01*
X107601980Y-103060038D02*
X107649599Y-103107657D01*
X107649599Y-103107657D02*
X107697218Y-103202895D01*
X107697218Y-103202895D02*
X107744837Y-103393371D01*
X107744837Y-103393371D02*
X107744837Y-103631466D01*
X107744837Y-103631466D02*
X107697218Y-103821942D01*
X107697218Y-103821942D02*
X107649599Y-103917180D01*
X107649599Y-103917180D02*
X107601980Y-103964800D01*
X107601980Y-103964800D02*
X107506742Y-104012419D01*
X107506742Y-104012419D02*
X107411504Y-104012419D01*
X107411504Y-104012419D02*
X107316266Y-103964800D01*
X107316266Y-103964800D02*
X107268647Y-103917180D01*
X107268647Y-103917180D02*
X107221028Y-103821942D01*
X107221028Y-103821942D02*
X107173409Y-103631466D01*
X107173409Y-103631466D02*
X107173409Y-103393371D01*
X107173409Y-103393371D02*
X107221028Y-103202895D01*
X107221028Y-103202895D02*
X107268647Y-103107657D01*
X107268647Y-103107657D02*
X107316266Y-103060038D01*
X107316266Y-103060038D02*
X107411504Y-103012419D01*
X108173409Y-103917180D02*
X108221028Y-103964800D01*
X108221028Y-103964800D02*
X108173409Y-104012419D01*
X108173409Y-104012419D02*
X108125790Y-103964800D01*
X108125790Y-103964800D02*
X108173409Y-103917180D01*
X108173409Y-103917180D02*
X108173409Y-104012419D01*
X109173408Y-104012419D02*
X108601980Y-104012419D01*
X108887694Y-104012419D02*
X108887694Y-103012419D01*
X108887694Y-103012419D02*
X108792456Y-103155276D01*
X108792456Y-103155276D02*
X108697218Y-103250514D01*
X108697218Y-103250514D02*
X108601980Y-103298133D01*
X168420074Y-86756419D02*
X167943884Y-86756419D01*
X167943884Y-86756419D02*
X167896265Y-87232609D01*
X167896265Y-87232609D02*
X167943884Y-87184990D01*
X167943884Y-87184990D02*
X168039122Y-87137371D01*
X168039122Y-87137371D02*
X168277217Y-87137371D01*
X168277217Y-87137371D02*
X168372455Y-87184990D01*
X168372455Y-87184990D02*
X168420074Y-87232609D01*
X168420074Y-87232609D02*
X168467693Y-87327847D01*
X168467693Y-87327847D02*
X168467693Y-87565942D01*
X168467693Y-87565942D02*
X168420074Y-87661180D01*
X168420074Y-87661180D02*
X168372455Y-87708800D01*
X168372455Y-87708800D02*
X168277217Y-87756419D01*
X168277217Y-87756419D02*
X168039122Y-87756419D01*
X168039122Y-87756419D02*
X167943884Y-87708800D01*
X167943884Y-87708800D02*
X167896265Y-87661180D01*
X168801027Y-87089752D02*
X169039122Y-87756419D01*
X169039122Y-87756419D02*
X169277217Y-87089752D01*
X177468884Y-62356466D02*
X178230789Y-62356466D01*
X181278884Y-62356466D02*
X182040789Y-62356466D01*
X181659836Y-62737419D02*
X181659836Y-61975514D01*
X108206265Y-62200531D02*
X108206265Y-62391007D01*
X108587217Y-62200531D02*
X108587217Y-62391007D01*
X109015789Y-63200531D02*
X109015789Y-62200531D01*
X110682455Y-63152912D02*
X110587217Y-63200531D01*
X110587217Y-63200531D02*
X110396741Y-63200531D01*
X110396741Y-63200531D02*
X110301503Y-63152912D01*
X110301503Y-63152912D02*
X110253884Y-63105292D01*
X110253884Y-63105292D02*
X110206265Y-63010054D01*
X110206265Y-63010054D02*
X110206265Y-62724340D01*
X110206265Y-62724340D02*
X110253884Y-62629102D01*
X110253884Y-62629102D02*
X110301503Y-62581483D01*
X110301503Y-62581483D02*
X110396741Y-62533864D01*
X110396741Y-62533864D02*
X110587217Y-62533864D01*
X110587217Y-62533864D02*
X110682455Y-62581483D01*
X111539598Y-63200531D02*
X111539598Y-62676721D01*
X111539598Y-62676721D02*
X111491979Y-62581483D01*
X111491979Y-62581483D02*
X111396741Y-62533864D01*
X111396741Y-62533864D02*
X111206265Y-62533864D01*
X111206265Y-62533864D02*
X111111027Y-62581483D01*
X111539598Y-63152912D02*
X111444360Y-63200531D01*
X111444360Y-63200531D02*
X111206265Y-63200531D01*
X111206265Y-63200531D02*
X111111027Y-63152912D01*
X111111027Y-63152912D02*
X111063408Y-63057673D01*
X111063408Y-63057673D02*
X111063408Y-62962435D01*
X111063408Y-62962435D02*
X111111027Y-62867197D01*
X111111027Y-62867197D02*
X111206265Y-62819578D01*
X111206265Y-62819578D02*
X111444360Y-62819578D01*
X111444360Y-62819578D02*
X111539598Y-62771959D01*
X112015789Y-62533864D02*
X112015789Y-63200531D01*
X112015789Y-62629102D02*
X112063408Y-62581483D01*
X112063408Y-62581483D02*
X112158646Y-62533864D01*
X112158646Y-62533864D02*
X112301503Y-62533864D01*
X112301503Y-62533864D02*
X112396741Y-62581483D01*
X112396741Y-62581483D02*
X112444360Y-62676721D01*
X112444360Y-62676721D02*
X112444360Y-63200531D01*
X113539599Y-62533864D02*
X113920551Y-62533864D01*
X113682456Y-63200531D02*
X113682456Y-62343388D01*
X113682456Y-62343388D02*
X113730075Y-62248150D01*
X113730075Y-62248150D02*
X113825313Y-62200531D01*
X113825313Y-62200531D02*
X113920551Y-62200531D01*
X114253885Y-63200531D02*
X114253885Y-62533864D01*
X114253885Y-62200531D02*
X114206266Y-62248150D01*
X114206266Y-62248150D02*
X114253885Y-62295769D01*
X114253885Y-62295769D02*
X114301504Y-62248150D01*
X114301504Y-62248150D02*
X114253885Y-62200531D01*
X114253885Y-62200531D02*
X114253885Y-62295769D01*
X114634837Y-63200531D02*
X115158646Y-62533864D01*
X114634837Y-62533864D02*
X115158646Y-63200531D01*
X116730075Y-63200531D02*
X116730075Y-62676721D01*
X116730075Y-62676721D02*
X116682456Y-62581483D01*
X116682456Y-62581483D02*
X116587218Y-62533864D01*
X116587218Y-62533864D02*
X116396742Y-62533864D01*
X116396742Y-62533864D02*
X116301504Y-62581483D01*
X116730075Y-63152912D02*
X116634837Y-63200531D01*
X116634837Y-63200531D02*
X116396742Y-63200531D01*
X116396742Y-63200531D02*
X116301504Y-63152912D01*
X116301504Y-63152912D02*
X116253885Y-63057673D01*
X116253885Y-63057673D02*
X116253885Y-62962435D01*
X116253885Y-62962435D02*
X116301504Y-62867197D01*
X116301504Y-62867197D02*
X116396742Y-62819578D01*
X116396742Y-62819578D02*
X116634837Y-62819578D01*
X116634837Y-62819578D02*
X116730075Y-62771959D01*
X117968171Y-63200531D02*
X117968171Y-62200531D01*
X117968171Y-62581483D02*
X118063409Y-62533864D01*
X118063409Y-62533864D02*
X118253885Y-62533864D01*
X118253885Y-62533864D02*
X118349123Y-62581483D01*
X118349123Y-62581483D02*
X118396742Y-62629102D01*
X118396742Y-62629102D02*
X118444361Y-62724340D01*
X118444361Y-62724340D02*
X118444361Y-63010054D01*
X118444361Y-63010054D02*
X118396742Y-63105292D01*
X118396742Y-63105292D02*
X118349123Y-63152912D01*
X118349123Y-63152912D02*
X118253885Y-63200531D01*
X118253885Y-63200531D02*
X118063409Y-63200531D01*
X118063409Y-63200531D02*
X117968171Y-63152912D01*
X119301504Y-63200531D02*
X119301504Y-62676721D01*
X119301504Y-62676721D02*
X119253885Y-62581483D01*
X119253885Y-62581483D02*
X119158647Y-62533864D01*
X119158647Y-62533864D02*
X118968171Y-62533864D01*
X118968171Y-62533864D02*
X118872933Y-62581483D01*
X119301504Y-63152912D02*
X119206266Y-63200531D01*
X119206266Y-63200531D02*
X118968171Y-63200531D01*
X118968171Y-63200531D02*
X118872933Y-63152912D01*
X118872933Y-63152912D02*
X118825314Y-63057673D01*
X118825314Y-63057673D02*
X118825314Y-62962435D01*
X118825314Y-62962435D02*
X118872933Y-62867197D01*
X118872933Y-62867197D02*
X118968171Y-62819578D01*
X118968171Y-62819578D02*
X119206266Y-62819578D01*
X119206266Y-62819578D02*
X119301504Y-62771959D01*
X120206266Y-63200531D02*
X120206266Y-62200531D01*
X120206266Y-63152912D02*
X120111028Y-63200531D01*
X120111028Y-63200531D02*
X119920552Y-63200531D01*
X119920552Y-63200531D02*
X119825314Y-63152912D01*
X119825314Y-63152912D02*
X119777695Y-63105292D01*
X119777695Y-63105292D02*
X119730076Y-63010054D01*
X119730076Y-63010054D02*
X119730076Y-62724340D01*
X119730076Y-62724340D02*
X119777695Y-62629102D01*
X119777695Y-62629102D02*
X119825314Y-62581483D01*
X119825314Y-62581483D02*
X119920552Y-62533864D01*
X119920552Y-62533864D02*
X120111028Y-62533864D01*
X120111028Y-62533864D02*
X120206266Y-62581483D01*
X121444362Y-62533864D02*
X121444362Y-63533864D01*
X121444362Y-62581483D02*
X121539600Y-62533864D01*
X121539600Y-62533864D02*
X121730076Y-62533864D01*
X121730076Y-62533864D02*
X121825314Y-62581483D01*
X121825314Y-62581483D02*
X121872933Y-62629102D01*
X121872933Y-62629102D02*
X121920552Y-62724340D01*
X121920552Y-62724340D02*
X121920552Y-63010054D01*
X121920552Y-63010054D02*
X121872933Y-63105292D01*
X121872933Y-63105292D02*
X121825314Y-63152912D01*
X121825314Y-63152912D02*
X121730076Y-63200531D01*
X121730076Y-63200531D02*
X121539600Y-63200531D01*
X121539600Y-63200531D02*
X121444362Y-63152912D01*
X122777695Y-63200531D02*
X122777695Y-62676721D01*
X122777695Y-62676721D02*
X122730076Y-62581483D01*
X122730076Y-62581483D02*
X122634838Y-62533864D01*
X122634838Y-62533864D02*
X122444362Y-62533864D01*
X122444362Y-62533864D02*
X122349124Y-62581483D01*
X122777695Y-63152912D02*
X122682457Y-63200531D01*
X122682457Y-63200531D02*
X122444362Y-63200531D01*
X122444362Y-63200531D02*
X122349124Y-63152912D01*
X122349124Y-63152912D02*
X122301505Y-63057673D01*
X122301505Y-63057673D02*
X122301505Y-62962435D01*
X122301505Y-62962435D02*
X122349124Y-62867197D01*
X122349124Y-62867197D02*
X122444362Y-62819578D01*
X122444362Y-62819578D02*
X122682457Y-62819578D01*
X122682457Y-62819578D02*
X122777695Y-62771959D01*
X123682457Y-62533864D02*
X123682457Y-63343388D01*
X123682457Y-63343388D02*
X123634838Y-63438626D01*
X123634838Y-63438626D02*
X123587219Y-63486245D01*
X123587219Y-63486245D02*
X123491981Y-63533864D01*
X123491981Y-63533864D02*
X123349124Y-63533864D01*
X123349124Y-63533864D02*
X123253886Y-63486245D01*
X123682457Y-63152912D02*
X123587219Y-63200531D01*
X123587219Y-63200531D02*
X123396743Y-63200531D01*
X123396743Y-63200531D02*
X123301505Y-63152912D01*
X123301505Y-63152912D02*
X123253886Y-63105292D01*
X123253886Y-63105292D02*
X123206267Y-63010054D01*
X123206267Y-63010054D02*
X123206267Y-62724340D01*
X123206267Y-62724340D02*
X123253886Y-62629102D01*
X123253886Y-62629102D02*
X123301505Y-62581483D01*
X123301505Y-62581483D02*
X123396743Y-62533864D01*
X123396743Y-62533864D02*
X123587219Y-62533864D01*
X123587219Y-62533864D02*
X123682457Y-62581483D01*
X124539600Y-63152912D02*
X124444362Y-63200531D01*
X124444362Y-63200531D02*
X124253886Y-63200531D01*
X124253886Y-63200531D02*
X124158648Y-63152912D01*
X124158648Y-63152912D02*
X124111029Y-63057673D01*
X124111029Y-63057673D02*
X124111029Y-62676721D01*
X124111029Y-62676721D02*
X124158648Y-62581483D01*
X124158648Y-62581483D02*
X124253886Y-62533864D01*
X124253886Y-62533864D02*
X124444362Y-62533864D01*
X124444362Y-62533864D02*
X124539600Y-62581483D01*
X124539600Y-62581483D02*
X124587219Y-62676721D01*
X124587219Y-62676721D02*
X124587219Y-62771959D01*
X124587219Y-62771959D02*
X124111029Y-62867197D01*
X125015791Y-63105292D02*
X125063410Y-63152912D01*
X125063410Y-63152912D02*
X125015791Y-63200531D01*
X125015791Y-63200531D02*
X124968172Y-63152912D01*
X124968172Y-63152912D02*
X125015791Y-63105292D01*
X125015791Y-63105292D02*
X125015791Y-63200531D01*
X109015789Y-64810475D02*
X109015789Y-63810475D01*
X110682455Y-64762856D02*
X110587217Y-64810475D01*
X110587217Y-64810475D02*
X110396741Y-64810475D01*
X110396741Y-64810475D02*
X110301503Y-64762856D01*
X110301503Y-64762856D02*
X110253884Y-64715236D01*
X110253884Y-64715236D02*
X110206265Y-64619998D01*
X110206265Y-64619998D02*
X110206265Y-64334284D01*
X110206265Y-64334284D02*
X110253884Y-64239046D01*
X110253884Y-64239046D02*
X110301503Y-64191427D01*
X110301503Y-64191427D02*
X110396741Y-64143808D01*
X110396741Y-64143808D02*
X110587217Y-64143808D01*
X110587217Y-64143808D02*
X110682455Y-64191427D01*
X111539598Y-64810475D02*
X111539598Y-64286665D01*
X111539598Y-64286665D02*
X111491979Y-64191427D01*
X111491979Y-64191427D02*
X111396741Y-64143808D01*
X111396741Y-64143808D02*
X111206265Y-64143808D01*
X111206265Y-64143808D02*
X111111027Y-64191427D01*
X111539598Y-64762856D02*
X111444360Y-64810475D01*
X111444360Y-64810475D02*
X111206265Y-64810475D01*
X111206265Y-64810475D02*
X111111027Y-64762856D01*
X111111027Y-64762856D02*
X111063408Y-64667617D01*
X111063408Y-64667617D02*
X111063408Y-64572379D01*
X111063408Y-64572379D02*
X111111027Y-64477141D01*
X111111027Y-64477141D02*
X111206265Y-64429522D01*
X111206265Y-64429522D02*
X111444360Y-64429522D01*
X111444360Y-64429522D02*
X111539598Y-64381903D01*
X112015789Y-64143808D02*
X112015789Y-64810475D01*
X112015789Y-64239046D02*
X112063408Y-64191427D01*
X112063408Y-64191427D02*
X112158646Y-64143808D01*
X112158646Y-64143808D02*
X112301503Y-64143808D01*
X112301503Y-64143808D02*
X112396741Y-64191427D01*
X112396741Y-64191427D02*
X112444360Y-64286665D01*
X112444360Y-64286665D02*
X112444360Y-64810475D01*
X112968170Y-63810475D02*
X112872932Y-64000951D01*
X113253884Y-64143808D02*
X113634836Y-64143808D01*
X113396741Y-63810475D02*
X113396741Y-64667617D01*
X113396741Y-64667617D02*
X113444360Y-64762856D01*
X113444360Y-64762856D02*
X113539598Y-64810475D01*
X113539598Y-64810475D02*
X113634836Y-64810475D01*
X114587218Y-64143808D02*
X114968170Y-64143808D01*
X114730075Y-64810475D02*
X114730075Y-63953332D01*
X114730075Y-63953332D02*
X114777694Y-63858094D01*
X114777694Y-63858094D02*
X114872932Y-63810475D01*
X114872932Y-63810475D02*
X114968170Y-63810475D01*
X115301504Y-64810475D02*
X115301504Y-64143808D01*
X115301504Y-63810475D02*
X115253885Y-63858094D01*
X115253885Y-63858094D02*
X115301504Y-63905713D01*
X115301504Y-63905713D02*
X115349123Y-63858094D01*
X115349123Y-63858094D02*
X115301504Y-63810475D01*
X115301504Y-63810475D02*
X115301504Y-63905713D01*
X115682456Y-64810475D02*
X116206265Y-64143808D01*
X115682456Y-64143808D02*
X116206265Y-64810475D01*
X117777694Y-64810475D02*
X117777694Y-64286665D01*
X117777694Y-64286665D02*
X117730075Y-64191427D01*
X117730075Y-64191427D02*
X117634837Y-64143808D01*
X117634837Y-64143808D02*
X117444361Y-64143808D01*
X117444361Y-64143808D02*
X117349123Y-64191427D01*
X117777694Y-64762856D02*
X117682456Y-64810475D01*
X117682456Y-64810475D02*
X117444361Y-64810475D01*
X117444361Y-64810475D02*
X117349123Y-64762856D01*
X117349123Y-64762856D02*
X117301504Y-64667617D01*
X117301504Y-64667617D02*
X117301504Y-64572379D01*
X117301504Y-64572379D02*
X117349123Y-64477141D01*
X117349123Y-64477141D02*
X117444361Y-64429522D01*
X117444361Y-64429522D02*
X117682456Y-64429522D01*
X117682456Y-64429522D02*
X117777694Y-64381903D01*
X119015790Y-64810475D02*
X119015790Y-63810475D01*
X119015790Y-64191427D02*
X119111028Y-64143808D01*
X119111028Y-64143808D02*
X119301504Y-64143808D01*
X119301504Y-64143808D02*
X119396742Y-64191427D01*
X119396742Y-64191427D02*
X119444361Y-64239046D01*
X119444361Y-64239046D02*
X119491980Y-64334284D01*
X119491980Y-64334284D02*
X119491980Y-64619998D01*
X119491980Y-64619998D02*
X119444361Y-64715236D01*
X119444361Y-64715236D02*
X119396742Y-64762856D01*
X119396742Y-64762856D02*
X119301504Y-64810475D01*
X119301504Y-64810475D02*
X119111028Y-64810475D01*
X119111028Y-64810475D02*
X119015790Y-64762856D01*
X120063409Y-64810475D02*
X119968171Y-64762856D01*
X119968171Y-64762856D02*
X119920552Y-64667617D01*
X119920552Y-64667617D02*
X119920552Y-63810475D01*
X120872933Y-64810475D02*
X120872933Y-64286665D01*
X120872933Y-64286665D02*
X120825314Y-64191427D01*
X120825314Y-64191427D02*
X120730076Y-64143808D01*
X120730076Y-64143808D02*
X120539600Y-64143808D01*
X120539600Y-64143808D02*
X120444362Y-64191427D01*
X120872933Y-64762856D02*
X120777695Y-64810475D01*
X120777695Y-64810475D02*
X120539600Y-64810475D01*
X120539600Y-64810475D02*
X120444362Y-64762856D01*
X120444362Y-64762856D02*
X120396743Y-64667617D01*
X120396743Y-64667617D02*
X120396743Y-64572379D01*
X120396743Y-64572379D02*
X120444362Y-64477141D01*
X120444362Y-64477141D02*
X120539600Y-64429522D01*
X120539600Y-64429522D02*
X120777695Y-64429522D01*
X120777695Y-64429522D02*
X120872933Y-64381903D01*
X121349124Y-64143808D02*
X121349124Y-64810475D01*
X121349124Y-64239046D02*
X121396743Y-64191427D01*
X121396743Y-64191427D02*
X121491981Y-64143808D01*
X121491981Y-64143808D02*
X121634838Y-64143808D01*
X121634838Y-64143808D02*
X121730076Y-64191427D01*
X121730076Y-64191427D02*
X121777695Y-64286665D01*
X121777695Y-64286665D02*
X121777695Y-64810475D01*
X122253886Y-64810475D02*
X122253886Y-63810475D01*
X122349124Y-64429522D02*
X122634838Y-64810475D01*
X122634838Y-64143808D02*
X122253886Y-64524760D01*
X123968172Y-64810475D02*
X123872934Y-64762856D01*
X123872934Y-64762856D02*
X123825315Y-64715236D01*
X123825315Y-64715236D02*
X123777696Y-64619998D01*
X123777696Y-64619998D02*
X123777696Y-64334284D01*
X123777696Y-64334284D02*
X123825315Y-64239046D01*
X123825315Y-64239046D02*
X123872934Y-64191427D01*
X123872934Y-64191427D02*
X123968172Y-64143808D01*
X123968172Y-64143808D02*
X124111029Y-64143808D01*
X124111029Y-64143808D02*
X124206267Y-64191427D01*
X124206267Y-64191427D02*
X124253886Y-64239046D01*
X124253886Y-64239046D02*
X124301505Y-64334284D01*
X124301505Y-64334284D02*
X124301505Y-64619998D01*
X124301505Y-64619998D02*
X124253886Y-64715236D01*
X124253886Y-64715236D02*
X124206267Y-64762856D01*
X124206267Y-64762856D02*
X124111029Y-64810475D01*
X124111029Y-64810475D02*
X123968172Y-64810475D01*
X124730077Y-64143808D02*
X124730077Y-64810475D01*
X124730077Y-64239046D02*
X124777696Y-64191427D01*
X124777696Y-64191427D02*
X124872934Y-64143808D01*
X124872934Y-64143808D02*
X125015791Y-64143808D01*
X125015791Y-64143808D02*
X125111029Y-64191427D01*
X125111029Y-64191427D02*
X125158648Y-64286665D01*
X125158648Y-64286665D02*
X125158648Y-64810475D01*
X126015791Y-64762856D02*
X125920553Y-64810475D01*
X125920553Y-64810475D02*
X125730077Y-64810475D01*
X125730077Y-64810475D02*
X125634839Y-64762856D01*
X125634839Y-64762856D02*
X125587220Y-64667617D01*
X125587220Y-64667617D02*
X125587220Y-64286665D01*
X125587220Y-64286665D02*
X125634839Y-64191427D01*
X125634839Y-64191427D02*
X125730077Y-64143808D01*
X125730077Y-64143808D02*
X125920553Y-64143808D01*
X125920553Y-64143808D02*
X126015791Y-64191427D01*
X126015791Y-64191427D02*
X126063410Y-64286665D01*
X126063410Y-64286665D02*
X126063410Y-64381903D01*
X126063410Y-64381903D02*
X125587220Y-64477141D01*
X126491982Y-64715236D02*
X126539601Y-64762856D01*
X126539601Y-64762856D02*
X126491982Y-64810475D01*
X126491982Y-64810475D02*
X126444363Y-64762856D01*
X126444363Y-64762856D02*
X126491982Y-64715236D01*
X126491982Y-64715236D02*
X126491982Y-64810475D01*
X126920553Y-63810475D02*
X126920553Y-64000951D01*
X127301505Y-63810475D02*
X127301505Y-64000951D01*
X112015788Y-66039466D02*
X112777693Y-66039466D01*
X114015788Y-66420419D02*
X114015788Y-65420419D01*
X114015788Y-65420419D02*
X114587216Y-66420419D01*
X114587216Y-66420419D02*
X114587216Y-65420419D01*
X115206264Y-66420419D02*
X115111026Y-66372800D01*
X115111026Y-66372800D02*
X115063407Y-66325180D01*
X115063407Y-66325180D02*
X115015788Y-66229942D01*
X115015788Y-66229942D02*
X115015788Y-65944228D01*
X115015788Y-65944228D02*
X115063407Y-65848990D01*
X115063407Y-65848990D02*
X115111026Y-65801371D01*
X115111026Y-65801371D02*
X115206264Y-65753752D01*
X115206264Y-65753752D02*
X115349121Y-65753752D01*
X115349121Y-65753752D02*
X115444359Y-65801371D01*
X115444359Y-65801371D02*
X115491978Y-65848990D01*
X115491978Y-65848990D02*
X115539597Y-65944228D01*
X115539597Y-65944228D02*
X115539597Y-66229942D01*
X115539597Y-66229942D02*
X115491978Y-66325180D01*
X115491978Y-66325180D02*
X115444359Y-66372800D01*
X115444359Y-66372800D02*
X115349121Y-66420419D01*
X115349121Y-66420419D02*
X115206264Y-66420419D01*
X115968169Y-66420419D02*
X115968169Y-65753752D01*
X115968169Y-65944228D02*
X116015788Y-65848990D01*
X116015788Y-65848990D02*
X116063407Y-65801371D01*
X116063407Y-65801371D02*
X116158645Y-65753752D01*
X116158645Y-65753752D02*
X116253883Y-65753752D01*
X117015788Y-66420419D02*
X117015788Y-65896609D01*
X117015788Y-65896609D02*
X116968169Y-65801371D01*
X116968169Y-65801371D02*
X116872931Y-65753752D01*
X116872931Y-65753752D02*
X116682455Y-65753752D01*
X116682455Y-65753752D02*
X116587217Y-65801371D01*
X117015788Y-66372800D02*
X116920550Y-66420419D01*
X116920550Y-66420419D02*
X116682455Y-66420419D01*
X116682455Y-66420419D02*
X116587217Y-66372800D01*
X116587217Y-66372800D02*
X116539598Y-66277561D01*
X116539598Y-66277561D02*
X116539598Y-66182323D01*
X116539598Y-66182323D02*
X116587217Y-66087085D01*
X116587217Y-66087085D02*
X116682455Y-66039466D01*
X116682455Y-66039466D02*
X116920550Y-66039466D01*
X116920550Y-66039466D02*
X117015788Y-65991847D01*
X118825312Y-66420419D02*
X118491979Y-65944228D01*
X118253884Y-66420419D02*
X118253884Y-65420419D01*
X118253884Y-65420419D02*
X118634836Y-65420419D01*
X118634836Y-65420419D02*
X118730074Y-65468038D01*
X118730074Y-65468038D02*
X118777693Y-65515657D01*
X118777693Y-65515657D02*
X118825312Y-65610895D01*
X118825312Y-65610895D02*
X118825312Y-65753752D01*
X118825312Y-65753752D02*
X118777693Y-65848990D01*
X118777693Y-65848990D02*
X118730074Y-65896609D01*
X118730074Y-65896609D02*
X118634836Y-65944228D01*
X118634836Y-65944228D02*
X118253884Y-65944228D01*
X119396741Y-66420419D02*
X119301503Y-66372800D01*
X119301503Y-66372800D02*
X119253884Y-66325180D01*
X119253884Y-66325180D02*
X119206265Y-66229942D01*
X119206265Y-66229942D02*
X119206265Y-65944228D01*
X119206265Y-65944228D02*
X119253884Y-65848990D01*
X119253884Y-65848990D02*
X119301503Y-65801371D01*
X119301503Y-65801371D02*
X119396741Y-65753752D01*
X119396741Y-65753752D02*
X119539598Y-65753752D01*
X119539598Y-65753752D02*
X119634836Y-65801371D01*
X119634836Y-65801371D02*
X119682455Y-65848990D01*
X119682455Y-65848990D02*
X119730074Y-65944228D01*
X119730074Y-65944228D02*
X119730074Y-66229942D01*
X119730074Y-66229942D02*
X119682455Y-66325180D01*
X119682455Y-66325180D02*
X119634836Y-66372800D01*
X119634836Y-66372800D02*
X119539598Y-66420419D01*
X119539598Y-66420419D02*
X119396741Y-66420419D01*
X120158646Y-66420419D02*
X120158646Y-65420419D01*
X120158646Y-65801371D02*
X120253884Y-65753752D01*
X120253884Y-65753752D02*
X120444360Y-65753752D01*
X120444360Y-65753752D02*
X120539598Y-65801371D01*
X120539598Y-65801371D02*
X120587217Y-65848990D01*
X120587217Y-65848990D02*
X120634836Y-65944228D01*
X120634836Y-65944228D02*
X120634836Y-66229942D01*
X120634836Y-66229942D02*
X120587217Y-66325180D01*
X120587217Y-66325180D02*
X120539598Y-66372800D01*
X120539598Y-66372800D02*
X120444360Y-66420419D01*
X120444360Y-66420419D02*
X120253884Y-66420419D01*
X120253884Y-66420419D02*
X120158646Y-66372800D01*
X121444360Y-66372800D02*
X121349122Y-66420419D01*
X121349122Y-66420419D02*
X121158646Y-66420419D01*
X121158646Y-66420419D02*
X121063408Y-66372800D01*
X121063408Y-66372800D02*
X121015789Y-66277561D01*
X121015789Y-66277561D02*
X121015789Y-65896609D01*
X121015789Y-65896609D02*
X121063408Y-65801371D01*
X121063408Y-65801371D02*
X121158646Y-65753752D01*
X121158646Y-65753752D02*
X121349122Y-65753752D01*
X121349122Y-65753752D02*
X121444360Y-65801371D01*
X121444360Y-65801371D02*
X121491979Y-65896609D01*
X121491979Y-65896609D02*
X121491979Y-65991847D01*
X121491979Y-65991847D02*
X121015789Y-66087085D01*
X121920551Y-66420419D02*
X121920551Y-65753752D01*
X121920551Y-65944228D02*
X121968170Y-65848990D01*
X121968170Y-65848990D02*
X122015789Y-65801371D01*
X122015789Y-65801371D02*
X122111027Y-65753752D01*
X122111027Y-65753752D02*
X122206265Y-65753752D01*
X122396742Y-65753752D02*
X122777694Y-65753752D01*
X122539599Y-65420419D02*
X122539599Y-66277561D01*
X122539599Y-66277561D02*
X122587218Y-66372800D01*
X122587218Y-66372800D02*
X122682456Y-66420419D01*
X122682456Y-66420419D02*
X122777694Y-66420419D01*
X123063409Y-66372800D02*
X123158647Y-66420419D01*
X123158647Y-66420419D02*
X123349123Y-66420419D01*
X123349123Y-66420419D02*
X123444361Y-66372800D01*
X123444361Y-66372800D02*
X123491980Y-66277561D01*
X123491980Y-66277561D02*
X123491980Y-66229942D01*
X123491980Y-66229942D02*
X123444361Y-66134704D01*
X123444361Y-66134704D02*
X123349123Y-66087085D01*
X123349123Y-66087085D02*
X123206266Y-66087085D01*
X123206266Y-66087085D02*
X123111028Y-66039466D01*
X123111028Y-66039466D02*
X123063409Y-65944228D01*
X123063409Y-65944228D02*
X123063409Y-65896609D01*
X123063409Y-65896609D02*
X123111028Y-65801371D01*
X123111028Y-65801371D02*
X123206266Y-65753752D01*
X123206266Y-65753752D02*
X123349123Y-65753752D01*
X123349123Y-65753752D02*
X123444361Y-65801371D01*
D11*
X178060819Y-87631333D02*
X178775104Y-87631333D01*
X178775104Y-87631333D02*
X178917961Y-87678952D01*
X178917961Y-87678952D02*
X179013200Y-87774190D01*
X179013200Y-87774190D02*
X179060819Y-87917047D01*
X179060819Y-87917047D02*
X179060819Y-88012285D01*
X178060819Y-87250380D02*
X178060819Y-86583714D01*
X178060819Y-86583714D02*
X179060819Y-87012285D01*
X169759333Y-58986819D02*
X169426000Y-58510628D01*
X169187905Y-58986819D02*
X169187905Y-57986819D01*
X169187905Y-57986819D02*
X169568857Y-57986819D01*
X169568857Y-57986819D02*
X169664095Y-58034438D01*
X169664095Y-58034438D02*
X169711714Y-58082057D01*
X169711714Y-58082057D02*
X169759333Y-58177295D01*
X169759333Y-58177295D02*
X169759333Y-58320152D01*
X169759333Y-58320152D02*
X169711714Y-58415390D01*
X169711714Y-58415390D02*
X169664095Y-58463009D01*
X169664095Y-58463009D02*
X169568857Y-58510628D01*
X169568857Y-58510628D02*
X169187905Y-58510628D01*
X170711714Y-58986819D02*
X170140286Y-58986819D01*
X170426000Y-58986819D02*
X170426000Y-57986819D01*
X170426000Y-57986819D02*
X170330762Y-58129676D01*
X170330762Y-58129676D02*
X170235524Y-58224914D01*
X170235524Y-58224914D02*
X170140286Y-58272533D01*
X189063333Y-91164580D02*
X189015714Y-91212200D01*
X189015714Y-91212200D02*
X188872857Y-91259819D01*
X188872857Y-91259819D02*
X188777619Y-91259819D01*
X188777619Y-91259819D02*
X188634762Y-91212200D01*
X188634762Y-91212200D02*
X188539524Y-91116961D01*
X188539524Y-91116961D02*
X188491905Y-91021723D01*
X188491905Y-91021723D02*
X188444286Y-90831247D01*
X188444286Y-90831247D02*
X188444286Y-90688390D01*
X188444286Y-90688390D02*
X188491905Y-90497914D01*
X188491905Y-90497914D02*
X188539524Y-90402676D01*
X188539524Y-90402676D02*
X188634762Y-90307438D01*
X188634762Y-90307438D02*
X188777619Y-90259819D01*
X188777619Y-90259819D02*
X188872857Y-90259819D01*
X188872857Y-90259819D02*
X189015714Y-90307438D01*
X189015714Y-90307438D02*
X189063333Y-90355057D01*
X189920476Y-90593152D02*
X189920476Y-91259819D01*
X189682381Y-90212200D02*
X189444286Y-90926485D01*
X189444286Y-90926485D02*
X190063333Y-90926485D01*
X164766666Y-86024819D02*
X164766666Y-86739104D01*
X164766666Y-86739104D02*
X164719047Y-86881961D01*
X164719047Y-86881961D02*
X164623809Y-86977200D01*
X164623809Y-86977200D02*
X164480952Y-87024819D01*
X164480952Y-87024819D02*
X164385714Y-87024819D01*
X165671428Y-86024819D02*
X165480952Y-86024819D01*
X165480952Y-86024819D02*
X165385714Y-86072438D01*
X165385714Y-86072438D02*
X165338095Y-86120057D01*
X165338095Y-86120057D02*
X165242857Y-86262914D01*
X165242857Y-86262914D02*
X165195238Y-86453390D01*
X165195238Y-86453390D02*
X165195238Y-86834342D01*
X165195238Y-86834342D02*
X165242857Y-86929580D01*
X165242857Y-86929580D02*
X165290476Y-86977200D01*
X165290476Y-86977200D02*
X165385714Y-87024819D01*
X165385714Y-87024819D02*
X165576190Y-87024819D01*
X165576190Y-87024819D02*
X165671428Y-86977200D01*
X165671428Y-86977200D02*
X165719047Y-86929580D01*
X165719047Y-86929580D02*
X165766666Y-86834342D01*
X165766666Y-86834342D02*
X165766666Y-86596247D01*
X165766666Y-86596247D02*
X165719047Y-86501009D01*
X165719047Y-86501009D02*
X165671428Y-86453390D01*
X165671428Y-86453390D02*
X165576190Y-86405771D01*
X165576190Y-86405771D02*
X165385714Y-86405771D01*
X165385714Y-86405771D02*
X165290476Y-86453390D01*
X165290476Y-86453390D02*
X165242857Y-86501009D01*
X165242857Y-86501009D02*
X165195238Y-86596247D01*
X171283333Y-104499580D02*
X171235714Y-104547200D01*
X171235714Y-104547200D02*
X171092857Y-104594819D01*
X171092857Y-104594819D02*
X170997619Y-104594819D01*
X170997619Y-104594819D02*
X170854762Y-104547200D01*
X170854762Y-104547200D02*
X170759524Y-104451961D01*
X170759524Y-104451961D02*
X170711905Y-104356723D01*
X170711905Y-104356723D02*
X170664286Y-104166247D01*
X170664286Y-104166247D02*
X170664286Y-104023390D01*
X170664286Y-104023390D02*
X170711905Y-103832914D01*
X170711905Y-103832914D02*
X170759524Y-103737676D01*
X170759524Y-103737676D02*
X170854762Y-103642438D01*
X170854762Y-103642438D02*
X170997619Y-103594819D01*
X170997619Y-103594819D02*
X171092857Y-103594819D01*
X171092857Y-103594819D02*
X171235714Y-103642438D01*
X171235714Y-103642438D02*
X171283333Y-103690057D01*
X171664286Y-103690057D02*
X171711905Y-103642438D01*
X171711905Y-103642438D02*
X171807143Y-103594819D01*
X171807143Y-103594819D02*
X172045238Y-103594819D01*
X172045238Y-103594819D02*
X172140476Y-103642438D01*
X172140476Y-103642438D02*
X172188095Y-103690057D01*
X172188095Y-103690057D02*
X172235714Y-103785295D01*
X172235714Y-103785295D02*
X172235714Y-103880533D01*
X172235714Y-103880533D02*
X172188095Y-104023390D01*
X172188095Y-104023390D02*
X171616667Y-104594819D01*
X171616667Y-104594819D02*
X172235714Y-104594819D01*
X192873333Y-92434580D02*
X192825714Y-92482200D01*
X192825714Y-92482200D02*
X192682857Y-92529819D01*
X192682857Y-92529819D02*
X192587619Y-92529819D01*
X192587619Y-92529819D02*
X192444762Y-92482200D01*
X192444762Y-92482200D02*
X192349524Y-92386961D01*
X192349524Y-92386961D02*
X192301905Y-92291723D01*
X192301905Y-92291723D02*
X192254286Y-92101247D01*
X192254286Y-92101247D02*
X192254286Y-91958390D01*
X192254286Y-91958390D02*
X192301905Y-91767914D01*
X192301905Y-91767914D02*
X192349524Y-91672676D01*
X192349524Y-91672676D02*
X192444762Y-91577438D01*
X192444762Y-91577438D02*
X192587619Y-91529819D01*
X192587619Y-91529819D02*
X192682857Y-91529819D01*
X192682857Y-91529819D02*
X192825714Y-91577438D01*
X192825714Y-91577438D02*
X192873333Y-91625057D01*
X193206667Y-91529819D02*
X193825714Y-91529819D01*
X193825714Y-91529819D02*
X193492381Y-91910771D01*
X193492381Y-91910771D02*
X193635238Y-91910771D01*
X193635238Y-91910771D02*
X193730476Y-91958390D01*
X193730476Y-91958390D02*
X193778095Y-92006009D01*
X193778095Y-92006009D02*
X193825714Y-92101247D01*
X193825714Y-92101247D02*
X193825714Y-92339342D01*
X193825714Y-92339342D02*
X193778095Y-92434580D01*
X193778095Y-92434580D02*
X193730476Y-92482200D01*
X193730476Y-92482200D02*
X193635238Y-92529819D01*
X193635238Y-92529819D02*
X193349524Y-92529819D01*
X193349524Y-92529819D02*
X193254286Y-92482200D01*
X193254286Y-92482200D02*
X193206667Y-92434580D01*
X130010819Y-60277333D02*
X130725104Y-60277333D01*
X130725104Y-60277333D02*
X130867961Y-60324952D01*
X130867961Y-60324952D02*
X130963200Y-60420190D01*
X130963200Y-60420190D02*
X131010819Y-60563047D01*
X131010819Y-60563047D02*
X131010819Y-60658285D01*
X130106057Y-59848761D02*
X130058438Y-59801142D01*
X130058438Y-59801142D02*
X130010819Y-59705904D01*
X130010819Y-59705904D02*
X130010819Y-59467809D01*
X130010819Y-59467809D02*
X130058438Y-59372571D01*
X130058438Y-59372571D02*
X130106057Y-59324952D01*
X130106057Y-59324952D02*
X130201295Y-59277333D01*
X130201295Y-59277333D02*
X130296533Y-59277333D01*
X130296533Y-59277333D02*
X130439390Y-59324952D01*
X130439390Y-59324952D02*
X131010819Y-59896380D01*
X131010819Y-59896380D02*
X131010819Y-59277333D01*
X153971666Y-95104819D02*
X153971666Y-95819104D01*
X153971666Y-95819104D02*
X153924047Y-95961961D01*
X153924047Y-95961961D02*
X153828809Y-96057200D01*
X153828809Y-96057200D02*
X153685952Y-96104819D01*
X153685952Y-96104819D02*
X153590714Y-96104819D01*
X154924047Y-95104819D02*
X154447857Y-95104819D01*
X154447857Y-95104819D02*
X154400238Y-95581009D01*
X154400238Y-95581009D02*
X154447857Y-95533390D01*
X154447857Y-95533390D02*
X154543095Y-95485771D01*
X154543095Y-95485771D02*
X154781190Y-95485771D01*
X154781190Y-95485771D02*
X154876428Y-95533390D01*
X154876428Y-95533390D02*
X154924047Y-95581009D01*
X154924047Y-95581009D02*
X154971666Y-95676247D01*
X154971666Y-95676247D02*
X154971666Y-95914342D01*
X154971666Y-95914342D02*
X154924047Y-96009580D01*
X154924047Y-96009580D02*
X154876428Y-96057200D01*
X154876428Y-96057200D02*
X154781190Y-96104819D01*
X154781190Y-96104819D02*
X154543095Y-96104819D01*
X154543095Y-96104819D02*
X154447857Y-96057200D01*
X154447857Y-96057200D02*
X154400238Y-96009580D01*
X183834819Y-97281904D02*
X184644342Y-97281904D01*
X184644342Y-97281904D02*
X184739580Y-97234285D01*
X184739580Y-97234285D02*
X184787200Y-97186666D01*
X184787200Y-97186666D02*
X184834819Y-97091428D01*
X184834819Y-97091428D02*
X184834819Y-96900952D01*
X184834819Y-96900952D02*
X184787200Y-96805714D01*
X184787200Y-96805714D02*
X184739580Y-96758095D01*
X184739580Y-96758095D02*
X184644342Y-96710476D01*
X184644342Y-96710476D02*
X183834819Y-96710476D01*
X183930057Y-96281904D02*
X183882438Y-96234285D01*
X183882438Y-96234285D02*
X183834819Y-96139047D01*
X183834819Y-96139047D02*
X183834819Y-95900952D01*
X183834819Y-95900952D02*
X183882438Y-95805714D01*
X183882438Y-95805714D02*
X183930057Y-95758095D01*
X183930057Y-95758095D02*
X184025295Y-95710476D01*
X184025295Y-95710476D02*
X184120533Y-95710476D01*
X184120533Y-95710476D02*
X184263390Y-95758095D01*
X184263390Y-95758095D02*
X184834819Y-96329523D01*
X184834819Y-96329523D02*
X184834819Y-95710476D01*
X187229761Y-57315057D02*
X187134523Y-57267438D01*
X187134523Y-57267438D02*
X187039285Y-57172200D01*
X187039285Y-57172200D02*
X186896428Y-57029342D01*
X186896428Y-57029342D02*
X186801190Y-56981723D01*
X186801190Y-56981723D02*
X186705952Y-56981723D01*
X186753571Y-57219819D02*
X186658333Y-57172200D01*
X186658333Y-57172200D02*
X186563095Y-57076961D01*
X186563095Y-57076961D02*
X186515476Y-56886485D01*
X186515476Y-56886485D02*
X186515476Y-56553152D01*
X186515476Y-56553152D02*
X186563095Y-56362676D01*
X186563095Y-56362676D02*
X186658333Y-56267438D01*
X186658333Y-56267438D02*
X186753571Y-56219819D01*
X186753571Y-56219819D02*
X186944047Y-56219819D01*
X186944047Y-56219819D02*
X187039285Y-56267438D01*
X187039285Y-56267438D02*
X187134523Y-56362676D01*
X187134523Y-56362676D02*
X187182142Y-56553152D01*
X187182142Y-56553152D02*
X187182142Y-56886485D01*
X187182142Y-56886485D02*
X187134523Y-57076961D01*
X187134523Y-57076961D02*
X187039285Y-57172200D01*
X187039285Y-57172200D02*
X186944047Y-57219819D01*
X186944047Y-57219819D02*
X186753571Y-57219819D01*
X188134523Y-57219819D02*
X187563095Y-57219819D01*
X187848809Y-57219819D02*
X187848809Y-56219819D01*
X187848809Y-56219819D02*
X187753571Y-56362676D01*
X187753571Y-56362676D02*
X187658333Y-56457914D01*
X187658333Y-56457914D02*
X187563095Y-56505533D01*
X184964819Y-99393333D02*
X185679104Y-99393333D01*
X185679104Y-99393333D02*
X185821961Y-99440952D01*
X185821961Y-99440952D02*
X185917200Y-99536190D01*
X185917200Y-99536190D02*
X185964819Y-99679047D01*
X185964819Y-99679047D02*
X185964819Y-99774285D01*
X184964819Y-99012380D02*
X184964819Y-98393333D01*
X184964819Y-98393333D02*
X185345771Y-98726666D01*
X185345771Y-98726666D02*
X185345771Y-98583809D01*
X185345771Y-98583809D02*
X185393390Y-98488571D01*
X185393390Y-98488571D02*
X185441009Y-98440952D01*
X185441009Y-98440952D02*
X185536247Y-98393333D01*
X185536247Y-98393333D02*
X185774342Y-98393333D01*
X185774342Y-98393333D02*
X185869580Y-98440952D01*
X185869580Y-98440952D02*
X185917200Y-98488571D01*
X185917200Y-98488571D02*
X185964819Y-98583809D01*
X185964819Y-98583809D02*
X185964819Y-98869523D01*
X185964819Y-98869523D02*
X185917200Y-98964761D01*
X185917200Y-98964761D02*
X185869580Y-99012380D01*
X197364819Y-65531904D02*
X198174342Y-65531904D01*
X198174342Y-65531904D02*
X198269580Y-65484285D01*
X198269580Y-65484285D02*
X198317200Y-65436666D01*
X198317200Y-65436666D02*
X198364819Y-65341428D01*
X198364819Y-65341428D02*
X198364819Y-65150952D01*
X198364819Y-65150952D02*
X198317200Y-65055714D01*
X198317200Y-65055714D02*
X198269580Y-65008095D01*
X198269580Y-65008095D02*
X198174342Y-64960476D01*
X198174342Y-64960476D02*
X197364819Y-64960476D01*
X198364819Y-63960476D02*
X198364819Y-64531904D01*
X198364819Y-64246190D02*
X197364819Y-64246190D01*
X197364819Y-64246190D02*
X197507676Y-64341428D01*
X197507676Y-64341428D02*
X197602914Y-64436666D01*
X197602914Y-64436666D02*
X197650533Y-64531904D01*
X138289819Y-91138333D02*
X139004104Y-91138333D01*
X139004104Y-91138333D02*
X139146961Y-91185952D01*
X139146961Y-91185952D02*
X139242200Y-91281190D01*
X139242200Y-91281190D02*
X139289819Y-91424047D01*
X139289819Y-91424047D02*
X139289819Y-91519285D01*
X139289819Y-90138333D02*
X139289819Y-90709761D01*
X139289819Y-90424047D02*
X138289819Y-90424047D01*
X138289819Y-90424047D02*
X138432676Y-90519285D01*
X138432676Y-90519285D02*
X138527914Y-90614523D01*
X138527914Y-90614523D02*
X138575533Y-90709761D01*
X178060819Y-92281333D02*
X178775104Y-92281333D01*
X178775104Y-92281333D02*
X178917961Y-92328952D01*
X178917961Y-92328952D02*
X179013200Y-92424190D01*
X179013200Y-92424190D02*
X179060819Y-92567047D01*
X179060819Y-92567047D02*
X179060819Y-92662285D01*
X178489390Y-91662285D02*
X178441771Y-91757523D01*
X178441771Y-91757523D02*
X178394152Y-91805142D01*
X178394152Y-91805142D02*
X178298914Y-91852761D01*
X178298914Y-91852761D02*
X178251295Y-91852761D01*
X178251295Y-91852761D02*
X178156057Y-91805142D01*
X178156057Y-91805142D02*
X178108438Y-91757523D01*
X178108438Y-91757523D02*
X178060819Y-91662285D01*
X178060819Y-91662285D02*
X178060819Y-91471809D01*
X178060819Y-91471809D02*
X178108438Y-91376571D01*
X178108438Y-91376571D02*
X178156057Y-91328952D01*
X178156057Y-91328952D02*
X178251295Y-91281333D01*
X178251295Y-91281333D02*
X178298914Y-91281333D01*
X178298914Y-91281333D02*
X178394152Y-91328952D01*
X178394152Y-91328952D02*
X178441771Y-91376571D01*
X178441771Y-91376571D02*
X178489390Y-91471809D01*
X178489390Y-91471809D02*
X178489390Y-91662285D01*
X178489390Y-91662285D02*
X178537009Y-91757523D01*
X178537009Y-91757523D02*
X178584628Y-91805142D01*
X178584628Y-91805142D02*
X178679866Y-91852761D01*
X178679866Y-91852761D02*
X178870342Y-91852761D01*
X178870342Y-91852761D02*
X178965580Y-91805142D01*
X178965580Y-91805142D02*
X179013200Y-91757523D01*
X179013200Y-91757523D02*
X179060819Y-91662285D01*
X179060819Y-91662285D02*
X179060819Y-91471809D01*
X179060819Y-91471809D02*
X179013200Y-91376571D01*
X179013200Y-91376571D02*
X178965580Y-91328952D01*
X178965580Y-91328952D02*
X178870342Y-91281333D01*
X178870342Y-91281333D02*
X178679866Y-91281333D01*
X178679866Y-91281333D02*
X178584628Y-91328952D01*
X178584628Y-91328952D02*
X178537009Y-91376571D01*
X178537009Y-91376571D02*
X178489390Y-91471809D01*
X179371666Y-62319819D02*
X179371666Y-63034104D01*
X179371666Y-63034104D02*
X179324047Y-63176961D01*
X179324047Y-63176961D02*
X179228809Y-63272200D01*
X179228809Y-63272200D02*
X179085952Y-63319819D01*
X179085952Y-63319819D02*
X178990714Y-63319819D01*
X180276428Y-62653152D02*
X180276428Y-63319819D01*
X180038333Y-62272200D02*
X179800238Y-62986485D01*
X179800238Y-62986485D02*
X180419285Y-62986485D01*
X177736667Y-104547200D02*
X177879524Y-104594819D01*
X177879524Y-104594819D02*
X178117619Y-104594819D01*
X178117619Y-104594819D02*
X178212857Y-104547200D01*
X178212857Y-104547200D02*
X178260476Y-104499580D01*
X178260476Y-104499580D02*
X178308095Y-104404342D01*
X178308095Y-104404342D02*
X178308095Y-104309104D01*
X178308095Y-104309104D02*
X178260476Y-104213866D01*
X178260476Y-104213866D02*
X178212857Y-104166247D01*
X178212857Y-104166247D02*
X178117619Y-104118628D01*
X178117619Y-104118628D02*
X177927143Y-104071009D01*
X177927143Y-104071009D02*
X177831905Y-104023390D01*
X177831905Y-104023390D02*
X177784286Y-103975771D01*
X177784286Y-103975771D02*
X177736667Y-103880533D01*
X177736667Y-103880533D02*
X177736667Y-103785295D01*
X177736667Y-103785295D02*
X177784286Y-103690057D01*
X177784286Y-103690057D02*
X177831905Y-103642438D01*
X177831905Y-103642438D02*
X177927143Y-103594819D01*
X177927143Y-103594819D02*
X178165238Y-103594819D01*
X178165238Y-103594819D02*
X178308095Y-103642438D01*
X178641429Y-103594819D02*
X178879524Y-104594819D01*
X178879524Y-104594819D02*
X179070000Y-103880533D01*
X179070000Y-103880533D02*
X179260476Y-104594819D01*
X179260476Y-104594819D02*
X179498572Y-103594819D01*
X180403333Y-104594819D02*
X179831905Y-104594819D01*
X180117619Y-104594819D02*
X180117619Y-103594819D01*
X180117619Y-103594819D02*
X180022381Y-103737676D01*
X180022381Y-103737676D02*
X179927143Y-103832914D01*
X179927143Y-103832914D02*
X179831905Y-103880533D01*
X166203333Y-101959580D02*
X166155714Y-102007200D01*
X166155714Y-102007200D02*
X166012857Y-102054819D01*
X166012857Y-102054819D02*
X165917619Y-102054819D01*
X165917619Y-102054819D02*
X165774762Y-102007200D01*
X165774762Y-102007200D02*
X165679524Y-101911961D01*
X165679524Y-101911961D02*
X165631905Y-101816723D01*
X165631905Y-101816723D02*
X165584286Y-101626247D01*
X165584286Y-101626247D02*
X165584286Y-101483390D01*
X165584286Y-101483390D02*
X165631905Y-101292914D01*
X165631905Y-101292914D02*
X165679524Y-101197676D01*
X165679524Y-101197676D02*
X165774762Y-101102438D01*
X165774762Y-101102438D02*
X165917619Y-101054819D01*
X165917619Y-101054819D02*
X166012857Y-101054819D01*
X166012857Y-101054819D02*
X166155714Y-101102438D01*
X166155714Y-101102438D02*
X166203333Y-101150057D01*
X167155714Y-102054819D02*
X166584286Y-102054819D01*
X166870000Y-102054819D02*
X166870000Y-101054819D01*
X166870000Y-101054819D02*
X166774762Y-101197676D01*
X166774762Y-101197676D02*
X166679524Y-101292914D01*
X166679524Y-101292914D02*
X166584286Y-101340533D01*
D12*
%TO.C,J7*%
X169866000Y-85968000D02*
X169866000Y-88628000D01*
X175006000Y-85968000D02*
X169866000Y-85968000D01*
X175006000Y-85968000D02*
X175006000Y-88628000D01*
X175006000Y-88628000D02*
X169866000Y-88628000D01*
X176276000Y-85968000D02*
X177606000Y-85968000D01*
X177606000Y-85968000D02*
X177606000Y-87298000D01*
%TO.C,R1*%
X167056000Y-60452000D02*
X168006000Y-60452000D01*
X168006000Y-59532000D02*
X168006000Y-61372000D01*
X168006000Y-61372000D02*
X171846000Y-61372000D01*
X171846000Y-59532000D02*
X168006000Y-59532000D01*
X171846000Y-61372000D02*
X171846000Y-59532000D01*
X172796000Y-60452000D02*
X171846000Y-60452000D01*
%TO.C,C4*%
X193890000Y-88610000D02*
G75*
G02*
X189650000Y-88610000I-2120000J0D01*
G01*
X189650000Y-88610000D02*
G75*
G02*
X193890000Y-88610000I2120000J0D01*
G01*
%TO.C,J6*%
X163770000Y-87570000D02*
X165100000Y-87570000D01*
X163770000Y-88900000D02*
X163770000Y-87570000D01*
X163770000Y-90170000D02*
X163770000Y-90230000D01*
X163770000Y-90170000D02*
X166430000Y-90170000D01*
X163770000Y-90230000D02*
X166430000Y-90230000D01*
X166430000Y-90170000D02*
X166430000Y-90230000D01*
%TO.C,C2*%
X170080000Y-96630000D02*
X170395000Y-96630000D01*
X170080000Y-101570000D02*
X170080000Y-96630000D01*
X170080000Y-101570000D02*
X170395000Y-101570000D01*
X172505000Y-96630000D02*
X172820000Y-96630000D01*
X172505000Y-101570000D02*
X172820000Y-101570000D01*
X172820000Y-101570000D02*
X172820000Y-96630000D01*
%TO.C,C3*%
X194210000Y-86430000D02*
X194210000Y-91370000D01*
X194525000Y-86430000D02*
X194210000Y-86430000D01*
X194525000Y-91370000D02*
X194210000Y-91370000D01*
X196950000Y-86430000D02*
X196635000Y-86430000D01*
X196950000Y-86430000D02*
X196950000Y-91370000D01*
X196950000Y-91370000D02*
X196635000Y-91370000D01*
%TO.C,J2*%
X103826000Y-58614000D02*
X105156000Y-58614000D01*
X103826000Y-59944000D02*
X103826000Y-58614000D01*
X106426000Y-58614000D02*
X129346000Y-58614000D01*
X106426000Y-61274000D02*
X106426000Y-58614000D01*
X106426000Y-61274000D02*
X129346000Y-61274000D01*
X129346000Y-61274000D02*
X129346000Y-58614000D01*
%TO.C,J5*%
X152975000Y-99690000D02*
X152975000Y-102290000D01*
X152975000Y-99690000D02*
X155635000Y-99690000D01*
X152975000Y-102290000D02*
X155635000Y-102290000D01*
X154305000Y-97090000D02*
X155635000Y-97090000D01*
X155635000Y-97090000D02*
X155635000Y-98420000D01*
X155635000Y-99690000D02*
X155635000Y-102290000D01*
%TO.C,U2*%
X175200000Y-95190000D02*
X175200000Y-97850000D01*
X180340000Y-95190000D02*
X175200000Y-95190000D01*
X180340000Y-95190000D02*
X180340000Y-97850000D01*
X180340000Y-97850000D02*
X175200000Y-97850000D01*
X182940000Y-96520000D02*
X182940000Y-97850000D01*
X182940000Y-97850000D02*
X181610000Y-97850000D01*
%TO.C,Q1*%
X185525000Y-62175000D02*
X189125000Y-62175000D01*
X185486522Y-62163478D02*
G75*
G02*
X187325000Y-57724999I1838478J1838478D01*
G01*
X187325000Y-57725000D02*
G75*
G02*
X189163478Y-62163478I0J-2600000D01*
G01*
%TO.C,J3*%
X186509000Y-93920000D02*
X196430000Y-93920000D01*
X186509000Y-104200000D02*
X186509000Y-93920000D01*
X186509000Y-104200000D02*
X196430000Y-104200000D01*
X189469000Y-104200000D02*
X189469000Y-93920000D01*
X190495000Y-95450000D02*
X190531000Y-95485000D01*
X190701000Y-95245000D02*
X190747000Y-95292000D01*
X192793000Y-97747000D02*
X192839000Y-97794000D01*
X193009000Y-97554000D02*
X193044000Y-97589000D01*
X194370000Y-104200000D02*
X194370000Y-93920000D01*
X195870000Y-104200000D02*
X195870000Y-93920000D01*
X195930000Y-104440000D02*
X196670000Y-104440000D01*
X196430000Y-104200000D02*
X196430000Y-93920000D01*
X196670000Y-104440000D02*
X196670000Y-103940000D01*
X190234573Y-102283042D02*
G75*
G02*
X190235000Y-100916000I1535420J683041D01*
G01*
X191086958Y-100064573D02*
G75*
G02*
X192454000Y-100065000I683042J-1535427D01*
G01*
X192453042Y-103135427D02*
G75*
G02*
X191086000Y-103135000I-683041J1535420D01*
G01*
X193304756Y-100916682D02*
G75*
G02*
X193450000Y-101600000I-1534756J-683318D01*
G01*
X193450253Y-101571195D02*
G75*
G02*
X193305000Y-102284000I-1680254J-28806D01*
G01*
X193450000Y-96520000D02*
G75*
G02*
X190090000Y-96520000I-1680000J0D01*
G01*
X190090000Y-96520000D02*
G75*
G02*
X193450000Y-96520000I1680000J0D01*
G01*
%TO.C,U1*%
X145990000Y-63440000D02*
X145990000Y-66100000D01*
X145990000Y-81220000D02*
X145990000Y-83880000D01*
X194310000Y-63440000D02*
X145990000Y-63440000D01*
X194310000Y-63440000D02*
X194310000Y-66100000D01*
X194310000Y-66100000D02*
X145990000Y-66100000D01*
X195580000Y-63440000D02*
X196910000Y-63440000D01*
X196910000Y-63440000D02*
X196910000Y-64770000D01*
X196910000Y-81220000D02*
X145990000Y-81220000D01*
X196910000Y-81220000D02*
X196910000Y-82550000D01*
X196910000Y-81220000D02*
X196910000Y-83880000D01*
X196910000Y-83880000D02*
X145990000Y-83880000D01*
%TO.C,J1*%
X140275000Y-88205000D02*
X141605000Y-88205000D01*
X140275000Y-89535000D02*
X140275000Y-88205000D01*
X140275000Y-90805000D02*
X142875000Y-90805000D01*
X140275000Y-93405000D02*
X140275000Y-90805000D01*
X140275000Y-93405000D02*
X160715000Y-93405000D01*
X142875000Y-88205000D02*
X160715000Y-88205000D01*
X142875000Y-90805000D02*
X142875000Y-88205000D01*
X160715000Y-93405000D02*
X160715000Y-88205000D01*
%TO.C,J8*%
X169866000Y-90618000D02*
X169866000Y-93278000D01*
X175006000Y-90618000D02*
X169866000Y-90618000D01*
X175006000Y-90618000D02*
X175006000Y-93278000D01*
X175006000Y-93278000D02*
X169866000Y-93278000D01*
X176276000Y-90618000D02*
X177606000Y-90618000D01*
X177606000Y-90618000D02*
X177606000Y-91948000D01*
%TO.C,J4*%
X177105000Y-58995000D02*
X177105000Y-61655000D01*
X179705000Y-58995000D02*
X177105000Y-58995000D01*
X179705000Y-58995000D02*
X179705000Y-61655000D01*
X179705000Y-61655000D02*
X177105000Y-61655000D01*
X182305000Y-60325000D02*
X182305000Y-61655000D01*
X182305000Y-61655000D02*
X180975000Y-61655000D01*
%TO.C,SW1*%
X175200000Y-102930000D02*
X175200000Y-101600000D01*
X176530000Y-102930000D02*
X175200000Y-102930000D01*
X177800000Y-100270000D02*
X182940000Y-100270000D01*
X177800000Y-102930000D02*
X177800000Y-100270000D01*
X177800000Y-102930000D02*
X182940000Y-102930000D01*
X182940000Y-102930000D02*
X182940000Y-100270000D01*
%TO.C,C1*%
X169760000Y-98770000D02*
G75*
G02*
X165520000Y-98770000I-2120000J0D01*
G01*
X165520000Y-98770000D02*
G75*
G02*
X169760000Y-98770000I2120000J0D01*
G01*
%TD*%
M02*
