M48
; DRILL file {KiCad 8.0.9-8.0.9-0~ubuntu24.04.1} date 2026-04-27T20:14:07-0500
; FORMAT={-:-/ absolute / inch / decimal}
; #@! TF.CreationDate,2026-04-27T20:14:07-05:00
; #@! TF.GenerationSoftware,Kicad,Pcbnew,8.0.9-8.0.9-0~ubuntu24.04.1
; #@! TF.FileFunction,Plated,1,2,PTH
FMAT,2
INCH
; #@! TA.AperFunction,Plated,PTH,ComponentDrill
T1C0.0236
; #@! TA.AperFunction,Plated,PTH,ComponentDrill
T2C0.0315
; #@! TA.AperFunction,Plated,PTH,ComponentDrill
T3C0.0394
; #@! TA.AperFunction,Plated,PTH,ComponentDrill
T4C0.0512
%
G90
G05
T1
X6.7Y-4.4
X6.7Y-4.4591
X7.05Y-4.0
X7.05Y-4.0591
T2
X6.9Y-4.4
X6.9Y-4.5969
X7.3Y-3.9516
X7.3Y-4.1484
T3
X3.25Y-3.1
X3.35Y-3.1
X3.45Y-3.1
X3.55Y-3.1
X3.65Y-3.1
X3.75Y-3.1
X3.85Y-3.1
X3.95Y-3.1
X4.05Y-3.1
X4.15Y-3.1
X4.8Y-3.1
X4.8Y-3.2
X4.8Y-3.3
X4.8Y-3.4
X4.8Y-3.5
X4.8Y-3.6
X4.8Y-3.7
X4.8Y-3.8
X4.9Y-3.1
X4.9Y-3.2
X4.9Y-3.3
X4.9Y-3.4
X4.9Y-3.5
X4.9Y-3.6
X4.9Y-3.7
X4.9Y-3.8
X5.35Y-4.1
X5.45Y-4.1
X5.5Y-3.1
X5.5Y-3.8
X5.55Y-4.45
X5.6Y-3.1
X5.6Y-3.8
X5.65Y-4.45
X5.7Y-3.1
X5.7Y-3.8
X5.75Y-4.45
X5.8Y-3.1
X5.8Y-3.8
X5.9Y-3.1
X5.9Y-3.8
X6.0Y-3.1
X6.0Y-3.8
X6.1Y-3.1
X6.1Y-3.8
X6.2Y-3.1
X6.2Y-3.8
X6.25Y-4.45
X6.3Y-3.1
X6.3Y-3.8
X6.35Y-4.45
X6.4Y-3.1
X6.4Y-3.8
X6.45Y-4.45
X6.5Y-3.1
X6.5Y-3.8
X6.6Y-3.1
X6.6Y-3.8
X6.7Y-3.1
X6.7Y-3.8
X6.8Y-3.1
X6.8Y-3.8
X6.9Y-3.1
X6.9Y-3.8
X7.0Y-3.1
X7.0Y-3.8
X7.1Y-3.1
X7.1Y-3.8
X7.2Y-3.1
X7.2Y-3.8
X7.3Y-3.1
X7.3Y-3.8
X7.4Y-3.1
X7.4Y-3.8
T4
X7.25Y-4.35
X7.25Y-4.55
M30
