%TF.GenerationSoftware,KiCad,Pcbnew,8.0.9-8.0.9-0~ubuntu24.04.1*%
%TF.CreationDate,2026-04-27T20:09:34-05:00*%
%TF.ProjectId,texteditor,74657874-6564-4697-946f-722e6b696361,rev?*%
%TF.SameCoordinates,Original*%
%TF.FileFunction,Legend,Top*%
%TF.FilePolarity,Positive*%
%FSLAX46Y46*%
G04 Gerber Fmt 4.6, Leading zero omitted, Abs format (unit mm)*
G04 Created by KiCad (PCBNEW 8.0.9-8.0.9-0~ubuntu24.04.1) date 2026-04-27 20:09:34*
%MOMM*%
%LPD*%
G01*
G04 APERTURE LIST*
%ADD10C,0.100000*%
%ADD11C,0.150000*%
%ADD12C,0.120000*%
G04 APERTURE END LIST*
D10*
X122795312Y-117887180D02*
X122747693Y-117934800D01*
X122747693Y-117934800D02*
X122604836Y-117982419D01*
X122604836Y-117982419D02*
X122509598Y-117982419D01*
X122509598Y-117982419D02*
X122366741Y-117934800D01*
X122366741Y-117934800D02*
X122271503Y-117839561D01*
X122271503Y-117839561D02*
X122223884Y-117744323D01*
X122223884Y-117744323D02*
X122176265Y-117553847D01*
X122176265Y-117553847D02*
X122176265Y-117410990D01*
X122176265Y-117410990D02*
X122223884Y-117220514D01*
X122223884Y-117220514D02*
X122271503Y-117125276D01*
X122271503Y-117125276D02*
X122366741Y-117030038D01*
X122366741Y-117030038D02*
X122509598Y-116982419D01*
X122509598Y-116982419D02*
X122604836Y-116982419D01*
X122604836Y-116982419D02*
X122747693Y-117030038D01*
X122747693Y-117030038D02*
X122795312Y-117077657D01*
X123366741Y-117982419D02*
X123271503Y-117934800D01*
X123271503Y-117934800D02*
X123223884Y-117887180D01*
X123223884Y-117887180D02*
X123176265Y-117791942D01*
X123176265Y-117791942D02*
X123176265Y-117506228D01*
X123176265Y-117506228D02*
X123223884Y-117410990D01*
X123223884Y-117410990D02*
X123271503Y-117363371D01*
X123271503Y-117363371D02*
X123366741Y-117315752D01*
X123366741Y-117315752D02*
X123509598Y-117315752D01*
X123509598Y-117315752D02*
X123604836Y-117363371D01*
X123604836Y-117363371D02*
X123652455Y-117410990D01*
X123652455Y-117410990D02*
X123700074Y-117506228D01*
X123700074Y-117506228D02*
X123700074Y-117791942D01*
X123700074Y-117791942D02*
X123652455Y-117887180D01*
X123652455Y-117887180D02*
X123604836Y-117934800D01*
X123604836Y-117934800D02*
X123509598Y-117982419D01*
X123509598Y-117982419D02*
X123366741Y-117982419D01*
X124557217Y-117982419D02*
X124557217Y-116982419D01*
X124557217Y-117934800D02*
X124461979Y-117982419D01*
X124461979Y-117982419D02*
X124271503Y-117982419D01*
X124271503Y-117982419D02*
X124176265Y-117934800D01*
X124176265Y-117934800D02*
X124128646Y-117887180D01*
X124128646Y-117887180D02*
X124081027Y-117791942D01*
X124081027Y-117791942D02*
X124081027Y-117506228D01*
X124081027Y-117506228D02*
X124128646Y-117410990D01*
X124128646Y-117410990D02*
X124176265Y-117363371D01*
X124176265Y-117363371D02*
X124271503Y-117315752D01*
X124271503Y-117315752D02*
X124461979Y-117315752D01*
X124461979Y-117315752D02*
X124557217Y-117363371D01*
X125414360Y-117934800D02*
X125319122Y-117982419D01*
X125319122Y-117982419D02*
X125128646Y-117982419D01*
X125128646Y-117982419D02*
X125033408Y-117934800D01*
X125033408Y-117934800D02*
X124985789Y-117839561D01*
X124985789Y-117839561D02*
X124985789Y-117458609D01*
X124985789Y-117458609D02*
X125033408Y-117363371D01*
X125033408Y-117363371D02*
X125128646Y-117315752D01*
X125128646Y-117315752D02*
X125319122Y-117315752D01*
X125319122Y-117315752D02*
X125414360Y-117363371D01*
X125414360Y-117363371D02*
X125461979Y-117458609D01*
X125461979Y-117458609D02*
X125461979Y-117553847D01*
X125461979Y-117553847D02*
X124985789Y-117649085D01*
X125795313Y-117982419D02*
X126319122Y-117315752D01*
X125795313Y-117315752D02*
X126319122Y-117982419D01*
X128033408Y-117982419D02*
X127700075Y-117506228D01*
X127461980Y-117982419D02*
X127461980Y-116982419D01*
X127461980Y-116982419D02*
X127842932Y-116982419D01*
X127842932Y-116982419D02*
X127938170Y-117030038D01*
X127938170Y-117030038D02*
X127985789Y-117077657D01*
X127985789Y-117077657D02*
X128033408Y-117172895D01*
X128033408Y-117172895D02*
X128033408Y-117315752D01*
X128033408Y-117315752D02*
X127985789Y-117410990D01*
X127985789Y-117410990D02*
X127938170Y-117458609D01*
X127938170Y-117458609D02*
X127842932Y-117506228D01*
X127842932Y-117506228D02*
X127461980Y-117506228D01*
X128842932Y-117934800D02*
X128747694Y-117982419D01*
X128747694Y-117982419D02*
X128557218Y-117982419D01*
X128557218Y-117982419D02*
X128461980Y-117934800D01*
X128461980Y-117934800D02*
X128414361Y-117839561D01*
X128414361Y-117839561D02*
X128414361Y-117458609D01*
X128414361Y-117458609D02*
X128461980Y-117363371D01*
X128461980Y-117363371D02*
X128557218Y-117315752D01*
X128557218Y-117315752D02*
X128747694Y-117315752D01*
X128747694Y-117315752D02*
X128842932Y-117363371D01*
X128842932Y-117363371D02*
X128890551Y-117458609D01*
X128890551Y-117458609D02*
X128890551Y-117553847D01*
X128890551Y-117553847D02*
X128414361Y-117649085D01*
X129223885Y-117315752D02*
X129461980Y-117982419D01*
X129461980Y-117982419D02*
X129700075Y-117315752D01*
X130271504Y-116982419D02*
X130366742Y-116982419D01*
X130366742Y-116982419D02*
X130461980Y-117030038D01*
X130461980Y-117030038D02*
X130509599Y-117077657D01*
X130509599Y-117077657D02*
X130557218Y-117172895D01*
X130557218Y-117172895D02*
X130604837Y-117363371D01*
X130604837Y-117363371D02*
X130604837Y-117601466D01*
X130604837Y-117601466D02*
X130557218Y-117791942D01*
X130557218Y-117791942D02*
X130509599Y-117887180D01*
X130509599Y-117887180D02*
X130461980Y-117934800D01*
X130461980Y-117934800D02*
X130366742Y-117982419D01*
X130366742Y-117982419D02*
X130271504Y-117982419D01*
X130271504Y-117982419D02*
X130176266Y-117934800D01*
X130176266Y-117934800D02*
X130128647Y-117887180D01*
X130128647Y-117887180D02*
X130081028Y-117791942D01*
X130081028Y-117791942D02*
X130033409Y-117601466D01*
X130033409Y-117601466D02*
X130033409Y-117363371D01*
X130033409Y-117363371D02*
X130081028Y-117172895D01*
X130081028Y-117172895D02*
X130128647Y-117077657D01*
X130128647Y-117077657D02*
X130176266Y-117030038D01*
X130176266Y-117030038D02*
X130271504Y-116982419D01*
X132383884Y-104901466D02*
X133145789Y-104901466D01*
X141273884Y-104901466D02*
X142035789Y-104901466D01*
X141654836Y-105282419D02*
X141654836Y-104520514D01*
D11*
X182679580Y-102516666D02*
X182727200Y-102564285D01*
X182727200Y-102564285D02*
X182774819Y-102707142D01*
X182774819Y-102707142D02*
X182774819Y-102802380D01*
X182774819Y-102802380D02*
X182727200Y-102945237D01*
X182727200Y-102945237D02*
X182631961Y-103040475D01*
X182631961Y-103040475D02*
X182536723Y-103088094D01*
X182536723Y-103088094D02*
X182346247Y-103135713D01*
X182346247Y-103135713D02*
X182203390Y-103135713D01*
X182203390Y-103135713D02*
X182012914Y-103088094D01*
X182012914Y-103088094D02*
X181917676Y-103040475D01*
X181917676Y-103040475D02*
X181822438Y-102945237D01*
X181822438Y-102945237D02*
X181774819Y-102802380D01*
X181774819Y-102802380D02*
X181774819Y-102707142D01*
X181774819Y-102707142D02*
X181822438Y-102564285D01*
X181822438Y-102564285D02*
X181870057Y-102516666D01*
X182108152Y-101659523D02*
X182774819Y-101659523D01*
X181727200Y-101897618D02*
X182441485Y-102135713D01*
X182441485Y-102135713D02*
X182441485Y-101516666D01*
X178119580Y-114426666D02*
X178167200Y-114474285D01*
X178167200Y-114474285D02*
X178214819Y-114617142D01*
X178214819Y-114617142D02*
X178214819Y-114712380D01*
X178214819Y-114712380D02*
X178167200Y-114855237D01*
X178167200Y-114855237D02*
X178071961Y-114950475D01*
X178071961Y-114950475D02*
X177976723Y-114998094D01*
X177976723Y-114998094D02*
X177786247Y-115045713D01*
X177786247Y-115045713D02*
X177643390Y-115045713D01*
X177643390Y-115045713D02*
X177452914Y-114998094D01*
X177452914Y-114998094D02*
X177357676Y-114950475D01*
X177357676Y-114950475D02*
X177262438Y-114855237D01*
X177262438Y-114855237D02*
X177214819Y-114712380D01*
X177214819Y-114712380D02*
X177214819Y-114617142D01*
X177214819Y-114617142D02*
X177262438Y-114474285D01*
X177262438Y-114474285D02*
X177310057Y-114426666D01*
X177310057Y-114045713D02*
X177262438Y-113998094D01*
X177262438Y-113998094D02*
X177214819Y-113902856D01*
X177214819Y-113902856D02*
X177214819Y-113664761D01*
X177214819Y-113664761D02*
X177262438Y-113569523D01*
X177262438Y-113569523D02*
X177310057Y-113521904D01*
X177310057Y-113521904D02*
X177405295Y-113474285D01*
X177405295Y-113474285D02*
X177500533Y-113474285D01*
X177500533Y-113474285D02*
X177643390Y-113521904D01*
X177643390Y-113521904D02*
X178214819Y-114093332D01*
X178214819Y-114093332D02*
X178214819Y-113474285D01*
X188279580Y-103036666D02*
X188327200Y-103084285D01*
X188327200Y-103084285D02*
X188374819Y-103227142D01*
X188374819Y-103227142D02*
X188374819Y-103322380D01*
X188374819Y-103322380D02*
X188327200Y-103465237D01*
X188327200Y-103465237D02*
X188231961Y-103560475D01*
X188231961Y-103560475D02*
X188136723Y-103608094D01*
X188136723Y-103608094D02*
X187946247Y-103655713D01*
X187946247Y-103655713D02*
X187803390Y-103655713D01*
X187803390Y-103655713D02*
X187612914Y-103608094D01*
X187612914Y-103608094D02*
X187517676Y-103560475D01*
X187517676Y-103560475D02*
X187422438Y-103465237D01*
X187422438Y-103465237D02*
X187374819Y-103322380D01*
X187374819Y-103322380D02*
X187374819Y-103227142D01*
X187374819Y-103227142D02*
X187422438Y-103084285D01*
X187422438Y-103084285D02*
X187470057Y-103036666D01*
X187374819Y-102703332D02*
X187374819Y-102084285D01*
X187374819Y-102084285D02*
X187755771Y-102417618D01*
X187755771Y-102417618D02*
X187755771Y-102274761D01*
X187755771Y-102274761D02*
X187803390Y-102179523D01*
X187803390Y-102179523D02*
X187851009Y-102131904D01*
X187851009Y-102131904D02*
X187946247Y-102084285D01*
X187946247Y-102084285D02*
X188184342Y-102084285D01*
X188184342Y-102084285D02*
X188279580Y-102131904D01*
X188279580Y-102131904D02*
X188327200Y-102179523D01*
X188327200Y-102179523D02*
X188374819Y-102274761D01*
X188374819Y-102274761D02*
X188374819Y-102560475D01*
X188374819Y-102560475D02*
X188327200Y-102655713D01*
X188327200Y-102655713D02*
X188279580Y-102703332D01*
X107634819Y-79073333D02*
X108349104Y-79073333D01*
X108349104Y-79073333D02*
X108491961Y-79120952D01*
X108491961Y-79120952D02*
X108587200Y-79216190D01*
X108587200Y-79216190D02*
X108634819Y-79359047D01*
X108634819Y-79359047D02*
X108634819Y-79454285D01*
X107730057Y-78644761D02*
X107682438Y-78597142D01*
X107682438Y-78597142D02*
X107634819Y-78501904D01*
X107634819Y-78501904D02*
X107634819Y-78263809D01*
X107634819Y-78263809D02*
X107682438Y-78168571D01*
X107682438Y-78168571D02*
X107730057Y-78120952D01*
X107730057Y-78120952D02*
X107825295Y-78073333D01*
X107825295Y-78073333D02*
X107920533Y-78073333D01*
X107920533Y-78073333D02*
X108063390Y-78120952D01*
X108063390Y-78120952D02*
X108634819Y-78692380D01*
X108634819Y-78692380D02*
X108634819Y-78073333D01*
X166054819Y-113791904D02*
X166864342Y-113791904D01*
X166864342Y-113791904D02*
X166959580Y-113744285D01*
X166959580Y-113744285D02*
X167007200Y-113696666D01*
X167007200Y-113696666D02*
X167054819Y-113601428D01*
X167054819Y-113601428D02*
X167054819Y-113410952D01*
X167054819Y-113410952D02*
X167007200Y-113315714D01*
X167007200Y-113315714D02*
X166959580Y-113268095D01*
X166959580Y-113268095D02*
X166864342Y-113220476D01*
X166864342Y-113220476D02*
X166054819Y-113220476D01*
X166150057Y-112791904D02*
X166102438Y-112744285D01*
X166102438Y-112744285D02*
X166054819Y-112649047D01*
X166054819Y-112649047D02*
X166054819Y-112410952D01*
X166054819Y-112410952D02*
X166102438Y-112315714D01*
X166102438Y-112315714D02*
X166150057Y-112268095D01*
X166150057Y-112268095D02*
X166245295Y-112220476D01*
X166245295Y-112220476D02*
X166340533Y-112220476D01*
X166340533Y-112220476D02*
X166483390Y-112268095D01*
X166483390Y-112268095D02*
X167054819Y-112839523D01*
X167054819Y-112839523D02*
X167054819Y-112220476D01*
X177344819Y-113363333D02*
X178059104Y-113363333D01*
X178059104Y-113363333D02*
X178201961Y-113410952D01*
X178201961Y-113410952D02*
X178297200Y-113506190D01*
X178297200Y-113506190D02*
X178344819Y-113649047D01*
X178344819Y-113649047D02*
X178344819Y-113744285D01*
X177344819Y-112982380D02*
X177344819Y-112363333D01*
X177344819Y-112363333D02*
X177725771Y-112696666D01*
X177725771Y-112696666D02*
X177725771Y-112553809D01*
X177725771Y-112553809D02*
X177773390Y-112458571D01*
X177773390Y-112458571D02*
X177821009Y-112410952D01*
X177821009Y-112410952D02*
X177916247Y-112363333D01*
X177916247Y-112363333D02*
X178154342Y-112363333D01*
X178154342Y-112363333D02*
X178249580Y-112410952D01*
X178249580Y-112410952D02*
X178297200Y-112458571D01*
X178297200Y-112458571D02*
X178344819Y-112553809D01*
X178344819Y-112553809D02*
X178344819Y-112839523D01*
X178344819Y-112839523D02*
X178297200Y-112934761D01*
X178297200Y-112934761D02*
X178249580Y-112982380D01*
X189744819Y-79501904D02*
X190554342Y-79501904D01*
X190554342Y-79501904D02*
X190649580Y-79454285D01*
X190649580Y-79454285D02*
X190697200Y-79406666D01*
X190697200Y-79406666D02*
X190744819Y-79311428D01*
X190744819Y-79311428D02*
X190744819Y-79120952D01*
X190744819Y-79120952D02*
X190697200Y-79025714D01*
X190697200Y-79025714D02*
X190649580Y-78978095D01*
X190649580Y-78978095D02*
X190554342Y-78930476D01*
X190554342Y-78930476D02*
X189744819Y-78930476D01*
X190744819Y-77930476D02*
X190744819Y-78501904D01*
X190744819Y-78216190D02*
X189744819Y-78216190D01*
X189744819Y-78216190D02*
X189887676Y-78311428D01*
X189887676Y-78311428D02*
X189982914Y-78406666D01*
X189982914Y-78406666D02*
X190030533Y-78501904D01*
X122856666Y-75424819D02*
X122856666Y-76139104D01*
X122856666Y-76139104D02*
X122809047Y-76281961D01*
X122809047Y-76281961D02*
X122713809Y-76377200D01*
X122713809Y-76377200D02*
X122570952Y-76424819D01*
X122570952Y-76424819D02*
X122475714Y-76424819D01*
X123856666Y-76424819D02*
X123285238Y-76424819D01*
X123570952Y-76424819D02*
X123570952Y-75424819D01*
X123570952Y-75424819D02*
X123475714Y-75567676D01*
X123475714Y-75567676D02*
X123380476Y-75662914D01*
X123380476Y-75662914D02*
X123285238Y-75710533D01*
X136517142Y-107134819D02*
X136040952Y-107134819D01*
X136040952Y-107134819D02*
X136040952Y-106134819D01*
X136850476Y-106611009D02*
X137183809Y-106611009D01*
X137326666Y-107134819D02*
X136850476Y-107134819D01*
X136850476Y-107134819D02*
X136850476Y-106134819D01*
X136850476Y-106134819D02*
X137326666Y-106134819D01*
X137755238Y-107134819D02*
X137755238Y-106134819D01*
X137755238Y-106134819D02*
X137993333Y-106134819D01*
X137993333Y-106134819D02*
X138136190Y-106182438D01*
X138136190Y-106182438D02*
X138231428Y-106277676D01*
X138231428Y-106277676D02*
X138279047Y-106372914D01*
X138279047Y-106372914D02*
X138326666Y-106563390D01*
X138326666Y-106563390D02*
X138326666Y-106706247D01*
X138326666Y-106706247D02*
X138279047Y-106896723D01*
X138279047Y-106896723D02*
X138231428Y-106991961D01*
X138231428Y-106991961D02*
X138136190Y-107087200D01*
X138136190Y-107087200D02*
X137993333Y-107134819D01*
X137993333Y-107134819D02*
X137755238Y-107134819D01*
X173789580Y-112676666D02*
X173837200Y-112724285D01*
X173837200Y-112724285D02*
X173884819Y-112867142D01*
X173884819Y-112867142D02*
X173884819Y-112962380D01*
X173884819Y-112962380D02*
X173837200Y-113105237D01*
X173837200Y-113105237D02*
X173741961Y-113200475D01*
X173741961Y-113200475D02*
X173646723Y-113248094D01*
X173646723Y-113248094D02*
X173456247Y-113295713D01*
X173456247Y-113295713D02*
X173313390Y-113295713D01*
X173313390Y-113295713D02*
X173122914Y-113248094D01*
X173122914Y-113248094D02*
X173027676Y-113200475D01*
X173027676Y-113200475D02*
X172932438Y-113105237D01*
X172932438Y-113105237D02*
X172884819Y-112962380D01*
X172884819Y-112962380D02*
X172884819Y-112867142D01*
X172884819Y-112867142D02*
X172932438Y-112724285D01*
X172932438Y-112724285D02*
X172980057Y-112676666D01*
X173884819Y-111724285D02*
X173884819Y-112295713D01*
X173884819Y-112009999D02*
X172884819Y-112009999D01*
X172884819Y-112009999D02*
X173027676Y-112105237D01*
X173027676Y-112105237D02*
X173122914Y-112200475D01*
X173122914Y-112200475D02*
X173170533Y-112295713D01*
X139047200Y-114363332D02*
X139094819Y-114220475D01*
X139094819Y-114220475D02*
X139094819Y-113982380D01*
X139094819Y-113982380D02*
X139047200Y-113887142D01*
X139047200Y-113887142D02*
X138999580Y-113839523D01*
X138999580Y-113839523D02*
X138904342Y-113791904D01*
X138904342Y-113791904D02*
X138809104Y-113791904D01*
X138809104Y-113791904D02*
X138713866Y-113839523D01*
X138713866Y-113839523D02*
X138666247Y-113887142D01*
X138666247Y-113887142D02*
X138618628Y-113982380D01*
X138618628Y-113982380D02*
X138571009Y-114172856D01*
X138571009Y-114172856D02*
X138523390Y-114268094D01*
X138523390Y-114268094D02*
X138475771Y-114315713D01*
X138475771Y-114315713D02*
X138380533Y-114363332D01*
X138380533Y-114363332D02*
X138285295Y-114363332D01*
X138285295Y-114363332D02*
X138190057Y-114315713D01*
X138190057Y-114315713D02*
X138142438Y-114268094D01*
X138142438Y-114268094D02*
X138094819Y-114172856D01*
X138094819Y-114172856D02*
X138094819Y-113934761D01*
X138094819Y-113934761D02*
X138142438Y-113791904D01*
X138094819Y-113458570D02*
X139094819Y-113220475D01*
X139094819Y-113220475D02*
X138380533Y-113029999D01*
X138380533Y-113029999D02*
X139094819Y-112839523D01*
X139094819Y-112839523D02*
X138094819Y-112601428D01*
X139094819Y-111696666D02*
X139094819Y-112268094D01*
X139094819Y-111982380D02*
X138094819Y-111982380D01*
X138094819Y-111982380D02*
X138237676Y-112077618D01*
X138237676Y-112077618D02*
X138332914Y-112172856D01*
X138332914Y-112172856D02*
X138380533Y-112268094D01*
D12*
%TO.C,C4*%
X181190000Y-102350000D02*
G75*
G02*
X176950000Y-102350000I-2120000J0D01*
G01*
X176950000Y-102350000D02*
G75*
G02*
X181190000Y-102350000I2120000J0D01*
G01*
%TO.C,C2*%
X173890000Y-111790000D02*
X173890000Y-116730000D01*
X174205000Y-111790000D02*
X173890000Y-111790000D01*
X174205000Y-116730000D02*
X173890000Y-116730000D01*
X176630000Y-111790000D02*
X176315000Y-111790000D01*
X176630000Y-111790000D02*
X176630000Y-116730000D01*
X176630000Y-116730000D02*
X176315000Y-116730000D01*
%TO.C,C3*%
X184050000Y-100400000D02*
X184050000Y-105340000D01*
X184365000Y-100400000D02*
X184050000Y-100400000D01*
X184365000Y-105340000D02*
X184050000Y-105340000D01*
X186790000Y-100400000D02*
X186475000Y-100400000D01*
X186790000Y-100400000D02*
X186790000Y-105340000D01*
X186790000Y-105340000D02*
X186475000Y-105340000D01*
%TO.C,J2*%
X81220000Y-77410000D02*
X81220000Y-80070000D01*
X104140000Y-77410000D02*
X81220000Y-77410000D01*
X104140000Y-77410000D02*
X104140000Y-80070000D01*
X104140000Y-80070000D02*
X81220000Y-80070000D01*
X106740000Y-78740000D02*
X106740000Y-80070000D01*
X106740000Y-80070000D02*
X105410000Y-80070000D01*
%TO.C,U2*%
X157420000Y-111700000D02*
X157420000Y-114360000D01*
X162560000Y-111700000D02*
X157420000Y-111700000D01*
X162560000Y-111700000D02*
X162560000Y-114360000D01*
X162560000Y-114360000D02*
X157420000Y-114360000D01*
X165160000Y-113030000D02*
X165160000Y-114360000D01*
X165160000Y-114360000D02*
X163830000Y-114360000D01*
%TO.C,J3*%
X178889000Y-107890000D02*
X188810000Y-107890000D01*
X178889000Y-118170000D02*
X178889000Y-107890000D01*
X178889000Y-118170000D02*
X188810000Y-118170000D01*
X181849000Y-118170000D02*
X181849000Y-107890000D01*
X182875000Y-109420000D02*
X182911000Y-109455000D01*
X183081000Y-109215000D02*
X183127000Y-109262000D01*
X185173000Y-111717000D02*
X185219000Y-111764000D01*
X185389000Y-111524000D02*
X185424000Y-111559000D01*
X186750000Y-118170000D02*
X186750000Y-107890000D01*
X188250000Y-118170000D02*
X188250000Y-107890000D01*
X188310000Y-118410000D02*
X189050000Y-118410000D01*
X188810000Y-118170000D02*
X188810000Y-107890000D01*
X189050000Y-118410000D02*
X189050000Y-117910000D01*
X182614573Y-116253042D02*
G75*
G02*
X182615000Y-114886000I1535420J683041D01*
G01*
X183466958Y-114034573D02*
G75*
G02*
X184834000Y-114035000I683042J-1535427D01*
G01*
X184833042Y-117105427D02*
G75*
G02*
X183466000Y-117105000I-683041J1535420D01*
G01*
X185684756Y-114886682D02*
G75*
G02*
X185830000Y-115570000I-1534756J-683318D01*
G01*
X185830253Y-115541195D02*
G75*
G02*
X185685000Y-116254000I-1680254J-28806D01*
G01*
X185830000Y-110490000D02*
G75*
G02*
X182470000Y-110490000I-1680000J0D01*
G01*
X182470000Y-110490000D02*
G75*
G02*
X185830000Y-110490000I1680000J0D01*
G01*
%TO.C,U1*%
X138370000Y-77410000D02*
X138370000Y-80070000D01*
X138370000Y-95190000D02*
X138370000Y-97850000D01*
X186690000Y-77410000D02*
X138370000Y-77410000D01*
X186690000Y-77410000D02*
X186690000Y-80070000D01*
X186690000Y-80070000D02*
X138370000Y-80070000D01*
X187960000Y-77410000D02*
X189290000Y-77410000D01*
X189290000Y-77410000D02*
X189290000Y-78740000D01*
X189290000Y-95190000D02*
X138370000Y-95190000D01*
X189290000Y-95190000D02*
X189290000Y-96520000D01*
X189290000Y-95190000D02*
X189290000Y-97850000D01*
X189290000Y-97850000D02*
X138370000Y-97850000D01*
%TO.C,J1*%
X120590000Y-77410000D02*
X120590000Y-97850000D01*
X120590000Y-77410000D02*
X123190000Y-77410000D01*
X120590000Y-97850000D02*
X125790000Y-97850000D01*
X123190000Y-77410000D02*
X123190000Y-80010000D01*
X123190000Y-80010000D02*
X125790000Y-80010000D01*
X124460000Y-77410000D02*
X125790000Y-77410000D01*
X125790000Y-77410000D02*
X125790000Y-78740000D01*
X125790000Y-80010000D02*
X125790000Y-97850000D01*
%TO.C,LED*%
X134560000Y-102810000D02*
X134560000Y-105470000D01*
X137160000Y-102810000D02*
X134560000Y-102810000D01*
X137160000Y-102810000D02*
X137160000Y-105470000D01*
X137160000Y-105470000D02*
X134560000Y-105470000D01*
X139760000Y-104140000D02*
X139760000Y-105470000D01*
X139760000Y-105470000D02*
X138430000Y-105470000D01*
%TO.C,C1*%
X172300000Y-112510000D02*
G75*
G02*
X168060000Y-112510000I-2120000J0D01*
G01*
X168060000Y-112510000D02*
G75*
G02*
X172300000Y-112510000I2120000J0D01*
G01*
%TO.C,SW1*%
X139640000Y-114360000D02*
X139640000Y-113030000D01*
X140970000Y-114360000D02*
X139640000Y-114360000D01*
X142240000Y-111700000D02*
X147380000Y-111700000D01*
X142240000Y-114360000D02*
X142240000Y-111700000D01*
X142240000Y-114360000D02*
X147380000Y-114360000D01*
X147380000Y-114360000D02*
X147380000Y-111700000D01*
%TD*%
M02*
