%TF.GenerationSoftware,KiCad,Pcbnew,8.0.9-8.0.9-0~ubuntu24.04.1*%
%TF.CreationDate,2026-06-06T21:17:52-05:00*%
%TF.ProjectId,texteditor,74657874-6564-4697-946f-722e6b696361,rev?*%
%TF.SameCoordinates,Original*%
%TF.FileFunction,Copper,L1,Top*%
%TF.FilePolarity,Positive*%
%FSLAX46Y46*%
G04 Gerber Fmt 4.6, Leading zero omitted, Abs format (unit mm)*
G04 Created by KiCad (PCBNEW 8.0.9-8.0.9-0~ubuntu24.04.1) date 2026-06-06 21:17:52*
%MOMM*%
%LPD*%
G01*
G04 APERTURE LIST*
%TA.AperFunction,ComponentPad*%
%ADD10R,1.700000X1.700000*%
%TD*%
%TA.AperFunction,ComponentPad*%
%ADD11O,1.700000X1.700000*%
%TD*%
%TA.AperFunction,ComponentPad*%
%ADD12C,1.400000*%
%TD*%
%TA.AperFunction,ComponentPad*%
%ADD13O,1.400000X1.400000*%
%TD*%
%TA.AperFunction,ComponentPad*%
%ADD14C,1.700000*%
%TD*%
%TA.AperFunction,ComponentPad*%
%ADD15C,1.200000*%
%TD*%
%TA.AperFunction,ComponentPad*%
%ADD16C,1.600000*%
%TD*%
%TA.AperFunction,ComponentPad*%
%ADD17R,1.050000X1.500000*%
%TD*%
%TA.AperFunction,ComponentPad*%
%ADD18O,1.050000X1.500000*%
%TD*%
%TA.AperFunction,ComponentPad*%
%ADD19R,2.600000X2.600000*%
%TD*%
%TA.AperFunction,ComponentPad*%
%ADD20C,2.600000*%
%TD*%
%TA.AperFunction,ViaPad*%
%ADD21C,0.600000*%
%TD*%
%TA.AperFunction,Conductor*%
%ADD22C,0.200000*%
%TD*%
G04 APERTURE END LIST*
D10*
%TO.P,J7,1,Pin_1*%
%TO.N,+5V*%
X176276000Y-87298000D03*
D11*
%TO.P,J7,2,Pin_2*%
X173736000Y-87298000D03*
%TO.P,J7,3,Pin_3*%
X171196000Y-87298000D03*
%TD*%
D12*
%TO.P,R1,1*%
%TO.N,PWM*%
X166116000Y-60452000D03*
D13*
%TO.P,R1,2*%
%TO.N,Net-(Q1-B)*%
X173736000Y-60452000D03*
%TD*%
D10*
%TO.P,U1,1,GP0*%
%TO.N,unconnected-(U1-GP0-Pad1)*%
X195580000Y-64770000D03*
D11*
%TO.P,U1,2,GP1*%
%TO.N,unconnected-(U1-GP1-Pad2)*%
X193040000Y-64770000D03*
%TO.P,U1,3,GND*%
%TO.N,unconnected-(U1-GND-Pad3)*%
X190500000Y-64770000D03*
%TO.P,U1,4,GP2*%
%TO.N,unconnected-(U1-GP2-Pad4)*%
X187960000Y-64770000D03*
%TO.P,U1,5,GP3*%
%TO.N,unconnected-(U1-GP3-Pad5)*%
X185420000Y-64770000D03*
%TO.P,U1,6,GP4*%
%TO.N,unconnected-(U1-GP4-Pad6)*%
X182880000Y-64770000D03*
%TO.P,U1,7,GP5*%
%TO.N,unconnected-(U1-GP5-Pad7)*%
X180340000Y-64770000D03*
%TO.P,U1,8,GND*%
%TO.N,unconnected-(U1-GND-Pad8)*%
X177800000Y-64770000D03*
%TO.P,U1,9,GP6*%
%TO.N,unconnected-(U1-GP6-Pad9)*%
X175260000Y-64770000D03*
%TO.P,U1,10,GP7*%
%TO.N,unconnected-(U1-GP7-Pad10)*%
X172720000Y-64770000D03*
%TO.P,U1,11,GP8*%
%TO.N,unconnected-(U1-GP8-Pad11)*%
X170180000Y-64770000D03*
%TO.P,U1,12,GP9*%
%TO.N,PWM*%
X167640000Y-64770000D03*
%TO.P,U1,13,GND*%
%TO.N,unconnected-(U1-GND-Pad13)*%
X165100000Y-64770000D03*
%TO.P,U1,14,GP10*%
%TO.N,unconnected-(U1-GP10-Pad14)*%
X162560000Y-64770000D03*
%TO.P,U1,15,GP11*%
%TO.N,CD*%
X160020000Y-64770000D03*
%TO.P,U1,16,GP12*%
%TO.N,D5*%
X157480000Y-64770000D03*
%TO.P,U1,17,GP13*%
%TO.N,D7*%
X154940000Y-64770000D03*
%TO.P,U1,18,GND*%
%TO.N,unconnected-(U1-GND-Pad18)*%
X152400000Y-64770000D03*
%TO.P,U1,19,GP14*%
%TO.N,D4*%
X149860000Y-64770000D03*
%TO.P,U1,20,GP15*%
%TO.N,D6*%
X147320000Y-64770000D03*
%TO.P,U1,21,GP16*%
%TO.N,RX*%
X147320000Y-82550000D03*
%TO.P,U1,22,GP17*%
%TO.N,CS*%
X149860000Y-82550000D03*
%TO.P,U1,23,GND*%
%TO.N,unconnected-(U1-GND-Pad23)*%
X152400000Y-82550000D03*
%TO.P,U1,24,GP18*%
%TO.N,SCK*%
X154940000Y-82550000D03*
%TO.P,U1,25,GP19*%
%TO.N,TX*%
X157480000Y-82550000D03*
%TO.P,U1,26,GP20*%
%TO.N,E2*%
X160020000Y-82550000D03*
%TO.P,U1,27,GP21*%
%TO.N,RS*%
X162560000Y-82550000D03*
%TO.P,U1,28,GND*%
%TO.N,unconnected-(U1-GND-Pad28)*%
X165100000Y-82550000D03*
%TO.P,U1,29,GP22*%
%TO.N,E1*%
X167640000Y-82550000D03*
%TO.P,U1,30,RUN*%
%TO.N,unconnected-(U1-RUN-Pad30)*%
X170180000Y-82550000D03*
%TO.P,U1,31,GP27_A1*%
%TO.N,unconnected-(U1-GP27_A1-Pad31)*%
X172720000Y-82550000D03*
%TO.P,U1,32,GP26_A1*%
%TO.N,Net-(J6-Pin_1)*%
X175260000Y-82550000D03*
%TO.P,U1,33,AGND*%
%TO.N,unconnected-(U1-AGND-Pad33)*%
X177800000Y-82550000D03*
%TO.P,U1,34,GP28_A2*%
%TO.N,unconnected-(U1-GP28_A2-Pad34)*%
X180340000Y-82550000D03*
%TO.P,U1,35,ADC_VREF*%
%TO.N,unconnected-(U1-ADC_VREF-Pad35)*%
X182880000Y-82550000D03*
%TO.P,U1,36,3V3*%
%TO.N,+3V3*%
X185420000Y-82550000D03*
%TO.P,U1,37,3V3_EN*%
%TO.N,unconnected-(U1-3V3_EN-Pad37)*%
X187960000Y-82550000D03*
%TO.P,U1,38,GND*%
%TO.N,GND*%
X190500000Y-82550000D03*
%TO.P,U1,39,VSYS*%
%TO.N,+5V*%
X193040000Y-82550000D03*
D14*
%TO.P,U1,40,VBUS*%
X195580000Y-82550000D03*
%TD*%
D15*
%TO.P,C4,1*%
%TO.N,+5V*%
X191770000Y-87860000D03*
%TO.P,C4,2*%
%TO.N,GND*%
X191770000Y-89360000D03*
%TD*%
D10*
%TO.P,J6,1,Pin_1*%
%TO.N,Net-(J6-Pin_1)*%
X165100000Y-88900000D03*
%TD*%
%TO.P,J4,1,Pin_1*%
%TO.N,+5V*%
X181102000Y-60198000D03*
D11*
%TO.P,J4,2,Pin_2*%
%TO.N,GND*%
X178562000Y-60198000D03*
%TD*%
D16*
%TO.P,C2,1*%
%TO.N,Net-(SW1-A)*%
X171450000Y-101600000D03*
%TO.P,C2,2*%
%TO.N,GND*%
X171450000Y-96600000D03*
%TD*%
%TO.P,C3,1*%
%TO.N,+5V*%
X195580000Y-86400000D03*
%TO.P,C3,2*%
%TO.N,GND*%
X195580000Y-91400000D03*
%TD*%
D11*
%TO.P,J2,CD,Pin_9*%
%TO.N,CD*%
X125476000Y-59944000D03*
%TO.P,J2,CK,Pin_4*%
%TO.N,SCK*%
X112776000Y-59944000D03*
%TO.P,J2,CMD,Pin_6*%
%TO.N,TX*%
X117856000Y-59944000D03*
%TO.P,J2,D0,Pin_2*%
%TO.N,RX*%
X107696000Y-59944000D03*
D10*
%TO.P,J2,D1,Pin_1*%
%TO.N,unconnected-(J2-Pin_1-PadD1)*%
X105156000Y-59944000D03*
D11*
%TO.P,J2,D2,Pin_8*%
%TO.N,unconnected-(J2-Pin_8-PadD2)*%
X122936000Y-59944000D03*
%TO.P,J2,D3,Pin_7*%
%TO.N,CS*%
X120396000Y-59944000D03*
%TO.P,J2,GD,Pin_3*%
%TO.N,GND*%
X110236000Y-59944000D03*
%TO.P,J2,VD,Pin_5*%
%TO.N,+3V3*%
X115316000Y-59944000D03*
%TO.P,J2,WP*%
%TO.N,N/C*%
X128016000Y-59944000D03*
%TD*%
D10*
%TO.P,J5,1,Pin_1*%
%TO.N,Net-(J1-Pin_12)*%
X154305000Y-98420000D03*
D11*
%TO.P,J5,2,Pin_2*%
%TO.N,GND*%
X154305000Y-100960000D03*
%TD*%
D10*
%TO.P,U2,1,IN*%
%TO.N,Net-(SW1-A)*%
X181610000Y-96520000D03*
D11*
%TO.P,U2,2,GND*%
%TO.N,GND*%
X179070000Y-96520000D03*
%TO.P,U2,3,OUT*%
%TO.N,+5V*%
X176530000Y-96520000D03*
%TD*%
D17*
%TO.P,Q1,1,C*%
%TO.N,+5V*%
X186055000Y-60325000D03*
D18*
%TO.P,Q1,2,B*%
%TO.N,Net-(Q1-B)*%
X187325000Y-60325000D03*
%TO.P,Q1,3,E*%
%TO.N,GND*%
X188595000Y-60325000D03*
%TD*%
D19*
%TO.P,J3,1,Pin_1*%
%TO.N,Net-(J3-Pin_1)*%
X191770000Y-101600000D03*
D20*
%TO.P,J3,2,Pin_2*%
%TO.N,GND*%
X191770000Y-96520000D03*
%TD*%
D10*
%TO.P,J1,1,Pin_1*%
%TO.N,D7*%
X141605000Y-89535000D03*
D11*
%TO.P,J1,2,Pin_2*%
%TO.N,D6*%
X141605000Y-92075000D03*
%TO.P,J1,3,Pin_3*%
%TO.N,D5*%
X144145000Y-89535000D03*
%TO.P,J1,4,Pin_4*%
%TO.N,D4*%
X144145000Y-92075000D03*
%TO.P,J1,5,Pin_5*%
%TO.N,unconnected-(J1-Pin_5-Pad5)*%
X146685000Y-89535000D03*
%TO.P,J1,6,Pin_6*%
%TO.N,unconnected-(J1-Pin_6-Pad6)*%
X146685000Y-92075000D03*
%TO.P,J1,7,Pin_7*%
%TO.N,unconnected-(J1-Pin_7-Pad7)*%
X149225000Y-89535000D03*
%TO.P,J1,8,Pin_8*%
%TO.N,unconnected-(J1-Pin_8-Pad8)*%
X149225000Y-92075000D03*
%TO.P,J1,9,Pin_9*%
%TO.N,E1*%
X151765000Y-89535000D03*
%TO.P,J1,10,Pin_10*%
%TO.N,GND*%
X151765000Y-92075000D03*
%TO.P,J1,11,Pin_11*%
%TO.N,RS*%
X154305000Y-89535000D03*
%TO.P,J1,12,Pin_12*%
%TO.N,Net-(J1-Pin_12)*%
X154305000Y-92075000D03*
%TO.P,J1,13,Pin_13*%
%TO.N,GND*%
X156845000Y-89535000D03*
%TO.P,J1,14,Pin_14*%
%TO.N,+5V*%
X156845000Y-92075000D03*
%TO.P,J1,15,Pin_15*%
%TO.N,E2*%
X159385000Y-89535000D03*
%TO.P,J1,16,Pin_16*%
%TO.N,unconnected-(J1-Pin_16-Pad16)*%
X159385000Y-92075000D03*
%TD*%
D10*
%TO.P,J8,1,Pin_1*%
%TO.N,GND*%
X176276000Y-91948000D03*
D11*
%TO.P,J8,2,Pin_2*%
X173736000Y-91948000D03*
%TO.P,J8,3,Pin_3*%
X171196000Y-91948000D03*
%TD*%
D10*
%TO.P,SW1,1,A*%
%TO.N,Net-(SW1-A)*%
X176530000Y-101600000D03*
D11*
%TO.P,SW1,2,B*%
%TO.N,Net-(J3-Pin_1)*%
X179070000Y-101600000D03*
%TO.P,SW1,3,C*%
%TO.N,unconnected-(SW1-C-Pad3)*%
X181610000Y-101600000D03*
%TD*%
D15*
%TO.P,C1,1*%
%TO.N,Net-(SW1-A)*%
X167640000Y-99520000D03*
%TO.P,C1,2*%
%TO.N,GND*%
X167640000Y-98020000D03*
%TD*%
D21*
%TO.N,RX*%
X137160000Y-81915000D03*
%TO.N,SCK*%
X135890000Y-80010000D03*
%TO.N,TX*%
X135255000Y-78105000D03*
%TO.N,+3V3*%
X142240000Y-67310000D03*
X153035000Y-71755000D03*
%TO.N,CS*%
X138430000Y-72390000D03*
X148590000Y-76835000D03*
%TD*%
D22*
%TO.N,RS*%
X161410000Y-83700000D02*
X162560000Y-82550000D01*
X160140000Y-83700000D02*
X161410000Y-83700000D01*
X154305000Y-89535000D02*
X160140000Y-83700000D01*
%TO.N,D6*%
X138665000Y-90405000D02*
X140335000Y-92075000D01*
X147320000Y-64770000D02*
X138665000Y-73425000D01*
X140335000Y-92075000D02*
X141605000Y-92075000D01*
X138665000Y-73425000D02*
X138665000Y-90405000D01*
%TO.N,D7*%
X141605000Y-89535000D02*
X141605000Y-78105000D01*
X141605000Y-78105000D02*
X154940000Y-64770000D01*
%TO.N,D4*%
X139065000Y-75565000D02*
X149860000Y-64770000D01*
X142755000Y-90685000D02*
X140215000Y-90685000D01*
X139065000Y-89535000D02*
X139065000Y-75565000D01*
X144145000Y-92075000D02*
X142755000Y-90685000D01*
X140215000Y-90685000D02*
X139065000Y-89535000D01*
%TO.N,E1*%
X155060000Y-90685000D02*
X155695000Y-90050000D01*
X155695000Y-89058654D02*
X160298654Y-84455000D01*
X155695000Y-90050000D02*
X155695000Y-89058654D01*
X152915000Y-90685000D02*
X155060000Y-90685000D01*
X165735000Y-84455000D02*
X167640000Y-82550000D01*
X160298654Y-84455000D02*
X165735000Y-84455000D01*
X151765000Y-89535000D02*
X152915000Y-90685000D01*
%TO.N,Net-(J6-Pin_1)*%
X165100000Y-88900000D02*
X170300000Y-83700000D01*
X174110000Y-83700000D02*
X175260000Y-82550000D01*
X170300000Y-83700000D02*
X174110000Y-83700000D01*
%TO.N,+5V*%
X171196000Y-87298000D02*
X176276000Y-87298000D01*
X176530000Y-96520000D02*
X181830000Y-91220000D01*
X188410000Y-91220000D02*
X191770000Y-87860000D01*
X195580000Y-86400000D02*
X195580000Y-82550000D01*
X191770000Y-87860000D02*
X193230000Y-86400000D01*
X176530000Y-96520000D02*
X175260000Y-95250000D01*
X188292000Y-87298000D02*
X193040000Y-82550000D01*
X181830000Y-91220000D02*
X188410000Y-91220000D01*
X186055000Y-60325000D02*
X181229000Y-60325000D01*
X186055000Y-63778654D02*
X186570000Y-64293654D01*
X175260000Y-95250000D02*
X160020000Y-95250000D01*
X186570000Y-76080000D02*
X193040000Y-82550000D01*
X181229000Y-60325000D02*
X181102000Y-60198000D01*
X186570000Y-64293654D02*
X186570000Y-76080000D01*
X186055000Y-60325000D02*
X186055000Y-63778654D01*
X160020000Y-95250000D02*
X156845000Y-92075000D01*
X176276000Y-87298000D02*
X188292000Y-87298000D01*
X193230000Y-86400000D02*
X195580000Y-86400000D01*
X195580000Y-82550000D02*
X193040000Y-82550000D01*
%TO.N,D5*%
X144145000Y-78105000D02*
X157480000Y-64770000D01*
X144145000Y-89535000D02*
X144145000Y-78105000D01*
%TO.N,RX*%
X137160000Y-81915000D02*
X125095000Y-81915000D01*
X107696000Y-64516000D02*
X107696000Y-59944000D01*
X125095000Y-81915000D02*
X107696000Y-64516000D01*
%TO.N,SCK*%
X128270000Y-80010000D02*
X112776000Y-64516000D01*
X112776000Y-64516000D02*
X112776000Y-59944000D01*
X135890000Y-80010000D02*
X128270000Y-80010000D01*
%TO.N,TX*%
X117856000Y-64516000D02*
X131445000Y-78105000D01*
X131445000Y-78105000D02*
X135255000Y-78105000D01*
X117856000Y-59944000D02*
X117856000Y-64516000D01*
%TO.N,+3V3*%
X185420000Y-82550000D02*
X174625000Y-71755000D01*
X174625000Y-71755000D02*
X153035000Y-71755000D01*
X142240000Y-67310000D02*
X133350000Y-58420000D01*
X116840000Y-58420000D02*
X115316000Y-59944000D01*
X133350000Y-58420000D02*
X116840000Y-58420000D01*
%TO.N,CS*%
X149860000Y-78105000D02*
X148590000Y-76835000D01*
X128270000Y-72390000D02*
X120396000Y-64516000D01*
X120396000Y-64516000D02*
X120396000Y-59944000D01*
X149860000Y-82550000D02*
X149860000Y-78105000D01*
X138430000Y-72390000D02*
X128270000Y-72390000D01*
%TO.N,Net-(J3-Pin_1)*%
X189230000Y-100330000D02*
X180340000Y-100330000D01*
X180340000Y-100330000D02*
X179070000Y-101600000D01*
X191770000Y-101600000D02*
X190500000Y-101600000D01*
X190500000Y-101600000D02*
X189230000Y-100330000D01*
%TO.N,Net-(SW1-A)*%
X176530000Y-101600000D02*
X181610000Y-96520000D01*
X169720000Y-101600000D02*
X167640000Y-99520000D01*
X176530000Y-101600000D02*
X171450000Y-101600000D01*
X171450000Y-101600000D02*
X169720000Y-101600000D01*
%TO.N,Net-(Q1-B)*%
X187325000Y-59375000D02*
X186878000Y-58928000D01*
X175260000Y-58928000D02*
X173736000Y-60452000D01*
X186878000Y-58928000D02*
X175260000Y-58928000D01*
X187325000Y-60325000D02*
X187325000Y-59375000D01*
%TO.N,Net-(J1-Pin_12)*%
X154305000Y-92075000D02*
X154305000Y-98420000D01*
%TO.N,PWM*%
X167640000Y-61976000D02*
X167640000Y-64770000D01*
X166116000Y-60452000D02*
X167640000Y-61976000D01*
%TD*%
M02*
